{"asset":{"version":"2.0","generator":"babylon.js glTF exporter for Maya 2018 v1.4.0"},"scene":0,"scenes":[{"nodes":[0,1,2,3,4,5,6,7,8,9,10,14],"extensions":{}}],"nodes":[{"mesh":0,"translation":[0.0,0.0,0.0],"rotation":[0.0,0.0,0.0,1.0],"scale":[1.0,1.0,1.0],"name":"pSphere1"},{"mesh":1,"translation":[3.0,0.0,0.0],"rotation":[0.0,0.0,0.0,1.0],"scale":[1.0,1.0,1.0],"name":"pSphere2"},{"mesh":2,"translation":[6.0,0.0,0.0],"rotation":[0.0,0.0,0.0,1.0],"scale":[1.0,1.0,1.0],"name":"pSphere3"},{"mesh":3,"translation":[9.0,0.0,0.0],"rotation":[0.0,0.0,0.0,1.0],"scale":[1.0,1.0,1.0],"name":"pSphere4"},{"mesh":4,"translation":[0.0,0.0,-5.0],"rotation":[0.0,0.0,0.0,1.0],"scale":[1.0,1.0,1.0],"name":"pSphere6"},{"mesh":5,"translation":[6.0,0.0,-5.0],"rotation":[0.0,0.0,0.0,1.0],"scale":[1.0,1.0,1.0],"name":"pSphere7"},{"mesh":6,"translation":[3.0,0.0,-5.0],"rotation":[0.0,0.0,0.0,1.0],"scale":[1.0,1.0,1.0],"name":"pSphere8"},{"mesh":7,"translation":[6.0,0.0,-5.0],"rotation":[0.0,0.0,0.0,1.0],"scale":[1.0,1.0,1.0],"name":"pSphere9"},{"mesh":8,"translation":[0.0,0.0,-5.0],"rotation":[0.0,0.0,0.0,1.0],"scale":[1.0,1.0,1.0],"name":"pSphere10"},{"mesh":9,"translation":[3.0,0.0,-5.0],"rotation":[0.0,0.0,0.0,1.0],"scale":[1.0,1.0,1.0],"name":"pSphere11"},{"children":[11,12,13],"translation":[0.0,0.0,0.0],"rotation":[0.0,0.0,0.0,1.0],"scale":[1.0,1.0,1.0],"name":"group"},{"mesh":10,"translation":[6.0,0.0,-5.0],"rotation":[0.0,0.0,0.0,1.0],"scale":[1.0,1.0,1.0],"name":"pasted__pSphere9"},{"mesh":11,"translation":[0.0,0.0,-5.0],"rotation":[0.0,0.0,0.0,1.0],"scale":[1.0,1.0,1.0],"name":"pasted__pSphere10"},{"mesh":12,"translation":[3.0,0.0,-5.0],"rotation":[0.0,0.0,0.0,1.0],"scale":[1.0,1.0,1.0],"name":"pasted__pSphere11"},{"translation":[0.0,0.0,0.0],"rotation":[0.0,0.0,0.0,1.0],"scale":[1.0,1.0,1.0],"name":"Default light"}],"meshes":[{"primitives":[{"attributes":{"POSITION":1,"TANGENT":2,"NORMAL":3,"TEXCOORD_0":4},"indices":0,"mode":4,"material":0}],"name":"pSphere1"},{"primitives":[{"attributes":{"POSITION":6,"TANGENT":7,"NORMAL":8,"TEXCOORD_0":9},"indices":5,"mode":4,"material":1}],"name":"pSphere2"},{"primitives":[{"attributes":{"POSITION":11,"TANGENT":12,"NORMAL":13,"TEXCOORD_0":14},"indices":10,"mode":4,"material":2}],"name":"pSphere3"},{"primitives":[{"attributes":{"POSITION":16,"TANGENT":17,"NORMAL":18,"TEXCOORD_0":19},"indices":15,"mode":4,"material":3}],"name":"pSphere4"},{"primitives":[{"attributes":{"POSITION":21,"TANGENT":22,"NORMAL":23,"TEXCOORD_0":24},"indices":20,"mode":4,"material":4}],"name":"pSphere6"},{"primitives":[{"attributes":{"POSITION":26,"TANGENT":27,"NORMAL":28,"TEXCOORD_0":29},"indices":25,"mode":4,"material":2}],"name":"pSphere7"},{"primitives":[{"attributes":{"POSITION":31,"TANGENT":32,"NORMAL":33,"TEXCOORD_0":34},"indices":30,"mode":4,"material":1}],"name":"pSphere8"},{"primitives":[{"attributes":{"POSITION":36,"TANGENT":37,"NORMAL":38,"TEXCOORD_0":39},"indices":35,"mode":4,"material":5}],"name":"pSphere9"},{"primitives":[{"attributes":{"POSITION":41,"TANGENT":42,"NORMAL":43,"TEXCOORD_0":44},"indices":40,"mode":4,"material":0}],"name":"pSphere10"},{"primitives":[{"attributes":{"POSITION":46,"TANGENT":47,"NORMAL":48,"TEXCOORD_0":49},"indices":45,"mode":4,"material":6}],"name":"pSphere11"},{"primitives":[{"attributes":{"POSITION":51,"TANGENT":52,"NORMAL":53,"TEXCOORD_0":54},"indices":50,"mode":4,"material":5}],"name":"pasted__pSphere9"},{"primitives":[{"attributes":{"POSITION":56,"TANGENT":57,"NORMAL":58,"TEXCOORD_0":59},"indices":55,"mode":4,"material":4}],"name":"pasted__pSphere10"},{"primitives":[{"attributes":{"POSITION":61,"TANGENT":62,"NORMAL":63,"TEXCOORD_0":64},"indices":60,"mode":4,"material":6}],"name":"pasted__pSphere11"}],"accessors":[{"bufferView":0,"componentType":5123,"count":1140,"type":"SCALAR","name":"accessorIndices"},{"bufferView":1,"componentType":5126,"count":229,"max":[0.0,1.0,1.00000012],"min":[-1.00000024,-1.0,-1.00000048],"type":"VEC3","name":"accessorPositions"},{"bufferView":2,"componentType":5126,"count":229,"type":"VEC4","name":"accessorTangents"},{"bufferView":1,"byteOffset":2748,"componentType":5126,"count":229,"type":"VEC3","name":"accessorNormals"},{"bufferView":3,"componentType":5126,"count":229,"type":"VEC2","name":"accessorUVs"},{"bufferView":0,"byteOffset":2280,"componentType":5123,"count":1140,"type":"SCALAR","name":"accessorIndices"},{"bufferView":1,"byteOffset":5496,"componentType":5126,"count":229,"max":[0.0,1.0,1.00000012],"min":[-1.00000024,-1.0,-1.00000048],"type":"VEC3","name":"accessorPositions"},{"bufferView":2,"byteOffset":3664,"componentType":5126,"count":229,"type":"VEC4","name":"accessorTangents"},{"bufferView":1,"byteOffset":8244,"componentType":5126,"count":229,"type":"VEC3","name":"accessorNormals"},{"bufferView":3,"byteOffset":1832,"componentType":5126,"count":229,"type":"VEC2","name":"accessorUVs"},{"bufferView":0,"byteOffset":4560,"componentType":5123,"count":1140,"type":"SCALAR","name":"accessorIndices"},{"bufferView":1,"byteOffset":10992,"componentType":5126,"count":229,"max":[0.0,1.0,1.00000012],"min":[-1.00000024,-1.0,-1.00000048],"type":"VEC3","name":"accessorPositions"},{"bufferView":2,"byteOffset":7328,"componentType":5126,"count":229,"type":"VEC4","name":"accessorTangents"},{"bufferView":1,"byteOffset":13740,"componentType":5126,"count":229,"type":"VEC3","name":"accessorNormals"},{"bufferView":3,"byteOffset":3664,"componentType":5126,"count":229,"type":"VEC2","name":"accessorUVs"},{"bufferView":0,"byteOffset":6840,"componentType":5123,"count":1140,"type":"SCALAR","name":"accessorIndices"},{"bufferView":1,"byteOffset":16488,"componentType":5126,"count":229,"max":[0.0,1.0,1.00000012],"min":[-1.00000024,-1.0,-1.00000048],"type":"VEC3","name":"accessorPositions"},{"bufferView":2,"byteOffset":10992,"componentType":5126,"count":229,"type":"VEC4","name":"accessorTangents"},{"bufferView":1,"byteOffset":19236,"componentType":5126,"count":229,"type":"VEC3","name":"accessorNormals"},{"bufferView":3,"byteOffset":5496,"componentType":5126,"count":229,"type":"VEC2","name":"accessorUVs"},{"bufferView":0,"byteOffset":9120,"componentType":5123,"count":1140,"type":"SCALAR","name":"accessorIndices"},{"bufferView":1,"byteOffset":21984,"componentType":5126,"count":229,"max":[0.0,1.0,1.00000012],"min":[-1.00000024,-1.0,-1.00000048],"type":"VEC3","name":"accessorPositions"},{"bufferView":2,"byteOffset":14656,"componentType":5126,"count":229,"type":"VEC4","name":"accessorTangents"},{"bufferView":1,"byteOffset":24732,"componentType":5126,"count":229,"type":"VEC3","name":"accessorNormals"},{"bufferView":3,"byteOffset":7328,"componentType":5126,"count":229,"type":"VEC2","name":"accessorUVs"},{"bufferView":0,"byteOffset":11400,"componentType":5123,"count":1140,"type":"SCALAR","name":"accessorIndices"},{"bufferView":1,"byteOffset":27480,"componentType":5126,"count":229,"max":[0.0,1.0,1.00000012],"min":[-1.00000024,-1.0,-1.00000048],"type":"VEC3","name":"accessorPositions"},{"bufferView":2,"byteOffset":18320,"componentType":5126,"count":229,"type":"VEC4","name":"accessorTangents"},{"bufferView":1,"byteOffset":30228,"componentType":5126,"count":229,"type":"VEC3","name":"accessorNormals"},{"bufferView":3,"byteOffset":9160,"componentType":5126,"count":229,"type":"VEC2","name":"accessorUVs"},{"bufferView":0,"byteOffset":13680,"componentType":5123,"count":1140,"type":"SCALAR","name":"accessorIndices"},{"bufferView":1,"byteOffset":32976,"componentType":5126,"count":229,"max":[0.0,1.0,1.00000012],"min":[-1.00000024,-1.0,-1.00000048],"type":"VEC3","name":"accessorPositions"},{"bufferView":2,"byteOffset":21984,"componentType":5126,"count":229,"type":"VEC4","name":"accessorTangents"},{"bufferView":1,"byteOffset":35724,"componentType":5126,"count":229,"type":"VEC3","name":"accessorNormals"},{"bufferView":3,"byteOffset":10992,"componentType":5126,"count":229,"type":"VEC2","name":"accessorUVs"},{"bufferView":0,"byteOffset":15960,"componentType":5123,"count":1140,"type":"SCALAR","name":"accessorIndices"},{"bufferView":1,"byteOffset":38472,"componentType":5126,"count":229,"max":[0.0,1.0,1.00000012],"min":[-1.00000024,-1.0,-1.00000048],"type":"VEC3","name":"accessorPositions"},{"bufferView":2,"byteOffset":25648,"componentType":5126,"count":229,"type":"VEC4","name":"accessorTangents"},{"bufferView":1,"byteOffset":41220,"componentType":5126,"count":229,"type":"VEC3","name":"accessorNormals"},{"bufferView":3,"byteOffset":12824,"componentType":5126,"count":229,"type":"VEC2","name":"accessorUVs"},{"bufferView":0,"byteOffset":18240,"componentType":5123,"count":1140,"type":"SCALAR","name":"accessorIndices"},{"bufferView":1,"byteOffset":43968,"componentType":5126,"count":229,"max":[0.0,1.0,1.00000012],"min":[-1.00000024,-1.0,-1.00000048],"type":"VEC3","name":"accessorPositions"},{"bufferView":2,"byteOffset":29312,"componentType":5126,"count":229,"type":"VEC4","name":"accessorTangents"},{"bufferView":1,"byteOffset":46716,"componentType":5126,"count":229,"type":"VEC3","name":"accessorNormals"},{"bufferView":3,"byteOffset":14656,"componentType":5126,"count":229,"type":"VEC2","name":"accessorUVs"},{"bufferView":0,"byteOffset":20520,"componentType":5123,"count":1140,"type":"SCALAR","name":"accessorIndices"},{"bufferView":1,"byteOffset":49464,"componentType":5126,"count":229,"max":[0.0,1.0,1.00000012],"min":[-1.00000024,-1.0,-1.00000048],"type":"VEC3","name":"accessorPositions"},{"bufferView":2,"byteOffset":32976,"componentType":5126,"count":229,"type":"VEC4","name":"accessorTangents"},{"bufferView":1,"byteOffset":52212,"componentType":5126,"count":229,"type":"VEC3","name":"accessorNormals"},{"bufferView":3,"byteOffset":16488,"componentType":5126,"count":229,"type":"VEC2","name":"accessorUVs"},{"bufferView":0,"byteOffset":22800,"componentType":5123,"count":1140,"type":"SCALAR","name":"accessorIndices"},{"bufferView":1,"byteOffset":54960,"componentType":5126,"count":229,"max":[0.0,1.0,1.00000012],"min":[-1.00000024,-1.0,-1.00000048],"type":"VEC3","name":"accessorPositions"},{"bufferView":2,"byteOffset":36640,"componentType":5126,"count":229,"type":"VEC4","name":"accessorTangents"},{"bufferView":1,"byteOffset":57708,"componentType":5126,"count":229,"type":"VEC3","name":"accessorNormals"},{"bufferView":3,"byteOffset":18320,"componentType":5126,"count":229,"type":"VEC2","name":"accessorUVs"},{"bufferView":0,"byteOffset":25080,"componentType":5123,"count":1140,"type":"SCALAR","name":"accessorIndices"},{"bufferView":1,"byteOffset":60456,"componentType":5126,"count":229,"max":[0.0,1.0,1.00000012],"min":[-1.00000024,-1.0,-1.00000048],"type":"VEC3","name":"accessorPositions"},{"bufferView":2,"byteOffset":40304,"componentType":5126,"count":229,"type":"VEC4","name":"accessorTangents"},{"bufferView":1,"byteOffset":63204,"componentType":5126,"count":229,"type":"VEC3","name":"accessorNormals"},{"bufferView":3,"byteOffset":20152,"componentType":5126,"count":229,"type":"VEC2","name":"accessorUVs"},{"bufferView":0,"byteOffset":27360,"componentType":5123,"count":1140,"type":"SCALAR","name":"accessorIndices"},{"bufferView":1,"byteOffset":65952,"componentType":5126,"count":229,"max":[0.0,1.0,1.00000012],"min":[-1.00000024,-1.0,-1.00000048],"type":"VEC3","name":"accessorPositions"},{"bufferView":2,"byteOffset":43968,"componentType":5126,"count":229,"type":"VEC4","name":"accessorTangents"},{"bufferView":1,"byteOffset":68700,"componentType":5126,"count":229,"type":"VEC3","name":"accessorNormals"},{"bufferView":3,"byteOffset":21984,"componentType":5126,"count":229,"type":"VEC2","name":"accessorUVs"}],"bufferViews":[{"buffer":0,"byteLength":29640,"name":"bufferViewScalar"},{"buffer":0,"byteOffset":29640,"byteLength":71448,"byteStride":12,"name":"bufferViewFloatVec3"},{"buffer":0,"byteOffset":101088,"byteLength":47632,"byteStride":16,"name":"bufferViewFloatVec4"},{"buffer":0,"byteOffset":148720,"byteLength":23816,"byteStride":8,"name":"bufferViewFloatVec2"}],"buffers":[{"uri":"BackfaceCulling.bin","byteLength":172536}],"materials":[{"pbrMetallicRoughness":{"baseColorFactor":[0.5,0.0,0.0,1.0],"metallicFactor":0.0,"roughnessFactor":0.2581639},"emissiveFactor":[0.0,0.0,0.0],"alphaMode":"OPAQUE","name":"StandardBackFaceMaterial"},{"pbrMetallicRoughness":{"baseColorFactor":[0.0,1.0,0.0,1.0],"metallicFactor":0.0,"roughnessFactor":0.33},"emissiveFactor":[0.0,0.0,0.0],"alphaMode":"OPAQUE","name":"PhysicalBackFaceMaterial"},{"pbrMetallicRoughness":{"baseColorFactor":[0.0,0.0,0.8,1.0],"metallicFactor":0.0,"roughnessFactor":0.1},"emissiveFactor":[0.0,0.0,0.0],"alphaMode":"OPAQUE","name":"StandardBackfaceArnold"},{"pbrMetallicRoughness":{"baseColorFactor":[0.25,0.25,0.25,1.0],"metallicFactor":0.0,"roughnessFactor":0.450053632},"emissiveFactor":[0.0,0.0,0.0],"alphaMode":"OPAQUE","name":"lambert1"},{"pbrMetallicRoughness":{"baseColorFactor":[0.5,0.0,0.0,1.0],"metallicFactor":0.0,"roughnessFactor":0.2581639},"emissiveFactor":[0.0,0.0,0.0],"alphaMode":"OPAQUE","doubleSided":true,"name":"StandardMaterial"},{"pbrMetallicRoughness":{"baseColorFactor":[0.0,0.0,0.8,1.0],"metallicFactor":0.0,"roughnessFactor":0.1},"emissiveFactor":[0.0,0.0,0.0],"alphaMode":"OPAQUE","doubleSided":true,"name":"StandardArnold"},{"pbrMetallicRoughness":{"baseColorFactor":[0.0,1.0,0.0,1.0],"metallicFactor":0.0,"roughnessFactor":0.33},"emissiveFactor":[0.0,0.0,0.0],"alphaMode":"OPAQUE","doubleSided":true,"name":"PhysicalMaterial"}]}