{"asset":{"version":"2.0","generator":"babylon.js glTF exporter for Maya 2018 v1.4.0"},"scene":0,"scenes":[{"nodes":[0,1,2,3,4,5,6,7,9,12],"extensions":{}}],"nodes":[{"mesh":0,"translation":[0.0,0.0,0.0],"rotation":[0.0,0.0,0.0,1.0],"scale":[1.0,1.0,1.0],"name":"pSphere1"},{"mesh":1,"translation":[3.0,0.0,0.0],"rotation":[0.0,0.0,0.0,1.0],"scale":[1.0,1.0,1.0],"name":"pSphere2"},{"mesh":2,"translation":[6.0,0.0,0.0],"rotation":[0.0,0.0,0.0,1.0],"scale":[1.0,1.0,1.0],"name":"pSphere3"},{"mesh":3,"translation":[9.0,0.0,0.0],"rotation":[0.0,0.0,0.0,1.0],"scale":[1.0,1.0,1.0],"name":"pSphere4"},{"mesh":4,"translation":[6.0,0.0,-5.0],"rotation":[0.0,0.0,0.0,1.0],"scale":[1.0,1.0,1.0],"name":"pSphere6"},{"mesh":5,"translation":[0.0,0.0,-5.0],"rotation":[0.0,0.0,0.0,1.0],"scale":[1.0,1.0,1.0],"name":"pSphere8"},{"mesh":6,"translation":[3.0,0.0,-5.0],"rotation":[0.0,0.0,0.0,1.0],"scale":[1.0,1.0,1.0],"name":"pSphere9"},{"children":[8],"translation":[3.97393966,5.819078,0.0],"rotation":[0.0,0.0,-0.9848077,0.173648179],"scale":[1.0,1.0,1.0],"name":"group"},{"translation":[0.0,3.0,0.0],"rotation":[0.0,0.0,0.0,1.0],"scale":[1.0,1.0,1.0],"name":"pasted__directionalLight1"},{"children":[10,11],"translation":[0.0,0.0,0.0],"rotation":[0.0,0.0,0.0,1.0],"scale":[1.0,1.0,1.0],"name":"camera1_group"},{"translation":[4.768676,0.0,-1.375872],"rotation":[0.0,0.0,0.0,1.0],"scale":[1.0,1.0,1.0],"name":"camera1_aim"},{"camera":0,"translation":[7.51448154,4.345782,8.478183],"rotation":[-0.19767645,0.132735774,0.0270262,0.9708629],"scale":[1.0,1.0,1.0],"name":"camera1"},{"translation":[0.0,3.0,0.0],"rotation":[0.0,0.0,0.0,1.0],"scale":[1.0,1.0,1.0],"name":"directionalLight1"}],"cameras":[{"perspective":{"yfov":0.6605947,"zfar":10000.0,"znear":0.1},"type":"perspective","name":"camera1"}],"meshes":[{"primitives":[{"attributes":{"POSITION":1,"TANGENT":2,"NORMAL":3,"TEXCOORD_0":4},"indices":0,"mode":4,"material":0}],"name":"pSphere1"},{"primitives":[{"attributes":{"POSITION":6,"TANGENT":7,"NORMAL":8,"TEXCOORD_0":9},"indices":5,"mode":4,"material":1}],"name":"pSphere2"},{"primitives":[{"attributes":{"POSITION":11,"TANGENT":12,"NORMAL":13,"TEXCOORD_0":14},"indices":10,"mode":4,"material":2}],"name":"pSphere3"},{"primitives":[{"attributes":{"POSITION":16,"TANGENT":17,"NORMAL":18,"TEXCOORD_0":19},"indices":15,"mode":4,"material":3}],"name":"pSphere4"},{"primitives":[{"attributes":{"POSITION":21,"TANGENT":22,"NORMAL":23,"TEXCOORD_0":24},"indices":20,"mode":4,"material":4}],"name":"pSphere6"},{"primitives":[{"attributes":{"POSITION":26,"TANGENT":27,"NORMAL":28,"TEXCOORD_0":29},"indices":25,"mode":4,"material":5}],"name":"pSphere8"},{"primitives":[{"attributes":{"POSITION":31,"TANGENT":32,"NORMAL":33,"TEXCOORD_0":34},"indices":30,"mode":4,"material":6}],"name":"pSphere9"}],"accessors":[{"bufferView":0,"componentType":5123,"count":2280,"type":"SCALAR","name":"accessorIndices"},{"bufferView":1,"componentType":5126,"count":439,"max":[1.0,1.0,1.00000012],"min":[-1.00000024,-1.0,-1.00000048],"type":"VEC3","name":"accessorPositions"},{"bufferView":2,"componentType":5126,"count":439,"type":"VEC4","name":"accessorTangents"},{"bufferView":1,"byteOffset":5268,"componentType":5126,"count":439,"type":"VEC3","name":"accessorNormals"},{"bufferView":3,"componentType":5126,"count":439,"type":"VEC2","name":"accessorUVs"},{"bufferView":0,"byteOffset":4560,"componentType":5123,"count":2280,"type":"SCALAR","name":"accessorIndices"},{"bufferView":1,"byteOffset":10536,"componentType":5126,"count":439,"max":[1.0,1.0,1.00000012],"min":[-1.00000024,-1.0,-1.00000048],"type":"VEC3","name":"accessorPositions"},{"bufferView":2,"byteOffset":7024,"componentType":5126,"count":439,"type":"VEC4","name":"accessorTangents"},{"bufferView":1,"byteOffset":15804,"componentType":5126,"count":439,"type":"VEC3","name":"accessorNormals"},{"bufferView":3,"byteOffset":3512,"componentType":5126,"count":439,"type":"VEC2","name":"accessorUVs"},{"bufferView":0,"byteOffset":9120,"componentType":5123,"count":2280,"type":"SCALAR","name":"accessorIndices"},{"bufferView":1,"byteOffset":21072,"componentType":5126,"count":439,"max":[1.0,1.0,1.00000012],"min":[-1.00000024,-1.0,-1.00000048],"type":"VEC3","name":"accessorPositions"},{"bufferView":2,"byteOffset":14048,"componentType":5126,"count":439,"type":"VEC4","name":"accessorTangents"},{"bufferView":1,"byteOffset":26340,"componentType":5126,"count":439,"type":"VEC3","name":"accessorNormals"},{"bufferView":3,"byteOffset":7024,"componentType":5126,"count":439,"type":"VEC2","name":"accessorUVs"},{"bufferView":0,"byteOffset":13680,"componentType":5123,"count":2280,"type":"SCALAR","name":"accessorIndices"},{"bufferView":1,"byteOffset":31608,"componentType":5126,"count":439,"max":[1.0,1.0,1.00000012],"min":[-1.00000024,-1.0,-1.00000048],"type":"VEC3","name":"accessorPositions"},{"bufferView":2,"byteOffset":21072,"componentType":5126,"count":439,"type":"VEC4","name":"accessorTangents"},{"bufferView":1,"byteOffset":36876,"componentType":5126,"count":439,"type":"VEC3","name":"accessorNormals"},{"bufferView":3,"byteOffset":10536,"componentType":5126,"count":439,"type":"VEC2","name":"accessorUVs"},{"bufferView":0,"byteOffset":18240,"componentType":5123,"count":2280,"type":"SCALAR","name":"accessorIndices"},{"bufferView":1,"byteOffset":42144,"componentType":5126,"count":439,"max":[1.0,1.0,1.00000012],"min":[-1.00000024,-1.0,-1.00000048],"type":"VEC3","name":"accessorPositions"},{"bufferView":2,"byteOffset":28096,"componentType":5126,"count":439,"type":"VEC4","name":"accessorTangents"},{"bufferView":1,"byteOffset":47412,"componentType":5126,"count":439,"type":"VEC3","name":"accessorNormals"},{"bufferView":3,"byteOffset":14048,"componentType":5126,"count":439,"type":"VEC2","name":"accessorUVs"},{"bufferView":0,"byteOffset":22800,"componentType":5123,"count":2280,"type":"SCALAR","name":"accessorIndices"},{"bufferView":1,"byteOffset":52680,"componentType":5126,"count":439,"max":[1.0,1.0,1.00000012],"min":[-1.00000024,-1.0,-1.00000048],"type":"VEC3","name":"accessorPositions"},{"bufferView":2,"byteOffset":35120,"componentType":5126,"count":439,"type":"VEC4","name":"accessorTangents"},{"bufferView":1,"byteOffset":57948,"componentType":5126,"count":439,"type":"VEC3","name":"accessorNormals"},{"bufferView":3,"byteOffset":17560,"componentType":5126,"count":439,"type":"VEC2","name":"accessorUVs"},{"bufferView":0,"byteOffset":27360,"componentType":5123,"count":2280,"type":"SCALAR","name":"accessorIndices"},{"bufferView":1,"byteOffset":63216,"componentType":5126,"count":439,"max":[1.0,1.0,1.00000012],"min":[-1.00000024,-1.0,-1.00000048],"type":"VEC3","name":"accessorPositions"},{"bufferView":2,"byteOffset":42144,"componentType":5126,"count":439,"type":"VEC4","name":"accessorTangents"},{"bufferView":1,"byteOffset":68484,"componentType":5126,"count":439,"type":"VEC3","name":"accessorNormals"},{"bufferView":3,"byteOffset":21072,"componentType":5126,"count":439,"type":"VEC2","name":"accessorUVs"},{"bufferView":4,"componentType":5126,"count":2,"max":[8.291667],"min":[0.0],"type":"SCALAR","name":"accessorAnimationInput"},{"bufferView":5,"componentType":5126,"count":2,"type":"VEC4","name":"accessorAnimationRotations"},{"bufferView":4,"byteOffset":8,"componentType":5126,"count":2,"max":[8.291667],"min":[0.0],"type":"SCALAR","name":"accessorAnimationInput"},{"bufferView":6,"componentType":5126,"count":2,"type":"VEC3","name":"accessorAnimationPositions"}],"bufferViews":[{"buffer":0,"byteLength":31920,"name":"bufferViewScalar"},{"buffer":0,"byteOffset":31920,"byteLength":73752,"byteStride":12,"name":"bufferViewFloatVec3"},{"buffer":0,"byteOffset":105672,"byteLength":49168,"byteStride":16,"name":"bufferViewFloatVec4"},{"buffer":0,"byteOffset":154840,"byteLength":24584,"byteStride":8,"name":"bufferViewFloatVec2"},{"buffer":0,"byteOffset":179424,"byteLength":16,"name":"bufferViewAnimationFloatScalar"},{"buffer":0,"byteOffset":179440,"byteLength":32,"name":"bufferViewAnimationFloatVec4"},{"buffer":0,"byteOffset":179472,"byteLength":24,"name":"bufferViewAnimationFloatVec3"}],"buffers":[{"uri":"MaxSimultaneousLights.bin","byteLength":179496}],"materials":[{"pbrMetallicRoughness":{"baseColorFactor":[0.5,0.0,0.0,1.0],"metallicFactor":0.0,"roughnessFactor":0.2581639},"emissiveFactor":[0.0,0.0,0.0],"alphaMode":"OPAQUE","name":"PhongMaterial1"},{"pbrMetallicRoughness":{"baseColorFactor":[0.0,1.0,0.0,1.0],"metallicFactor":0.0,"roughnessFactor":0.33},"emissiveFactor":[0.0,0.0,0.0],"alphaMode":"OPAQUE","name":"PhysicalMaterial1"},{"pbrMetallicRoughness":{"baseColorFactor":[0.0,0.0,0.8,1.0],"metallicFactor":0.0,"roughnessFactor":0.1},"emissiveFactor":[0.0,0.0,0.0],"alphaMode":"OPAQUE","name":"StandardArnoldMaterial1"},{"pbrMetallicRoughness":{"baseColorFactor":[0.25,0.25,0.25,1.0],"metallicFactor":0.0,"roughnessFactor":0.450053632},"emissiveFactor":[0.0,0.0,0.0],"alphaMode":"OPAQUE","name":"lambert1"},{"pbrMetallicRoughness":{"baseColorFactor":[0.0,0.0,0.8,1.0],"metallicFactor":0.0,"roughnessFactor":0.1},"emissiveFactor":[0.0,0.0,0.0],"alphaMode":"OPAQUE","name":"StandardArnoldMaterial2"},{"pbrMetallicRoughness":{"baseColorFactor":[0.5,0.0,0.0,1.0],"metallicFactor":0.0,"roughnessFactor":0.2581639},"emissiveFactor":[0.0,0.0,0.0],"alphaMode":"OPAQUE","name":"PhongMaterial2"},{"pbrMetallicRoughness":{"baseColorFactor":[0.0,1.0,0.0,1.0],"metallicFactor":0.0,"roughnessFactor":0.33},"emissiveFactor":[0.0,0.0,0.0],"alphaMode":"OPAQUE","name":"PhysicalMaterial2"}],"animations":[{"channels":[{"sampler":0,"target":{"node":11,"path":"rotation"}},{"sampler":1,"target":{"node":11,"path":"translation"}}],"samplers":[{"input":35,"interpolation":"LINEAR","output":36},{"input":37,"interpolation":"LINEAR","output":38}],"name":"All Animations"}]}