{"asset":{"version":"2.0","generator":"babylon.js glTF exporter for Maya 2018 v1.4.0"},"scene":0,"scenes":[{"nodes":[0,1,2,3,4],"extensions":{}}],"nodes":[{"mesh":0,"translation":[0.0,0.0,0.0],"rotation":[0.0,0.0,0.0,1.0],"scale":[1.0,1.0,1.0],"name":"pSphere1"},{"mesh":1,"translation":[3.0,0.0,0.0],"rotation":[0.0,0.0,0.0,1.0],"scale":[1.0,1.0,1.0],"name":"pSphere2"},{"mesh":2,"translation":[6.0,0.0,0.0],"rotation":[0.0,0.0,0.0,1.0],"scale":[1.0,1.0,1.0],"name":"pSphere3"},{"mesh":3,"translation":[9.0,0.0,0.0],"rotation":[0.0,0.0,0.0,1.0],"scale":[1.0,1.0,1.0],"name":"pSphere4"},{"translation":[0.0,0.0,0.0],"rotation":[0.0,0.0,0.0,1.0],"scale":[1.0,1.0,1.0],"name":"Default light"}],"meshes":[{"primitives":[{"attributes":{"POSITION":1,"TANGENT":2,"NORMAL":3,"TEXCOORD_0":4},"indices":0,"mode":4,"material":0}],"name":"pSphere1"},{"primitives":[{"attributes":{"POSITION":6,"TANGENT":7,"NORMAL":8,"TEXCOORD_0":9},"indices":5,"mode":4,"material":1}],"name":"pSphere2"},{"primitives":[{"attributes":{"POSITION":11,"TANGENT":12,"NORMAL":13,"TEXCOORD_0":14},"indices":10,"mode":4,"material":2}],"name":"pSphere3"},{"primitives":[{"attributes":{"POSITION":16,"TANGENT":17,"NORMAL":18,"TEXCOORD_0":19},"indices":15,"mode":4,"material":3}],"name":"pSphere4"}],"accessors":[{"bufferView":0,"componentType":5123,"count":2280,"type":"SCALAR","name":"accessorIndices"},{"bufferView":1,"componentType":5126,"count":439,"max":[1.0,1.0,1.00000012],"min":[-1.00000024,-1.0,-1.00000048],"type":"VEC3","name":"accessorPositions"},{"bufferView":2,"componentType":5126,"count":439,"type":"VEC4","name":"accessorTangents"},{"bufferView":1,"byteOffset":5268,"componentType":5126,"count":439,"type":"VEC3","name":"accessorNormals"},{"bufferView":3,"componentType":5126,"count":439,"type":"VEC2","name":"accessorUVs"},{"bufferView":0,"byteOffset":4560,"componentType":5123,"count":2280,"type":"SCALAR","name":"accessorIndices"},{"bufferView":1,"byteOffset":10536,"componentType":5126,"count":439,"max":[1.0,1.0,1.00000012],"min":[-1.00000024,-1.0,-1.00000048],"type":"VEC3","name":"accessorPositions"},{"bufferView":2,"byteOffset":7024,"componentType":5126,"count":439,"type":"VEC4","name":"accessorTangents"},{"bufferView":1,"byteOffset":15804,"componentType":5126,"count":439,"type":"VEC3","name":"accessorNormals"},{"bufferView":3,"byteOffset":3512,"componentType":5126,"count":439,"type":"VEC2","name":"accessorUVs"},{"bufferView":0,"byteOffset":9120,"componentType":5123,"count":2280,"type":"SCALAR","name":"accessorIndices"},{"bufferView":1,"byteOffset":21072,"componentType":5126,"count":439,"max":[1.0,1.0,1.00000012],"min":[-1.00000024,-1.0,-1.00000048],"type":"VEC3","name":"accessorPositions"},{"bufferView":2,"byteOffset":14048,"componentType":5126,"count":439,"type":"VEC4","name":"accessorTangents"},{"bufferView":1,"byteOffset":26340,"componentType":5126,"count":439,"type":"VEC3","name":"accessorNormals"},{"bufferView":3,"byteOffset":7024,"componentType":5126,"count":439,"type":"VEC2","name":"accessorUVs"},{"bufferView":0,"byteOffset":13680,"componentType":5123,"count":2280,"type":"SCALAR","name":"accessorIndices"},{"bufferView":1,"byteOffset":31608,"componentType":5126,"count":439,"max":[1.0,1.0,1.00000012],"min":[-1.00000024,-1.0,-1.00000048],"type":"VEC3","name":"accessorPositions"},{"bufferView":2,"byteOffset":21072,"componentType":5126,"count":439,"type":"VEC4","name":"accessorTangents"},{"bufferView":1,"byteOffset":36876,"componentType":5126,"count":439,"type":"VEC3","name":"accessorNormals"},{"bufferView":3,"byteOffset":10536,"componentType":5126,"count":439,"type":"VEC2","name":"accessorUVs"}],"bufferViews":[{"buffer":0,"byteLength":18240,"name":"bufferViewScalar"},{"buffer":0,"byteOffset":18240,"byteLength":42144,"byteStride":12,"name":"bufferViewFloatVec3"},{"buffer":0,"byteOffset":60384,"byteLength":28096,"byteStride":16,"name":"bufferViewFloatVec4"},{"buffer":0,"byteOffset":88480,"byteLength":14048,"byteStride":8,"name":"bufferViewFloatVec2"}],"buffers":[{"uri":"Unlit.bin","byteLength":102528}],"materials":[{"pbrMetallicRoughness":{"baseColorFactor":[0.5,0.0,0.0,1.0],"metallicFactor":0.0,"roughnessFactor":0.2581639},"emissiveFactor":[1.0,0.0,0.0],"alphaMode":"OPAQUE","name":"PhongUnlitMaterial"},{"pbrMetallicRoughness":{"baseColorFactor":[0.0,1.0,0.0,1.0],"metallicFactor":0.0,"roughnessFactor":0.33},"emissiveFactor":[0.0,0.0,0.0],"alphaMode":"OPAQUE","name":"PhysicUnlitMaterial"},{"pbrMetallicRoughness":{"baseColorFactor":[0.0,0.0,0.8,1.0],"metallicFactor":0.0,"roughnessFactor":0.1},"emissiveFactor":[0.0,0.0,0.0],"alphaMode":"OPAQUE","name":"StandardArnoldUnlitMaterial"},{"pbrMetallicRoughness":{"baseColorFactor":[0.25,0.25,0.25,1.0],"metallicFactor":0.0,"roughnessFactor":0.450053632},"emissiveFactor":[0.5,0.5,0.5],"alphaMode":"OPAQUE","name":"lambert1"}]}