{"asset":{"version":"2.0","generator":"babylon.js glTF exporter for 3dsmax 2019 v1.5.0"},"scene":0,"scenes":[{"nodes":[0,1],"extensions":{}}],"nodes":[{"mesh":0,"translation":[0.0,0.0,0.0],"rotation":[0.50000006,0.5,0.49999997,0.5],"scale":[1.0,1.0,1.0],"name":"Plane001"},{"translation":[0.0,0.0,0.0],"rotation":[0.0,0.0,0.0,1.0],"scale":[1.0,1.0,1.0],"name":"Default light"}],"meshes":[{"primitives":[{"attributes":{"POSITION":1,"NORMAL":2,"TEXCOORD_0":3},"indices":0,"mode":4,"material":0},{"attributes":{"POSITION":5,"NORMAL":6,"TEXCOORD_0":7},"indices":4,"mode":4,"material":1}],"name":"Plane001"}],"accessors":[{"bufferView":0,"componentType":5123,"count":6,"type":"SCALAR","name":"accessorIndices"},{"bufferView":1,"componentType":5126,"count":6,"max":[29.4439182,0.0,25.37577],"min":[-29.4439182,0.0,-25.37577],"type":"VEC3","name":"accessorPositions"},{"bufferView":1,"byteOffset":72,"componentType":5126,"count":6,"type":"VEC3","name":"accessorNormals"},{"bufferView":2,"componentType":5126,"count":6,"type":"VEC2","name":"accessorUVs"},{"bufferView":0,"byteOffset":12,"componentType":5123,"count":6,"type":"SCALAR","name":"accessorIndices"},{"bufferView":1,"byteOffset":144,"componentType":5126,"count":6,"max":[29.4439182,0.0,25.37577],"min":[-29.4439182,0.0,-25.37577],"type":"VEC3","name":"accessorPositions"},{"bufferView":1,"byteOffset":216,"componentType":5126,"count":6,"type":"VEC3","name":"accessorNormals"},{"bufferView":2,"byteOffset":48,"componentType":5126,"count":6,"type":"VEC2","name":"accessorUVs"}],"bufferViews":[{"buffer":0,"byteLength":24,"name":"bufferViewScalar"},{"buffer":0,"byteOffset":24,"byteLength":288,"byteStride":12,"name":"bufferViewFloatVec3"},{"buffer":0,"byteOffset":312,"byteLength":96,"byteStride":8,"name":"bufferViewFloatVec2"}],"buffers":[{"uri":"DoubleSidedMaterial.bin","byteLength":408}],"materials":[{"pbrMetallicRoughness":{"baseColorFactor":[1.0,1.0,1.0,1.0],"baseColorTexture":{"index":0,"texCoord":0},"metallicFactor":0.0,"roughnessFactor":0.450053632},"emissiveFactor":[0.0,0.0,0.0],"alphaMode":"BLEND","name":"FrontMaterial"},{"pbrMetallicRoughness":{"baseColorFactor":[1.0,1.0,1.0,1.0],"baseColorTexture":{"index":1,"texCoord":0},"metallicFactor":0.0,"roughnessFactor":0.450053632},"emissiveFactor":[0.0,0.0,0.0],"alphaMode":"OPAQUE","name":"BackMaterial"}],"textures":[{"sampler":0,"source":0,"name":"FrontMaterial_baseColor.png"},{"sampler":0,"source":1,"name":"BackMaterial_baseColor.png"}],"images":[{"uri":"FrontMaterial_baseColor.png"},{"uri":"BackMaterial_baseColor.png"}],"samplers":[{"magFilter":9729,"minFilter":9987,"wrapS":10497,"wrapT":10497}]}