{"asset":{"version":"2.0","generator":"babylon.js glTF exporter for 3dsmax 2019 vCustom.Build.Version"},"scene":0,"scenes":[{"nodes":[0,1,2,3,4],"extensions":{}}],"nodes":[{"mesh":0,"translation":[0.0,0.0,-3.0],"rotation":[0.0,0.0,0.0,1.0],"scale":[1.0,1.0,1.0],"name":"BoxStandardMaterial_noMultiply"},{"mesh":1,"translation":[0.0,0.0,0.0],"rotation":[0.0,0.0,0.0,1.0],"scale":[1.0,1.0,1.0],"name":"BoxStandardMaterial_multiply"},{"mesh":2,"translation":[3.0,0.0,-3.0],"rotation":[0.0,0.0,0.0,1.0],"scale":[1.0,1.0,1.0],"name":"BoxPhysicalMaterial_noMultiply"},{"mesh":3,"translation":[3.0,0.0,0.0],"rotation":[0.0,0.0,0.0,1.0],"scale":[1.0,1.0,1.0],"name":"BoxPhysicalMaterial_multiply"},{"translation":[0.0,0.0,0.0],"rotation":[0.0,0.0,0.0,1.0],"scale":[1.0,1.0,1.0],"name":"Default light"}],"meshes":[{"primitives":[{"attributes":{"POSITION":1,"NORMAL":2,"TEXCOORD_0":3},"indices":0,"mode":4,"material":0}],"name":"BoxStandardMaterial_noMultiply"},{"primitives":[{"attributes":{"POSITION":5,"NORMAL":6,"TEXCOORD_0":7},"indices":4,"mode":4,"material":1}],"name":"BoxStandardMaterial_multiply"},{"primitives":[{"attributes":{"POSITION":9,"NORMAL":10,"TEXCOORD_0":11},"indices":8,"mode":4,"material":2}],"name":"BoxPhysicalMaterial_noMultiply"},{"primitives":[{"attributes":{"POSITION":13,"NORMAL":14,"TEXCOORD_0":15},"indices":12,"mode":4,"material":3}],"name":"BoxPhysicalMaterial_multiply"}],"accessors":[{"bufferView":0,"componentType":5123,"count":36,"type":"SCALAR","name":"accessorIndices"},{"bufferView":1,"componentType":5126,"count":36,"max":[0.5,1.0,0.5],"min":[-0.5,0.0,-0.5],"type":"VEC3","name":"accessorPositions"},{"bufferView":1,"byteOffset":432,"componentType":5126,"count":36,"type":"VEC3","name":"accessorNormals"},{"bufferView":2,"componentType":5126,"count":36,"type":"VEC2","name":"accessorUVs"},{"bufferView":0,"byteOffset":72,"componentType":5123,"count":36,"type":"SCALAR","name":"accessorIndices"},{"bufferView":1,"byteOffset":864,"componentType":5126,"count":36,"max":[0.5,1.0,0.5],"min":[-0.5,0.0,-0.5],"type":"VEC3","name":"accessorPositions"},{"bufferView":1,"byteOffset":1296,"componentType":5126,"count":36,"type":"VEC3","name":"accessorNormals"},{"bufferView":2,"byteOffset":288,"componentType":5126,"count":36,"type":"VEC2","name":"accessorUVs"},{"bufferView":0,"byteOffset":144,"componentType":5123,"count":36,"type":"SCALAR","name":"accessorIndices"},{"bufferView":1,"byteOffset":1728,"componentType":5126,"count":36,"max":[0.5,1.0,0.5],"min":[-0.5,0.0,-0.5],"type":"VEC3","name":"accessorPositions"},{"bufferView":1,"byteOffset":2160,"componentType":5126,"count":36,"type":"VEC3","name":"accessorNormals"},{"bufferView":2,"byteOffset":576,"componentType":5126,"count":36,"type":"VEC2","name":"accessorUVs"},{"bufferView":0,"byteOffset":216,"componentType":5123,"count":36,"type":"SCALAR","name":"accessorIndices"},{"bufferView":1,"byteOffset":2592,"componentType":5126,"count":36,"max":[0.5,1.0,0.5],"min":[-0.5,0.0,-0.5],"type":"VEC3","name":"accessorPositions"},{"bufferView":1,"byteOffset":3024,"componentType":5126,"count":36,"type":"VEC3","name":"accessorNormals"},{"bufferView":2,"byteOffset":864,"componentType":5126,"count":36,"type":"VEC2","name":"accessorUVs"}],"bufferViews":[{"buffer":0,"byteLength":288,"name":"bufferViewScalar"},{"buffer":0,"byteOffset":288,"byteLength":3456,"byteStride":12,"name":"bufferViewFloatVec3"},{"buffer":0,"byteOffset":3744,"byteLength":1152,"byteStride":8,"name":"bufferViewFloatVec2"}],"buffers":[{"uri":"RGBMultiplyMap.bin","byteLength":4896}],"materials":[{"pbrMetallicRoughness":{"baseColorFactor":[1.0,1.0,1.0,1.0],"baseColorTexture":{"index":0,"texCoord":0},"metallicFactor":0.0,"roughnessFactor":0.450053632},"emissiveFactor":[0.0,0.0,0.0],"alphaMode":"OPAQUE","name":"StandardMaterial_noMultiply"},{"pbrMetallicRoughness":{"baseColorFactor":[0.0,0.0,1.0,1.0],"baseColorTexture":{"index":0,"texCoord":0},"metallicFactor":0.0,"roughnessFactor":0.450053632},"emissiveFactor":[0.0,0.0,0.0],"alphaMode":"OPAQUE","name":"StandardMaterial_multiply"},{"pbrMetallicRoughness":{"baseColorFactor":[1.0,1.0,1.0,1.0],"baseColorTexture":{"index":0,"texCoord":0},"metallicFactor":0.0,"roughnessFactor":0.0},"emissiveFactor":[0.0,0.0,0.0],"alphaMode":"OPAQUE","name":"PhysicalMaterial_noMultiply"},{"pbrMetallicRoughness":{"baseColorFactor":[0.0,0.0,1.0,1.0],"baseColorTexture":{"index":0,"texCoord":0},"metallicFactor":0.0,"roughnessFactor":0.0},"emissiveFactor":[0.0,0.0,0.0],"alphaMode":"OPAQUE","name":"PhysicalMaterial_multiply"}],"textures":[{"sampler":0,"source":0,"name":"20140615_192225.png"}],"images":[{"uri":"./20140615_192225.png"}],"samplers":[{"magFilter":9729,"minFilter":9987,"wrapS":10497,"wrapT":10497}]}