{"asset":{"version":"2.0","generator":"babylon.js glTF exporter for 3dsmax 2019 vCustom.Build.Version"},"scene":0,"scenes":[{"nodes":[0,1,2,27],"extensions":{}}],"nodes":[{"skin":0,"mesh":0,"translation":[-0.0802917555,0.0,-0.263743222],"rotation":[5.96046448E-08,0.0,0.0,1.0],"scale":[1.0,1.0,1.0],"name":"elf"},{"mesh":1,"translation":[0.6614487,-0.21336,0.0],"rotation":[0.0,0.0,0.0,1.0],"scale":[1.0,1.0,1.0],"name":"Box001"},{"children":[3,17,22],"translation":[0.0,0.0,0.0],"rotation":[0.707141042,0.002044911,0.002199785,0.707066238],"scale":[1.00000024,1.0,1.0],"name":"mixamorig:Hips"},{"children":[4],"translation":[1.77416953E-11,0.00295616128,-0.0269806664],"rotation":[0.185690418,-0.00342495833,-0.092586,0.9782306],"scale":[1.00000012,1.00000012,0.99999994],"name":"mixamorig:Spine"},{"children":[5],"translation":[-1.41933562E-10,1.1354685E-09,-0.0316658],"rotation":[0.00998424552,0.003606778,-0.0270467922,0.9995778],"scale":[0.9999999,1.00000012,0.9999999],"name":"mixamorig:Spine1"},{"children":[6,9,13],"translation":[8.51601345E-10,4.541874E-09,-0.0361894742],"rotation":[0.0102881463,0.00347159663,-0.0266801734,0.9995851],"scale":[3.00000048,2.99999976,2.99999976],"name":"mixamorig:Spine2"},{"children":[7],"translation":[-8.51601345E-10,-2.61157762E-08,-0.0407131352],"rotation":[-0.118998349,0.0135794077,0.0134508936,0.9927105],"scale":[0.999999762,1.00000024,1.00000012],"name":"mixamorig:Neck"},{"children":[8],"translation":[-5.67734249E-10,-0.002148236,-0.00540810032],"rotation":[-0.212844148,-0.0407586731,-0.0306223053,0.9757553],"scale":[0.99999994,1.0,1.0],"name":"mixamorig:Head"},{"translation":[-1.70320273E-08,-0.102560893,-0.258191973],"rotation":[0.0,2.79396772E-09,-1.02445483E-08,1.0],"scale":[1.00000012,0.9999999,1.0],"name":"mixamorig:HeadTop_End"},{"children":[10],"translation":[0.015344521,0.0006714968,-0.0362951271],"rotation":[-0.5887417,0.5849218,0.396413326,-0.392563671],"scale":[1.00000012,1.00000036,1.0],"name":"mixamorig:LeftShoulder"},{"children":[11],"translation":[0.0,-4.541874E-09,-0.03054003],"rotation":[0.3086962,-0.262284726,-0.240250856,0.882152438],"scale":[0.9999999,1.00000012,1.0],"name":"mixamorig:LeftArm"},{"children":[12],"translation":[0.0,-3.63349919E-08,-0.0376774035],"rotation":[0.131884441,0.501064539,0.450542927,0.727015853],"scale":[1.0,0.9999999,1.0],"name":"mixamorig:LeftForeArm"},{"translation":[-2.270937E-09,0.0,-0.08207961],"rotation":[1.49011647E-08,-7.450584E-09,1.49011665E-08,1.0],"scale":[0.9999995,0.999999762,0.9999999],"name":"mixamorig:LeftHand"},{"children":[14],"translation":[-0.0153445248,0.000301002467,-0.03625455],"rotation":[-0.666455269,-0.533480763,-0.3239102,-0.40782088],"scale":[1.00000012,1.0,0.9999999],"name":"mixamorig:RightShoulder"},{"children":[15],"translation":[5.6773426E-09,3.63349919E-08,-0.03054005],"rotation":[0.06849577,-0.2300469,-0.165744573,0.956512153],"scale":[1.0,1.00000012,1.00000012],"name":"mixamorig:RightArm"},{"children":[16],"translation":[1.58965587E-08,3.63349919E-08,-0.0375967734],"rotation":[0.1891664,-0.7149879,-0.440013379,0.50931],"scale":[1.00000024,1.0,1.0],"name":"mixamorig:RightForeArm"},{"translation":[-3.40640538E-09,0.0,-0.08322457],"rotation":[-8.881784E-16,-7.450578E-09,-7.450581E-09,1.0],"scale":[0.9999999,1.0,1.00000012],"name":"mixamorig:RightHand"},{"children":[18],"translation":[0.0363955,-0.00344364881,0.0149140442],"rotation":[-0.113386542,-0.8512164,0.498319328,0.119382255],"scale":[1.00000012,1.00000024,1.00000012],"name":"mixamorig:LeftUpLeg"},{"children":[19],"translation":[1.36256215E-08,-3.40640538E-09,-0.101295166],"rotation":[-0.9012119,-0.00148708152,-0.00371557148,0.4333603],"scale":[0.9999998,0.999999762,0.9999999],"name":"mixamorig:LeftLeg"},{"children":[20],"translation":[6.81281076E-09,-9.083748E-09,-0.07236876],"rotation":[0.6426318,0.11816328,0.00115084229,0.7570076],"scale":[1.00000012,1.00000012,1.00000024],"name":"mixamorig:LeftFoot"},{"children":[21],"translation":[-1.13546852E-08,-3.40640538E-09,-0.04888061],"rotation":[0.3616971,0.06710728,0.24796547,0.8962059],"scale":[1.0,0.99999994,1.00000024],"name":"mixamorig:LeftToeBase"},{"translation":[9.083748E-09,-9.083748E-09,-0.0201168135],"rotation":[-8.881784E-16,4.656611E-09,0.0,1.0],"scale":[1.00000012,1.00000012,1.0],"name":"mixamorig:LeftToe_End"},{"children":[23],"translation":[-0.0363954939,-0.0021660747,0.0149140656],"rotation":[-0.0173175223,-0.9862454,0.164133877,-0.008961345],"scale":[1.00000012,1.00000012,1.00000012],"name":"mixamorig:RightUpLeg"},{"children":[24],"translation":[-4.541874E-09,-5.67734249E-10,-0.101370461],"rotation":[-0.401449978,0.0243860632,0.06684949,0.913112462],"scale":[1.0,0.999999762,0.999999762],"name":"mixamorig:RightLeg"},{"children":[25],"translation":[-9.083748E-09,1.36256215E-08,-0.07252183],"rotation":[0.7388604,0.0190268829,-0.07751674,0.669114649],"scale":[1.00000012,0.9999999,1.00000012],"name":"mixamorig:RightFoot"},{"children":[26],"translation":[0.0,-3.63349919E-08,-0.0472543873],"rotation":[0.406660676,-0.0484294333,-0.229122579,0.883054137],"scale":[0.9999999,1.0,0.9999998],"name":"mixamorig:RightToeBase"},{"translation":[0.0,9.083748E-09,-0.0209737513],"rotation":[0.0,0.0,7.45058149E-09,1.0],"scale":[0.9999999,0.9999998,0.9999998],"name":"mixamorig:RightToe_End"},{"translation":[0.0,0.0,0.0],"rotation":[0.0,0.0,0.0,1.0],"scale":[1.0,1.0,1.0],"name":"Default light"}],"meshes":[{"primitives":[{"attributes":{"POSITION":1,"NORMAL":2,"TEXCOORD_0":3,"JOINTS_0":4,"WEIGHTS_0":5},"indices":0,"mode":4,"material":0}],"name":"elf"},{"primitives":[{"attributes":{"POSITION":7,"NORMAL":8,"TEXCOORD_0":9},"indices":6}],"name":"Box001"}],"accessors":[{"bufferView":0,"componentType":5123,"count":6936,"type":"SCALAR","name":"accessorIndices"},{"bufferView":1,"componentType":5126,"count":6936,"max":[0.4994346,0.9585923,0.7852469],"min":[-0.4494915,-0.226497516,-0.3929397],"type":"VEC3","name":"accessorPositions"},{"bufferView":1,"byteOffset":83232,"componentType":5126,"count":6936,"type":"VEC3","name":"accessorNormals"},{"bufferView":2,"componentType":5126,"count":6936,"type":"VEC2","name":"accessorUVs"},{"bufferView":3,"componentType":5123,"count":6936,"type":"VEC4","name":"accessorJoints"},{"bufferView":4,"componentType":5126,"count":6936,"type":"VEC4","name":"accessorWeights"},{"bufferView":0,"byteOffset":13872,"componentType":5123,"count":36,"type":"SCALAR","name":"accessorIndices"},{"bufferView":1,"byteOffset":166464,"componentType":5126,"count":36,"max":[0.0152400006,1.0,0.015],"min":[-0.0152400006,0.0,-0.015],"type":"VEC3","name":"accessorPositions"},{"bufferView":1,"byteOffset":166896,"componentType":5126,"count":36,"type":"VEC3","name":"accessorNormals"},{"bufferView":2,"byteOffset":55488,"componentType":5126,"count":36,"type":"VEC2","name":"accessorUVs"},{"bufferView":5,"componentType":5126,"count":22,"type":"MAT4","name":"accessorInverseBindMatrices"}],"bufferViews":[{"buffer":0,"byteLength":13944,"name":"bufferViewScalar"},{"buffer":0,"byteOffset":13944,"byteLength":167328,"byteStride":12,"name":"bufferViewFloatVec3"},{"buffer":0,"byteOffset":181272,"byteLength":55776,"byteStride":8,"name":"bufferViewFloatVec2"},{"buffer":0,"byteOffset":237048,"byteLength":55488,"byteStride":8,"name":"bufferViewUnsignedShortVec4"},{"buffer":0,"byteOffset":292536,"byteLength":110976,"byteStride":16,"name":"bufferViewFloatVec4"},{"buffer":0,"byteOffset":403512,"byteLength":1408,"name":"bufferViewFloatMat4"}],"buffers":[{"uri":"Elf_feet_nonAnimated.bin","byteLength":404920}],"materials":[{"pbrMetallicRoughness":{"baseColorFactor":[0.588,0.588,0.588,1.0],"metallicFactor":0.0,"roughnessFactor":0.450053632},"emissiveFactor":[0.0,0.0,0.0],"alphaMode":"OPAQUE","name":"01 - Default"}],"skins":[{"inverseBindMatrices":10,"skeleton":2,"joints":[2,3,4,5,6,7,9,10,11,12,13,14,15,16,17,18,19,20,22,23,24,25],"name":"skeleton #0"}]}