{"asset":{"version":"2.0","generator":"babylon.js glTF exporter for 3dsmax 2019 vCustom.Build.Version"},"extensionsUsed":["KHR_lights_punctual"],"scene":0,"scenes":[{"nodes":[0,1,2,3,4,5,6,8,10,11,12,13],"extensions":{}}],"nodes":[{"mesh":0,"translation":[0.0,-0.4309437,-0.09836149],"rotation":[0.846725941,0.0,0.0,0.532029331],"scale":[1.0,1.0,1.0],"name":"RedPlane"},{"mesh":3,"translation":[0.0,0.903917432,-0.5654354],"rotation":[-0.9749265,0.0,0.0,0.222527236],"scale":[1.0,1.0,1.0],"name":"GreenPlane"},{"mesh":4,"translation":[0.0,0.0587470531,1.24703884],"rotation":[0.210343808,0.0,0.0,0.9776275],"scale":[1.0,1.0,1.0],"name":"BluePlane"},{"mesh":5,"translation":[0.0,1.391513,0.7239282],"rotation":[-0.5529917,0.0,0.0,0.8331868],"scale":[1.0,1.0,1.0],"name":"YellowPlane"},{"mesh":6,"translation":[-4.0,0.47002244,0.3355279],"rotation":[0.222523987,0.0,0.0,0.974927247],"scale":[0.141425028,0.141425028,0.141425028],"name":"cone_on_spotLight_pi_div_32"},{"mesh":7,"translation":[0.0,0.47002244,0.335527867],"rotation":[0.2225238,0.0,0.0,0.9749273],"scale":[0.141425028,0.141425014,0.141425014],"name":"cone_on_spotLight_pi_div_8"},{"children":[7],"translation":[1.99999988,0.47002244,0.3355279],"rotation":[-0.532026768,-2.21642456E-08,2.12705356E-08,0.8467275],"scale":[1.0,1.0,1.0],"name":"spotLight_pi_div_4","extensions":{"KHR_lights_punctual":{"light":0}}},{"mesh":1,"translation":[-1.1920929E-07,0.0,-1.1920929E-07],"rotation":[0.707106769,3.24316041E-08,-3.47241347E-08,0.707106769],"scale":[0.141425043,0.141425,0.141425014],"name":"cone_on_spotLight_pi_div_4"},{"children":[9],"translation":[-1.99999988,0.47002244,0.3355279],"rotation":[-0.5320294,0.0,0.0,0.846725941],"scale":[1.0,1.0,1.0],"name":"spotLight_pi_div_16","extensions":{"KHR_lights_punctual":{"light":1}}},{"mesh":2,"translation":[0.0,-5.96046448E-08,-5.96046448E-08],"rotation":[0.707106769,0.0,0.0,0.707106769],"scale":[0.141425028,0.141425028,0.141425028],"name":"cone_on_spotLight_pi_div_16"},{"translation":[0.0,0.47002244,0.3355279],"rotation":[-0.5320269,0.0,0.0,0.8467275],"scale":[1.0,1.0,1.0],"name":"spotLight_pi_div_8","extensions":{"KHR_lights_punctual":{"light":2}}},{"translation":[0.0,0.0,0.0],"rotation":[-0.707106769,0.0,0.0,0.707106769],"scale":[1.0,1.0,1.0],"name":"Sky001"},{"translation":[0.0,0.0,0.0],"rotation":[-0.7071068,0.0,0.0,-0.7071067],"scale":[1.0,1.0,1.0],"name":"Sky002"},{"translation":[-4.0,0.47002244,0.3355279],"rotation":[-0.5320269,0.0,0.0,0.8467275],"scale":[1.0,1.0,1.0],"name":"spotLight_pi_div_32","extensions":{"KHR_lights_punctual":{"light":3}}}],"meshes":[{"primitives":[{"attributes":{"POSITION":1,"NORMAL":2,"TEXCOORD_0":3},"indices":0,"mode":4,"material":0}],"name":"RedPlane"},{"primitives":[{"attributes":{"POSITION":5,"NORMAL":6,"TEXCOORD_0":7},"indices":4}],"name":"cone_on_spotLight_pi_div_4"},{"primitives":[{"attributes":{"POSITION":9,"NORMAL":10,"TEXCOORD_0":11},"indices":8}],"name":"cone_on_spotLight_pi_div_16"},{"primitives":[{"attributes":{"POSITION":13,"NORMAL":14,"TEXCOORD_0":15},"indices":12,"mode":4,"material":1}],"name":"GreenPlane"},{"primitives":[{"attributes":{"POSITION":17,"NORMAL":18,"TEXCOORD_0":19},"indices":16,"mode":4,"material":2}],"name":"BluePlane"},{"primitives":[{"attributes":{"POSITION":21,"NORMAL":22,"TEXCOORD_0":23},"indices":20,"mode":4,"material":3}],"name":"YellowPlane"},{"primitives":[{"attributes":{"POSITION":25,"NORMAL":26,"TEXCOORD_0":27},"indices":24}],"name":"cone_on_spotLight_pi_div_32"},{"primitives":[{"attributes":{"POSITION":29,"NORMAL":30,"TEXCOORD_0":31},"indices":28}],"name":"cone_on_spotLight_pi_div_8"}],"accessors":[{"bufferView":0,"componentType":5123,"count":120,"type":"SCALAR","name":"accessorIndices"},{"bufferView":1,"componentType":5126,"count":120,"max":[5.0,0.5,0.0],"min":[-5.0,-0.5,-2.98023224E-08],"type":"VEC3","name":"accessorPositions"},{"bufferView":1,"byteOffset":1440,"componentType":5126,"count":120,"type":"VEC3","name":"accessorNormals"},{"bufferView":2,"componentType":5126,"count":120,"type":"VEC2","name":"accessorUVs"},{"bufferView":0,"byteOffset":240,"componentType":5123,"count":432,"type":"SCALAR","name":"accessorIndices"},{"bufferView":1,"byteOffset":2880,"componentType":5126,"count":432,"max":[1.0,4.0,1.0],"min":[-1.0,0.0,-1.0],"type":"VEC3","name":"accessorPositions"},{"bufferView":1,"byteOffset":8064,"componentType":5126,"count":432,"type":"VEC3","name":"accessorNormals"},{"bufferView":2,"byteOffset":960,"componentType":5126,"count":432,"type":"VEC2","name":"accessorUVs"},{"bufferView":0,"byteOffset":1104,"componentType":5123,"count":432,"type":"SCALAR","name":"accessorIndices"},{"bufferView":1,"byteOffset":13248,"componentType":5126,"count":432,"max":[1.0,4.0,1.0],"min":[-1.0,0.0,-1.0],"type":"VEC3","name":"accessorPositions"},{"bufferView":1,"byteOffset":18432,"componentType":5126,"count":432,"type":"VEC3","name":"accessorNormals"},{"bufferView":2,"byteOffset":4416,"componentType":5126,"count":432,"type":"VEC2","name":"accessorUVs"},{"bufferView":0,"byteOffset":1968,"componentType":5123,"count":120,"type":"SCALAR","name":"accessorIndices"},{"bufferView":1,"byteOffset":23616,"componentType":5126,"count":120,"max":[5.0,0.5,0.0],"min":[-5.0,-0.5,-2.98023224E-08],"type":"VEC3","name":"accessorPositions"},{"bufferView":1,"byteOffset":25056,"componentType":5126,"count":120,"type":"VEC3","name":"accessorNormals"},{"bufferView":2,"byteOffset":7872,"componentType":5126,"count":120,"type":"VEC2","name":"accessorUVs"},{"bufferView":0,"byteOffset":2208,"componentType":5123,"count":120,"type":"SCALAR","name":"accessorIndices"},{"bufferView":1,"byteOffset":26496,"componentType":5126,"count":120,"max":[5.0,0.5,0.0],"min":[-5.0,-0.5,-2.98023224E-08],"type":"VEC3","name":"accessorPositions"},{"bufferView":1,"byteOffset":27936,"componentType":5126,"count":120,"type":"VEC3","name":"accessorNormals"},{"bufferView":2,"byteOffset":8832,"componentType":5126,"count":120,"type":"VEC2","name":"accessorUVs"},{"bufferView":0,"byteOffset":2448,"componentType":5123,"count":120,"type":"SCALAR","name":"accessorIndices"},{"bufferView":1,"byteOffset":29376,"componentType":5126,"count":120,"max":[5.0,0.5,0.0],"min":[-5.0,-0.5,-2.98023224E-08],"type":"VEC3","name":"accessorPositions"},{"bufferView":1,"byteOffset":30816,"componentType":5126,"count":120,"type":"VEC3","name":"accessorNormals"},{"bufferView":2,"byteOffset":9792,"componentType":5126,"count":120,"type":"VEC2","name":"accessorUVs"},{"bufferView":0,"byteOffset":2688,"componentType":5123,"count":432,"type":"SCALAR","name":"accessorIndices"},{"bufferView":1,"byteOffset":32256,"componentType":5126,"count":432,"max":[1.0,4.0,1.0],"min":[-1.0,0.0,-1.0],"type":"VEC3","name":"accessorPositions"},{"bufferView":1,"byteOffset":37440,"componentType":5126,"count":432,"type":"VEC3","name":"accessorNormals"},{"bufferView":2,"byteOffset":10752,"componentType":5126,"count":432,"type":"VEC2","name":"accessorUVs"},{"bufferView":0,"byteOffset":3552,"componentType":5123,"count":432,"type":"SCALAR","name":"accessorIndices"},{"bufferView":1,"byteOffset":42624,"componentType":5126,"count":432,"max":[1.0,4.0,1.0],"min":[-1.0,0.0,-1.0],"type":"VEC3","name":"accessorPositions"},{"bufferView":1,"byteOffset":47808,"componentType":5126,"count":432,"type":"VEC3","name":"accessorNormals"},{"bufferView":2,"byteOffset":14208,"componentType":5126,"count":432,"type":"VEC2","name":"accessorUVs"},{"bufferView":3,"componentType":5126,"count":9,"max":[4.125],"min":[0.0],"type":"SCALAR","name":"accessorAnimationInput"},{"bufferView":4,"componentType":5126,"count":9,"type":"VEC4","name":"accessorAnimationRotations"},{"bufferView":3,"byteOffset":36,"componentType":5126,"count":9,"max":[4.125],"min":[0.0],"type":"SCALAR","name":"accessorAnimationInput"},{"bufferView":4,"byteOffset":144,"componentType":5126,"count":9,"type":"VEC4","name":"accessorAnimationRotations"},{"bufferView":3,"byteOffset":72,"componentType":5126,"count":9,"max":[4.125],"min":[0.0],"type":"SCALAR","name":"accessorAnimationInput"},{"bufferView":4,"byteOffset":288,"componentType":5126,"count":9,"type":"VEC4","name":"accessorAnimationRotations"}],"bufferViews":[{"buffer":0,"byteLength":4416,"name":"bufferViewScalar"},{"buffer":0,"byteOffset":4416,"byteLength":52992,"byteStride":12,"name":"bufferViewFloatVec3"},{"buffer":0,"byteOffset":57408,"byteLength":17664,"byteStride":8,"name":"bufferViewFloatVec2"},{"buffer":0,"byteOffset":75072,"byteLength":108,"name":"bufferViewAnimationFloatScalar"},{"buffer":0,"byteOffset":75180,"byteLength":432,"name":"bufferViewAnimationFloatVec4"}],"buffers":[{"uri":"LightOrientation.bin","byteLength":75612}],"materials":[{"pbrMetallicRoughness":{"baseColorFactor":[1.0,0.0,0.0,1.0],"metallicFactor":0.0,"roughnessFactor":0.450053632},"emissiveFactor":[0.0,0.0,0.0],"alphaMode":"OPAQUE","name":"Red"},{"pbrMetallicRoughness":{"baseColorFactor":[0.0,1.0,0.0,1.0],"metallicFactor":0.0,"roughnessFactor":0.450053632},"emissiveFactor":[0.0,0.0,0.0],"alphaMode":"OPAQUE","name":"Green"},{"pbrMetallicRoughness":{"baseColorFactor":[0.0,0.0,1.0,1.0],"metallicFactor":0.0,"roughnessFactor":0.450053632},"emissiveFactor":[0.0,0.0,0.0],"alphaMode":"OPAQUE","name":"Blue"},{"pbrMetallicRoughness":{"baseColorFactor":[1.0,1.0,0.0,1.0],"metallicFactor":0.0,"roughnessFactor":0.450053632},"emissiveFactor":[0.0,0.0,0.0],"alphaMode":"OPAQUE","name":"Yellow"}],"animations":[{"channels":[{"sampler":0,"target":{"node":4,"path":"rotation"}},{"sampler":1,"target":{"node":8,"path":"rotation"}},{"sampler":2,"target":{"node":13,"path":"rotation"}}],"samplers":[{"input":32,"interpolation":"LINEAR","output":33},{"input":34,"interpolation":"LINEAR","output":35},{"input":36,"interpolation":"LINEAR","output":37}],"name":"All Animations"}],"extensions":{"KHR_lights_punctual":{"lights":[{"color":[1.0,1.0,1.0],"intensity":100000.0,"type":"spot","range":3.40282347E+38,"spot":{"outerConeAngle":0.410152376}},{"color":[1.0,1.0,1.0],"intensity":100000.0,"type":"spot","range":3.40282347E+38,"spot":{"outerConeAngle":0.115628064}},{"color":[1.0,1.0,1.0],"intensity":100000.0,"type":"spot","range":3.40282347E+38,"spot":{"outerConeAngle":0.213802829}},{"color":[1.0,1.0,1.0],"intensity":100000.0,"type":"spot","range":3.40282347E+38,"spot":{"outerConeAngle":0.0534507073}}]}}}