{"asset":{"version":"2.0","generator":"babylon.js glTF exporter for Maya 2018 v1.4.0"},"scene":0,"scenes":[{"nodes":[0,1,2,3],"extensions":{}}],"nodes":[{"mesh":0,"translation":[0.0,0.421901762,-0.06339824],"rotation":[0.707106769,0.0,0.0,0.707106769],"scale":[1.0,1.0,1.0],"name":"Plane"},{"mesh":1,"translation":[1.51395357,0.0,0.0],"rotation":[0.0,0.0,0.0,1.0],"scale":[1.0,1.0,1.0],"name":"HalfCube"},{"mesh":2,"translation":[0.0,0.0,2.32959127],"rotation":[0.0,0.0,0.0,1.0],"scale":[1.0,1.0,1.0],"name":"Sphere"},{"translation":[0.0,0.0,0.0],"rotation":[0.0,0.0,0.0,1.0],"scale":[1.0,1.0,1.0],"name":"Default light"}],"meshes":[{"primitives":[{"attributes":{"POSITION":1,"TANGENT":2,"NORMAL":3,"TEXCOORD_0":4},"indices":0,"mode":4,"material":0},{"attributes":{"POSITION":6,"TANGENT":7,"NORMAL":8,"TEXCOORD_0":9},"indices":5,"mode":4,"material":1}],"name":"Plane"},{"primitives":[{"attributes":{"POSITION":11,"TANGENT":12,"NORMAL":13,"TEXCOORD_0":14},"indices":10,"mode":4,"material":0},{"attributes":{"POSITION":16,"TANGENT":17,"NORMAL":18,"TEXCOORD_0":19},"indices":15,"mode":4,"material":1}],"name":"HalfCube"},{"primitives":[{"attributes":{"POSITION":21,"TANGENT":22,"NORMAL":23,"TEXCOORD_0":24},"indices":20,"mode":4,"material":0},{"attributes":{"POSITION":26,"TANGENT":27,"NORMAL":28,"TEXCOORD_0":29},"indices":25,"mode":4,"material":1}],"name":"Sphere"}],"accessors":[{"bufferView":0,"componentType":5123,"count":6,"type":"SCALAR","name":"accessorIndices"},{"bufferView":1,"componentType":5126,"count":4,"max":[0.5,0.0,0.5],"min":[-0.5,0.0,-0.5],"type":"VEC3","name":"accessorPositions"},{"bufferView":2,"componentType":5126,"count":4,"type":"VEC4","name":"accessorTangents"},{"bufferView":1,"byteOffset":48,"componentType":5126,"count":4,"type":"VEC3","name":"accessorNormals"},{"bufferView":3,"componentType":5126,"count":4,"type":"VEC2","name":"accessorUVs"},{"bufferView":0,"byteOffset":12,"componentType":5123,"count":6,"type":"SCALAR","name":"accessorIndices"},{"bufferView":1,"byteOffset":96,"componentType":5126,"count":4,"max":[0.5,0.0,0.5],"min":[-0.5,0.0,-0.5],"type":"VEC3","name":"accessorPositions"},{"bufferView":2,"byteOffset":64,"componentType":5126,"count":4,"type":"VEC4","name":"accessorTangents"},{"bufferView":1,"byteOffset":144,"componentType":5126,"count":4,"type":"VEC3","name":"accessorNormals"},{"bufferView":3,"byteOffset":32,"componentType":5126,"count":4,"type":"VEC2","name":"accessorUVs"},{"bufferView":0,"byteOffset":24,"componentType":5123,"count":18,"type":"SCALAR","name":"accessorIndices"},{"bufferView":1,"byteOffset":192,"componentType":5126,"count":12,"max":[0.5,0.5,0.5],"min":[-0.5,-0.5,-0.5],"type":"VEC3","name":"accessorPositions"},{"bufferView":2,"byteOffset":128,"componentType":5126,"count":12,"type":"VEC4","name":"accessorTangents"},{"bufferView":1,"byteOffset":336,"componentType":5126,"count":12,"type":"VEC3","name":"accessorNormals"},{"bufferView":3,"byteOffset":64,"componentType":5126,"count":12,"type":"VEC2","name":"accessorUVs"},{"bufferView":0,"byteOffset":60,"componentType":5123,"count":18,"type":"SCALAR","name":"accessorIndices"},{"bufferView":1,"byteOffset":480,"componentType":5126,"count":12,"max":[0.5,0.5,0.5],"min":[-0.5,-0.5,-0.5],"type":"VEC3","name":"accessorPositions"},{"bufferView":2,"byteOffset":320,"componentType":5126,"count":12,"type":"VEC4","name":"accessorTangents"},{"bufferView":1,"byteOffset":624,"componentType":5126,"count":12,"type":"VEC3","name":"accessorNormals"},{"bufferView":3,"byteOffset":160,"componentType":5126,"count":12,"type":"VEC2","name":"accessorUVs"},{"bufferView":0,"byteOffset":96,"componentType":5123,"count":2040,"type":"SCALAR","name":"accessorIndices"},{"bufferView":1,"byteOffset":768,"componentType":5126,"count":412,"max":[1.0,1.0,1.00000012],"min":[-1.00000024,-1.0,-0.987688839],"type":"VEC3","name":"accessorPositions"},{"bufferView":2,"byteOffset":512,"componentType":5126,"count":412,"type":"VEC4","name":"accessorTangents"},{"bufferView":1,"byteOffset":5712,"componentType":5126,"count":412,"type":"VEC3","name":"accessorNormals"},{"bufferView":3,"byteOffset":256,"componentType":5126,"count":412,"type":"VEC2","name":"accessorUVs"},{"bufferView":0,"byteOffset":4176,"componentType":5123,"count":2040,"type":"SCALAR","name":"accessorIndices"},{"bufferView":1,"byteOffset":10656,"componentType":5126,"count":412,"max":[1.0,1.0,1.00000012],"min":[-1.00000024,-1.0,-0.987688839],"type":"VEC3","name":"accessorPositions"},{"bufferView":2,"byteOffset":7104,"componentType":5126,"count":412,"type":"VEC4","name":"accessorTangents"},{"bufferView":1,"byteOffset":15600,"componentType":5126,"count":412,"type":"VEC3","name":"accessorNormals"},{"bufferView":3,"byteOffset":3552,"componentType":5126,"count":412,"type":"VEC2","name":"accessorUVs"}],"bufferViews":[{"buffer":0,"byteLength":8256,"name":"bufferViewScalar"},{"buffer":0,"byteOffset":8256,"byteLength":20544,"byteStride":12,"name":"bufferViewFloatVec3"},{"buffer":0,"byteOffset":28800,"byteLength":13696,"byteStride":16,"name":"bufferViewFloatVec4"},{"buffer":0,"byteOffset":42496,"byteLength":6848,"byteStride":8,"name":"bufferViewFloatVec2"}],"buffers":[{"uri":"DoubleSidedMaterial.bin","byteLength":49344}],"materials":[{"pbrMetallicRoughness":{"baseColorFactor":[1.0,1.0,1.0,1.0],"baseColorTexture":{"index":0,"texCoord":0},"metallicFactor":0.0,"roughnessFactor":0.450053632},"emissiveFactor":[0.0,0.0,0.0],"alphaMode":"OPAQUE","name":"FrontMaterial"},{"pbrMetallicRoughness":{"baseColorFactor":[1.0,1.0,1.0,1.0],"baseColorTexture":{"index":1,"texCoord":0},"metallicFactor":0.0,"roughnessFactor":0.450053632},"emissiveFactor":[0.0,0.0,0.0],"alphaMode":"OPAQUE","name":"BackMaterial"}],"textures":[{"sampler":0,"source":0,"name":"FrontMaterial_baseColor.png"},{"sampler":0,"source":1,"name":"BackMaterial_baseColor.png"}],"images":[{"uri":"FrontMaterial_baseColor.png"},{"uri":"BackMaterial_baseColor.png"}],"samplers":[{"magFilter":9729,"minFilter":9987,"wrapS":10497,"wrapT":10497}]}