{"asset":{"version":"2.0","generator":"babylon.js glTF exporter for 3dsmax 2019 v1.5.0"},"scene":0,"scenes":[{"nodes":[0,1,26],"extensions":{}}],"nodes":[{"skin":0,"mesh":0,"translation":[-0.2634244,0.0,-0.8652992],"rotation":[5.96046448E-08,0.0,0.0,1.0],"scale":[1.0,1.0,1.0],"name":"elf"},{"children":[2,16,21],"translation":[0.0,0.0,0.0],"rotation":[0.707141042,0.002044911,0.002199785,0.707066238],"scale":[1.00000024,1.0,1.0],"name":"mixamorig:Hips"},{"children":[3],"translation":[5.820766E-11,0.009698692,-0.0885192454],"rotation":[0.185690418,-0.00342495833,-0.092586,0.9782306],"scale":[1.00000012,1.00000012,0.99999994],"name":"mixamorig:Spine"},{"children":[4],"translation":[-4.656613E-10,3.7252903E-09,-0.103890412],"rotation":[0.00998424552,0.003606778,-0.0270467922,0.9995778],"scale":[0.9999999,1.00000012,0.9999999],"name":"mixamorig:Spine1"},{"children":[5,8,12],"translation":[2.79396772E-09,1.49011612E-08,-0.118731871],"rotation":[0.0102881463,0.00347159663,-0.0266801734,0.9995851],"scale":[3.00000048,2.99999976,2.99999976],"name":"mixamorig:Spine2"},{"children":[6],"translation":[-2.79396772E-09,-8.568168E-08,-0.133573279],"rotation":[-0.118998349,0.0135794077,0.0134508936,0.9927105],"scale":[0.999999762,1.00000024,1.00000012],"name":"mixamorig:Neck"},{"children":[7],"translation":[-1.86264515E-09,-0.00704801828,-0.01774311],"rotation":[-0.212844148,-0.0407586731,-0.0306223053,0.9757553],"scale":[0.99999994,1.0,1.0],"name":"mixamorig:Head"},{"translation":[-5.58793545E-08,-0.336485863,-0.847086549],"rotation":[0.0,2.79396772E-09,-1.02445483E-08,1.0],"scale":[1.00000012,0.9999999,1.0],"name":"mixamorig:HeadTop_End"},{"children":[9],"translation":[0.0503429174,0.00220307335,-0.1190785],"rotation":[-0.5887417,0.5849218,0.396413326,-0.392563671],"scale":[1.00000012,1.00000036,1.0],"name":"mixamorig:LeftShoulder"},{"children":[10],"translation":[0.0,-1.49011612E-08,-0.10019695],"rotation":[0.3086962,-0.262284726,-0.240250856,0.882152438],"scale":[0.9999999,1.00000012,1.0],"name":"mixamorig:LeftArm"},{"children":[11],"translation":[0.0,-1.1920929E-07,-0.123613521],"rotation":[0.131884441,0.501064539,0.450542927,0.727015853],"scale":[1.0,0.9999999,1.0],"name":"mixamorig:LeftForeArm"},{"translation":[-7.450581E-09,0.0,-0.26929006],"rotation":[1.49011647E-08,-7.450584E-09,1.49011665E-08,1.0],"scale":[0.9999995,0.999999762,0.9999999],"name":"mixamorig:LeftHand"},{"children":[13],"translation":[-0.05034293,0.0009875409,-0.118945375],"rotation":[-0.666455269,-0.533480763,-0.3239102,-0.40782088],"scale":[1.00000012,1.0,0.9999999],"name":"mixamorig:RightShoulder"},{"children":[14],"translation":[1.86264515E-08,1.1920929E-07,-0.10019701],"rotation":[0.06849577,-0.2300469,-0.165744573,0.956512153],"scale":[1.0,1.00000012,1.00000012],"name":"mixamorig:RightArm"},{"children":[15],"translation":[5.21540642E-08,1.1920929E-07,-0.123348996],"rotation":[0.1891664,-0.7149879,-0.440013379,0.50931],"scale":[1.00000024,1.0,1.0],"name":"mixamorig:RightForeArm"},{"translation":[-1.11758709E-08,0.0,-0.2730465],"rotation":[-8.881784E-16,-7.450578E-09,-7.450581E-09,1.0],"scale":[0.9999999,1.0,1.00000012],"name":"mixamorig:RightHand"},{"children":[17],"translation":[0.11940781,-0.01129806,0.04893059],"rotation":[-0.113386542,-0.8512164,0.498319328,0.119382255],"scale":[1.00000012,1.00000024,1.00000012],"name":"mixamorig:LeftUpLeg"},{"children":[18],"translation":[4.47034836E-08,-1.11758709E-08,-0.3323332],"rotation":[-0.9012119,-0.00148708152,-0.00371557148,0.4333603],"scale":[0.9999998,0.999999762,0.9999999],"name":"mixamorig:LeftLeg"},{"children":[19],"translation":[2.23517418E-08,-2.98023224E-08,-0.237430319],"rotation":[0.6426318,0.11816328,0.00115084229,0.7570076],"scale":[1.00000012,1.00000012,1.00000024],"name":"mixamorig:LeftFoot"},{"children":[20],"translation":[-3.7252903E-08,-1.11758709E-08,-0.160369456],"rotation":[0.3616971,0.06710728,0.24796547,0.8962059],"scale":[1.0,0.99999994,1.00000024],"name":"mixamorig:LeftToeBase"},{"translation":[2.98023224E-08,-2.98023224E-08,-0.0660000443],"rotation":[-8.881784E-16,4.656611E-09,0.0,1.0],"scale":[1.00000012,1.00000012,1.0],"name":"mixamorig:LeftToe_End"},{"children":[22],"translation":[-0.119407788,-0.007106544,0.04893066],"rotation":[-0.0173175223,-0.9862454,0.164133877,-0.008961345],"scale":[1.00000012,1.00000012,1.00000012],"name":"mixamorig:RightUpLeg"},{"children":[23],"translation":[-1.49011612E-08,-1.86264515E-09,-0.332580239],"rotation":[-0.401449978,0.0243860632,0.06684949,0.913112462],"scale":[1.0,0.999999762,0.999999762],"name":"mixamorig:RightLeg"},{"children":[24],"translation":[-2.98023224E-08,4.47034836E-08,-0.2379325],"rotation":[0.7388604,0.0190268829,-0.07751674,0.669114649],"scale":[1.00000012,0.9999999,1.00000012],"name":"mixamorig:RightFoot"},{"children":[25],"translation":[0.0,-1.1920929E-07,-0.15503408],"rotation":[0.406660676,-0.0484294333,-0.229122579,0.883054137],"scale":[0.9999999,1.0,0.9999998],"name":"mixamorig:RightToeBase"},{"translation":[0.0,2.98023224E-08,-0.06881152],"rotation":[0.0,0.0,7.45058149E-09,1.0],"scale":[0.9999999,0.9999998,0.9999998],"name":"mixamorig:RightToe_End"},{"translation":[0.0,0.0,0.0],"rotation":[0.0,0.0,0.0,1.0],"scale":[1.0,1.0,1.0],"name":"Default light"}],"meshes":[{"primitives":[{"attributes":{"POSITION":1,"NORMAL":2,"TEXCOORD_0":3,"JOINTS_0":4,"WEIGHTS_0":5},"indices":0,"mode":4,"material":0}],"name":"elf"}],"accessors":[{"bufferView":0,"componentType":5123,"count":6936,"type":"SCALAR","name":"accessorIndices"},{"bufferView":1,"componentType":5126,"count":6936,"max":[1.638565,3.14498782,2.57626939],"min":[-1.47470963,-0.7431021,-1.28917217],"type":"VEC3","name":"accessorPositions"},{"bufferView":1,"byteOffset":83232,"componentType":5126,"count":6936,"type":"VEC3","name":"accessorNormals"},{"bufferView":2,"componentType":5126,"count":6936,"type":"VEC2","name":"accessorUVs"},{"bufferView":3,"componentType":5123,"count":6936,"type":"VEC4","name":"accessorJoints"},{"bufferView":4,"componentType":5126,"count":6936,"type":"VEC4","name":"accessorWeights"},{"bufferView":5,"componentType":5126,"count":22,"type":"MAT4","name":"accessorInverseBindMatrices"},{"bufferView":6,"componentType":5126,"count":62,"max":[2.2],"min":[0.0],"type":"SCALAR","name":"accessorAnimationInput"},{"bufferView":7,"componentType":5126,"count":62,"type":"VEC4","name":"accessorAnimationRotations"},{"bufferView":6,"byteOffset":248,"componentType":5126,"count":48,"max":[2.2],"min":[0.0],"type":"SCALAR","name":"accessorAnimationInput"},{"bufferView":7,"byteOffset":992,"componentType":5126,"count":48,"type":"VEC4","name":"accessorAnimationRotations"},{"bufferView":6,"byteOffset":440,"componentType":5126,"count":58,"max":[2.2],"min":[0.0],"type":"SCALAR","name":"accessorAnimationInput"},{"bufferView":7,"byteOffset":1760,"componentType":5126,"count":58,"type":"VEC4","name":"accessorAnimationRotations"},{"bufferView":6,"byteOffset":672,"componentType":5126,"count":58,"max":[2.2],"min":[0.0],"type":"SCALAR","name":"accessorAnimationInput"},{"bufferView":7,"byteOffset":2688,"componentType":5126,"count":58,"type":"VEC4","name":"accessorAnimationRotations"},{"bufferView":6,"byteOffset":904,"componentType":5126,"count":56,"max":[2.2],"min":[0.0],"type":"SCALAR","name":"accessorAnimationInput"},{"bufferView":7,"byteOffset":3616,"componentType":5126,"count":56,"type":"VEC4","name":"accessorAnimationRotations"},{"bufferView":6,"byteOffset":1128,"componentType":5126,"count":63,"max":[2.2],"min":[0.0],"type":"SCALAR","name":"accessorAnimationInput"},{"bufferView":7,"byteOffset":4512,"componentType":5126,"count":63,"type":"VEC4","name":"accessorAnimationRotations"},{"bufferView":6,"byteOffset":1380,"componentType":5126,"count":56,"max":[2.2],"min":[0.0],"type":"SCALAR","name":"accessorAnimationInput"},{"bufferView":7,"byteOffset":5520,"componentType":5126,"count":56,"type":"VEC4","name":"accessorAnimationRotations"},{"bufferView":6,"byteOffset":1604,"componentType":5126,"count":63,"max":[2.2],"min":[0.0],"type":"SCALAR","name":"accessorAnimationInput"},{"bufferView":7,"byteOffset":6416,"componentType":5126,"count":63,"type":"VEC4","name":"accessorAnimationRotations"},{"bufferView":6,"byteOffset":1856,"componentType":5126,"count":56,"max":[2.2],"min":[0.0],"type":"SCALAR","name":"accessorAnimationInput"},{"bufferView":7,"byteOffset":7424,"componentType":5126,"count":56,"type":"VEC4","name":"accessorAnimationRotations"},{"bufferView":6,"byteOffset":2080,"componentType":5126,"count":55,"max":[2.2],"min":[0.0],"type":"SCALAR","name":"accessorAnimationInput"},{"bufferView":7,"byteOffset":8320,"componentType":5126,"count":55,"type":"VEC4","name":"accessorAnimationRotations"},{"bufferView":6,"byteOffset":2300,"componentType":5126,"count":62,"max":[2.2],"min":[0.0],"type":"SCALAR","name":"accessorAnimationInput"},{"bufferView":7,"byteOffset":9200,"componentType":5126,"count":62,"type":"VEC4","name":"accessorAnimationRotations"},{"bufferView":6,"byteOffset":2548,"componentType":5126,"count":63,"max":[2.2],"min":[0.0],"type":"SCALAR","name":"accessorAnimationInput"},{"bufferView":7,"byteOffset":10192,"componentType":5126,"count":63,"type":"VEC4","name":"accessorAnimationRotations"},{"bufferView":6,"byteOffset":2800,"componentType":5126,"count":64,"max":[2.2],"min":[0.0],"type":"SCALAR","name":"accessorAnimationInput"},{"bufferView":7,"byteOffset":11200,"componentType":5126,"count":64,"type":"VEC4","name":"accessorAnimationRotations"},{"bufferView":6,"byteOffset":3056,"componentType":5126,"count":65,"max":[2.2],"min":[0.0],"type":"SCALAR","name":"accessorAnimationInput"},{"bufferView":7,"byteOffset":12224,"componentType":5126,"count":65,"type":"VEC4","name":"accessorAnimationRotations"},{"bufferView":6,"byteOffset":3316,"componentType":5126,"count":61,"max":[2.2],"min":[0.0],"type":"SCALAR","name":"accessorAnimationInput"},{"bufferView":7,"byteOffset":13264,"componentType":5126,"count":61,"type":"VEC4","name":"accessorAnimationRotations"},{"bufferView":6,"byteOffset":3560,"componentType":5126,"count":3,"max":[2.2],"min":[0.0],"type":"SCALAR","name":"accessorAnimationInput"},{"bufferView":7,"byteOffset":14240,"componentType":5126,"count":3,"type":"VEC4","name":"accessorAnimationRotations"},{"bufferView":6,"byteOffset":3572,"componentType":5126,"count":65,"max":[2.2],"min":[0.0],"type":"SCALAR","name":"accessorAnimationInput"},{"bufferView":7,"byteOffset":14288,"componentType":5126,"count":65,"type":"VEC4","name":"accessorAnimationRotations"},{"bufferView":6,"byteOffset":3832,"componentType":5126,"count":59,"max":[2.2],"min":[0.0],"type":"SCALAR","name":"accessorAnimationInput"},{"bufferView":7,"byteOffset":15328,"componentType":5126,"count":59,"type":"VEC4","name":"accessorAnimationRotations"},{"bufferView":6,"byteOffset":4068,"componentType":5126,"count":59,"max":[2.2],"min":[0.0],"type":"SCALAR","name":"accessorAnimationInput"},{"bufferView":7,"byteOffset":16272,"componentType":5126,"count":59,"type":"VEC4","name":"accessorAnimationRotations"},{"bufferView":6,"byteOffset":4304,"componentType":5126,"count":21,"max":[2.2],"min":[0.0],"type":"SCALAR","name":"accessorAnimationInput"},{"bufferView":7,"byteOffset":17216,"componentType":5126,"count":21,"type":"VEC4","name":"accessorAnimationRotations"}],"bufferViews":[{"buffer":0,"byteLength":13872,"name":"bufferViewScalar"},{"buffer":0,"byteOffset":13872,"byteLength":166464,"byteStride":12,"name":"bufferViewFloatVec3"},{"buffer":0,"byteOffset":180336,"byteLength":55488,"byteStride":8,"name":"bufferViewFloatVec2"},{"buffer":0,"byteOffset":235824,"byteLength":55488,"byteStride":8,"name":"bufferViewUnsignedShortVec4"},{"buffer":0,"byteOffset":291312,"byteLength":110976,"byteStride":16,"name":"bufferViewFloatVec4"},{"buffer":0,"byteOffset":402288,"byteLength":1408,"name":"bufferViewFloatMat4"},{"buffer":0,"byteOffset":403696,"byteLength":4388,"name":"bufferViewAnimationFloatScalar"},{"buffer":0,"byteOffset":408084,"byteLength":17552,"name":"bufferViewAnimationFloatVec4"}],"buffers":[{"uri":"all_die.bin","byteLength":425636}],"materials":[{"pbrMetallicRoughness":{"baseColorFactor":[0.294,0.294,0.294,1.0],"metallicFactor":0.0,"roughnessFactor":0.450053632},"emissiveFactor":[0.0,0.0,0.0],"alphaMode":"OPAQUE","name":"01 - Default"}],"animations":[{"channels":[{"sampler":0,"target":{"node":1,"path":"rotation"}},{"sampler":1,"target":{"node":2,"path":"rotation"}},{"sampler":2,"target":{"node":3,"path":"rotation"}},{"sampler":3,"target":{"node":4,"path":"rotation"}},{"sampler":4,"target":{"node":5,"path":"rotation"}},{"sampler":5,"target":{"node":6,"path":"rotation"}},{"sampler":6,"target":{"node":8,"path":"rotation"}},{"sampler":7,"target":{"node":9,"path":"rotation"}},{"sampler":8,"target":{"node":10,"path":"rotation"}},{"sampler":9,"target":{"node":12,"path":"rotation"}},{"sampler":10,"target":{"node":13,"path":"rotation"}},{"sampler":11,"target":{"node":14,"path":"rotation"}},{"sampler":12,"target":{"node":16,"path":"rotation"}},{"sampler":13,"target":{"node":17,"path":"rotation"}},{"sampler":14,"target":{"node":18,"path":"rotation"}},{"sampler":15,"target":{"node":19,"path":"rotation"}},{"sampler":16,"target":{"node":21,"path":"rotation"}},{"sampler":17,"target":{"node":22,"path":"rotation"}},{"sampler":18,"target":{"node":23,"path":"rotation"}},{"sampler":19,"target":{"node":24,"path":"rotation"}}],"samplers":[{"input":7,"interpolation":"LINEAR","output":8},{"input":9,"interpolation":"LINEAR","output":10},{"input":11,"interpolation":"LINEAR","output":12},{"input":13,"interpolation":"LINEAR","output":14},{"input":15,"interpolation":"LINEAR","output":16},{"input":17,"interpolation":"LINEAR","output":18},{"input":19,"interpolation":"LINEAR","output":20},{"input":21,"interpolation":"LINEAR","output":22},{"input":23,"interpolation":"LINEAR","output":24},{"input":25,"interpolation":"LINEAR","output":26},{"input":27,"interpolation":"LINEAR","output":28},{"input":29,"interpolation":"LINEAR","output":30},{"input":31,"interpolation":"LINEAR","output":32},{"input":33,"interpolation":"LINEAR","output":34},{"input":35,"interpolation":"LINEAR","output":36},{"input":37,"interpolation":"LINEAR","output":38},{"input":39,"interpolation":"LINEAR","output":40},{"input":41,"interpolation":"LINEAR","output":42},{"input":43,"interpolation":"LINEAR","output":44},{"input":45,"interpolation":"LINEAR","output":46}],"name":"Die"}],"skins":[{"inverseBindMatrices":6,"skeleton":1,"joints":[1,2,3,4,5,6,8,9,10,11,12,13,14,15,16,17,18,19,21,22,23,24],"name":"skeleton #0"}]}