{"asset":{"version":"2.0","generator":"Babylon2Gltf2017","copyright":"2017 (c) BabylonJS"},"scene":0,"scenes":[{"nodes":[0,1,2,3]}],"nodes":[{"mesh":0,"translation":[0.0,0.0,0.0],"rotation":[0.0,0.0,0.0,-1.0],"scale":[1.0,1.0,1.0],"name":"Sphere001"},{"mesh":1,"translation":[3.0,0.0,0.0],"rotation":[0.0,0.0,0.0,-1.0],"scale":[1.0,1.0,1.0],"name":"Sphere002"},{"mesh":2,"translation":[6.0,0.0,0.0],"rotation":[0.0,0.0,0.0,-1.0],"scale":[1.0,1.0,1.0],"name":"Sphere003"},{"mesh":3,"translation":[9.0,0.0,0.0],"rotation":[0.0,0.0,0.0,-1.0],"scale":[1.0,1.0,1.0],"name":"Sphere004"}],"meshes":[{"primitives":[{"attributes":{"POSITION":1,"NORMAL":2,"TEXCOORD_0":3},"indices":0,"mode":4,"material":0}],"name":"Sphere001"},{"primitives":[{"attributes":{"POSITION":5,"NORMAL":6,"TEXCOORD_0":7},"indices":4,"mode":4,"material":1}],"name":"Sphere002"},{"primitives":[{"attributes":{"POSITION":9,"NORMAL":10,"TEXCOORD_0":11},"indices":8,"mode":4,"material":2}],"name":"Sphere003"},{"primitives":[{"attributes":{"POSITION":13,"NORMAL":14,"TEXCOORD_0":15},"indices":12,"mode":4,"material":3}],"name":"Sphere004"}],"accessors":[{"bufferView":0,"componentType":5123,"count":2880,"type":"SCALAR","name":"accessorIndices"},{"bufferView":1,"componentType":5126,"count":2880,"max":[1.0,1.0,1.0],"min":[-1.0,-1.0,-1.0],"type":"VEC3","name":"accessorPositions"},{"bufferView":1,"byteOffset":34560,"componentType":5126,"count":2880,"type":"VEC3","name":"accessorNormals"},{"bufferView":2,"componentType":5126,"count":2880,"type":"VEC2","name":"accessorUVs"},{"bufferView":0,"byteOffset":5760,"componentType":5123,"count":2880,"type":"SCALAR","name":"accessorIndices"},{"bufferView":1,"byteOffset":69120,"componentType":5126,"count":2880,"max":[1.0,1.0,1.0],"min":[-1.0,-1.0,-1.0],"type":"VEC3","name":"accessorPositions"},{"bufferView":1,"byteOffset":103680,"componentType":5126,"count":2880,"type":"VEC3","name":"accessorNormals"},{"bufferView":2,"byteOffset":23040,"componentType":5126,"count":2880,"type":"VEC2","name":"accessorUVs"},{"bufferView":0,"byteOffset":11520,"componentType":5123,"count":2880,"type":"SCALAR","name":"accessorIndices"},{"bufferView":1,"byteOffset":138240,"componentType":5126,"count":2880,"max":[1.0,1.0,1.0],"min":[-1.0,-1.0,-1.0],"type":"VEC3","name":"accessorPositions"},{"bufferView":1,"byteOffset":172800,"componentType":5126,"count":2880,"type":"VEC3","name":"accessorNormals"},{"bufferView":2,"byteOffset":46080,"componentType":5126,"count":2880,"type":"VEC2","name":"accessorUVs"},{"bufferView":0,"byteOffset":17280,"componentType":5123,"count":2880,"type":"SCALAR","name":"accessorIndices"},{"bufferView":1,"byteOffset":207360,"componentType":5126,"count":2880,"max":[1.0,1.0,1.0],"min":[-1.0,-1.0,-1.0],"type":"VEC3","name":"accessorPositions"},{"bufferView":1,"byteOffset":241920,"componentType":5126,"count":2880,"type":"VEC3","name":"accessorNormals"},{"bufferView":2,"byteOffset":69120,"componentType":5126,"count":2880,"type":"VEC2","name":"accessorUVs"}],"bufferViews":[{"buffer":0,"byteLength":23040,"name":"bufferViewScalar"},{"buffer":0,"byteOffset":23040,"byteLength":276480,"byteStride":12,"name":"bufferViewFloatVec3"},{"buffer":0,"byteOffset":299520,"byteLength":92160,"byteStride":8,"name":"bufferViewFloatVec2"}],"buffers":[{"uri":"Emission.bin","byteLength":391680}],"materials":[{"pbrMetallicRoughness":{"baseColorFactor":[1.0,0.0,0.0,1.0],"metallicFactor":0.0,"roughnessFactor":0.9},"emissiveFactor":[0.498039246,0.498039246,0.498039246],"alphaMode":"OPAQUE","name":"DiffuseColor_SelfColor"},{"pbrMetallicRoughness":{"baseColorFactor":[1.0,1.0,1.0,1.0],"baseColorTexture":{"index":0},"metallicFactor":0.0,"roughnessFactor":0.9},"emissiveFactor":[0.498039246,0.498039246,0.498039246],"alphaMode":"OPAQUE","name":"DiffuseTexture_SelfColor"},{"pbrMetallicRoughness":{"baseColorFactor":[1.0,0.0,0.0,1.0],"metallicFactor":0.0,"roughnessFactor":0.9},"emissiveTexture":{"index":1},"emissiveFactor":[1.0,1.0,1.0],"alphaMode":"OPAQUE","name":"DiffuseColor_SelfTexture"},{"pbrMetallicRoughness":{"baseColorFactor":[1.0,1.0,1.0,1.0],"baseColorTexture":{"index":3},"metallicFactor":0.0,"roughnessFactor":0.9},"emissiveTexture":{"index":2},"emissiveFactor":[1.0,1.0,1.0],"alphaMode":"OPAQUE","name":"DiffuseTexture_SelfTexture"}],"textures":[{"sampler":0,"source":0,"name":"DiffuseTexture_SelfColor_baseColor.jpg"},{"sampler":1,"source":1,"name":"gradation_horizontal.jpg"},{"sampler":2,"source":2,"name":"gradation_horizontal.jpg"},{"sampler":3,"source":3,"name":"DiffuseTexture_SelfTexture_baseColor.jpg"}],"images":[{"uri":"DiffuseTexture_SelfColor_baseColor.jpg"},{"uri":"gradation_horizontal.jpg"},{"uri":"gradation_horizontal.jpg"},{"uri":"DiffuseTexture_SelfTexture_baseColor.jpg"}],"samplers":[{"magFilter":9729,"minFilter":9987,"wrapS":10497,"wrapT":10497},{"magFilter":9729,"minFilter":9987,"wrapS":10497,"wrapT":10497},{"magFilter":9729,"minFilter":9987,"wrapS":10497,"wrapT":10497},{"magFilter":9729,"minFilter":9987,"wrapS":10497,"wrapT":10497}]}