{
	"asset": {
		"version": "2.0",
		"generator": "Babylon2Gltf2017",
		"copyright": "2017 (c) BabylonJS"
	},
	"scene": 0,
	"scenes": [
		{
			"nodes": [
				0
			]
		}
	],
	"nodes": [
		{
			"mesh": 0,
			"translation": [
				0,
				0,
				0
			],
			"rotation": [
				5.10024947e-8,
				-0.642787635,
				4.27961737e-8,
				0.766044438
			],
			"scale": [
				100,
				100,
				100
			],
			"name": "WaterBottle"
		}
	],
	"meshes": [
		{
			"primitives": [
				{
					"attributes": {
						"POSITION": 1,
						"NORMAL": 2,
						"TEXCOORD_0": 3
					},
					"indices": 0,
					"mode": 4,
					"material": 0
				}
			],
			"name": "WaterBottle"
		}
	],
	"accessors": [
		{
			"bufferView": 0,
			"componentType": 5123,
			"count": 13530,
			"type": "SCALAR",
			"name": "accessorIndices"
		},
		{
			"bufferView": 1,
			"componentType": 5126,
			"count": 13530,
			"max": [
				5.445001,
				13.0220337,
				5.44500256
			],
			"min": [
				-5.445001,
				-13.0220337,
				-5.44500256
			],
			"type": "VEC3",
			"name": "accessorPositions"
		},
		{
			"bufferView": 1,
			"byteOffset": 162360,
			"componentType": 5126,
			"count": 13530,
			"type": "VEC3",
			"name": "accessorNormals"
		},
		{
			"bufferView": 2,
			"componentType": 5126,
			"count": 13530,
			"type": "VEC2",
			"name": "accessorUVs"
		}
	],
	"bufferViews": [
		{
			"buffer": 0,
			"byteLength": 27060,
			"name": "bufferViewScalar"
		},
		{
			"buffer": 0,
			"byteOffset": 27060,
			"byteLength": 324720,
			"byteStride": 12,
			"name": "bufferViewFloatVec3"
		},
		{
			"buffer": 0,
			"byteOffset": 351780,
			"byteLength": 108240,
			"byteStride": 8,
			"name": "bufferViewFloatVec2"
		}
	],
	"buffers": [
		{
			"uri": "WaterBottle.bin",
			"byteLength": 460020
		}
	],
	"materials": [
		{
			"pbrMetallicRoughness": {
				"baseColorFactor": [
					1,
					1,
					1,
					1
				],
				"baseColorTexture": {
					"index": 2
				},
				"metallicFactor": 1,
				"roughnessFactor": 0
			},
			"normalTexture": {
				"index": 0
			},
			"emissiveTexture": {
				"index": 1
			},
			"emissiveFactor": [
				1,
				1,
				1
			],
			"alphaMode": "OPAQUE",
			"name": "WaterBottleMat"
		}
	],
	"textures": [
		{
			"sampler": 0,
			"source": 0,
			"name": "WaterBottle_Normal.png"
		},
		{
			"sampler": 1,
			"source": 1,
			"name": "WaterBottle_Emissive.png"
		},
		{
			"sampler": 2,
			"source": 2,
			"name": "WaterBottle_BaseColor.jpg"
		},
		{
			"sampler": 3,
			"source": 3,
			"name": "WaterBottleMat_metallicRoughness.jpg"
		}
	],
	"images": [
		{
			"uri": "WaterBottle_Normal.png"
		},
		{
			"uri": "WaterBottle_Emissive.png"
		},
		{
			"uri": "WaterBottle_BaseColor.jpg"
		},
		{
			"uri": "WaterBottleMat_metallicRoughness.jpg"
		}
	],
	"samplers": [
		{
			"magFilter": 9729,
			"minFilter": 9987,
			"wrapS": 10497,
			"wrapT": 10497
		},
		{
			"magFilter": 9729,
			"minFilter": 9987,
			"wrapS": 10497,
			"wrapT": 10497
		},
		{
			"magFilter": 9729,
			"minFilter": 9987,
			"wrapS": 10497,
			"wrapT": 10497
		},
		{
			"magFilter": 9729,
			"minFilter": 9987,
			"wrapS": 10497,
			"wrapT": 10497
		}
	]
}