{"asset":{"version":"2.0","generator":"babylon.js glTF exporter for 3dsmax 2019 v1.5.0"},"scene":0,"scenes":[{"nodes":[0,1,2,3,4,5,6],"extensions":{}}],"nodes":[{"mesh":0,"translation":[0.0,0.0,0.0],"rotation":[0.0,0.0,0.0,1.0],"scale":[1.0,1.0,1.0],"name":"StandardMeshBackfaceCullingOn"},{"mesh":1,"translation":[3.0,0.0,0.0],"rotation":[0.0,0.0,0.0,1.0],"scale":[1.0,1.0,1.0],"name":"PhysicalMeshBackfaceCullingOn"},{"mesh":2,"translation":[6.0,0.0,0.0],"rotation":[0.0,0.0,0.0,1.0],"scale":[1.0,1.0,1.0],"name":"StandardArnoldMeshBackfaceCullingOn"},{"mesh":3,"translation":[3.0,0.0,-3.56341171],"rotation":[0.0,0.0,0.0,1.0],"scale":[1.0,1.0,1.0],"name":"PhysicalMeshBackfaceCullingOff"},{"mesh":4,"translation":[6.0,0.0,-3.56341171],"rotation":[0.0,0.0,0.0,1.0],"scale":[1.0,1.0,1.0],"name":"StandardArnoldMeshBackfaceCullingOff"},{"mesh":5,"translation":[0.0,0.0,-3.56341171],"rotation":[0.0,0.0,0.0,1.0],"scale":[1.0,1.0,1.0],"name":"StandardMeshBackfaceCullingOff"},{"translation":[0.0,0.0,0.0],"rotation":[0.0,0.0,0.0,1.0],"scale":[1.0,1.0,1.0],"name":"Default light"}],"meshes":[{"primitives":[{"attributes":{"POSITION":1,"NORMAL":2,"TEXCOORD_0":3},"indices":0,"mode":4,"material":0}],"name":"StandardMeshBackfaceCullingOn"},{"primitives":[{"attributes":{"POSITION":5,"NORMAL":6,"TEXCOORD_0":7},"indices":4,"mode":4,"material":1}],"name":"PhysicalMeshBackfaceCullingOn"},{"primitives":[{"attributes":{"POSITION":9,"NORMAL":10,"TEXCOORD_0":11},"indices":8,"mode":4,"material":2}],"name":"StandardArnoldMeshBackfaceCullingOn"},{"primitives":[{"attributes":{"POSITION":13,"NORMAL":14,"TEXCOORD_0":15},"indices":12,"mode":4,"material":3}],"name":"PhysicalMeshBackfaceCullingOff"},{"primitives":[{"attributes":{"POSITION":17,"NORMAL":18,"TEXCOORD_0":19},"indices":16,"mode":4,"material":4}],"name":"StandardArnoldMeshBackfaceCullingOff"},{"primitives":[{"attributes":{"POSITION":21,"NORMAL":22,"TEXCOORD_0":23},"indices":20,"mode":4,"material":5}],"name":"StandardMeshBackfaceCullingOff"}],"accessors":[{"bufferView":0,"componentType":5123,"count":1440,"type":"SCALAR","name":"accessorIndices"},{"bufferView":1,"componentType":5126,"count":1440,"max":[9.655992E-07,1.0,1.0],"min":[-1.0,-1.0,-1.0],"type":"VEC3","name":"accessorPositions"},{"bufferView":1,"byteOffset":17280,"componentType":5126,"count":1440,"type":"VEC3","name":"accessorNormals"},{"bufferView":2,"componentType":5126,"count":1440,"type":"VEC2","name":"accessorUVs"},{"bufferView":0,"byteOffset":2880,"componentType":5123,"count":1440,"type":"SCALAR","name":"accessorIndices"},{"bufferView":1,"byteOffset":34560,"componentType":5126,"count":1440,"max":[9.655992E-07,1.0,1.0],"min":[-1.0,-1.0,-1.0],"type":"VEC3","name":"accessorPositions"},{"bufferView":1,"byteOffset":51840,"componentType":5126,"count":1440,"type":"VEC3","name":"accessorNormals"},{"bufferView":2,"byteOffset":11520,"componentType":5126,"count":1440,"type":"VEC2","name":"accessorUVs"},{"bufferView":0,"byteOffset":5760,"componentType":5123,"count":1440,"type":"SCALAR","name":"accessorIndices"},{"bufferView":1,"byteOffset":69120,"componentType":5126,"count":1440,"max":[9.655992E-07,1.0,1.0],"min":[-1.0,-1.0,-1.0],"type":"VEC3","name":"accessorPositions"},{"bufferView":1,"byteOffset":86400,"componentType":5126,"count":1440,"type":"VEC3","name":"accessorNormals"},{"bufferView":2,"byteOffset":23040,"componentType":5126,"count":1440,"type":"VEC2","name":"accessorUVs"},{"bufferView":0,"byteOffset":8640,"componentType":5123,"count":1440,"type":"SCALAR","name":"accessorIndices"},{"bufferView":1,"byteOffset":103680,"componentType":5126,"count":1440,"max":[9.655992E-07,1.0,1.0],"min":[-1.0,-1.0,-1.0],"type":"VEC3","name":"accessorPositions"},{"bufferView":1,"byteOffset":120960,"componentType":5126,"count":1440,"type":"VEC3","name":"accessorNormals"},{"bufferView":2,"byteOffset":34560,"componentType":5126,"count":1440,"type":"VEC2","name":"accessorUVs"},{"bufferView":0,"byteOffset":11520,"componentType":5123,"count":1440,"type":"SCALAR","name":"accessorIndices"},{"bufferView":1,"byteOffset":138240,"componentType":5126,"count":1440,"max":[9.655992E-07,1.0,1.0],"min":[-1.0,-1.0,-1.0],"type":"VEC3","name":"accessorPositions"},{"bufferView":1,"byteOffset":155520,"componentType":5126,"count":1440,"type":"VEC3","name":"accessorNormals"},{"bufferView":2,"byteOffset":46080,"componentType":5126,"count":1440,"type":"VEC2","name":"accessorUVs"},{"bufferView":0,"byteOffset":14400,"componentType":5123,"count":1440,"type":"SCALAR","name":"accessorIndices"},{"bufferView":1,"byteOffset":172800,"componentType":5126,"count":1440,"max":[9.655992E-07,1.0,1.0],"min":[-1.0,-1.0,-1.0],"type":"VEC3","name":"accessorPositions"},{"bufferView":1,"byteOffset":190080,"componentType":5126,"count":1440,"type":"VEC3","name":"accessorNormals"},{"bufferView":2,"byteOffset":57600,"componentType":5126,"count":1440,"type":"VEC2","name":"accessorUVs"}],"bufferViews":[{"buffer":0,"byteLength":17280,"name":"bufferViewScalar"},{"buffer":0,"byteOffset":17280,"byteLength":207360,"byteStride":12,"name":"bufferViewFloatVec3"},{"buffer":0,"byteOffset":224640,"byteLength":69120,"byteStride":8,"name":"bufferViewFloatVec2"}],"buffers":[{"uri":"BackfaceCulling.bin","byteLength":293760}],"materials":[{"pbrMetallicRoughness":{"baseColorFactor":[0.5,0.0,0.0,1.0],"metallicFactor":0.0,"roughnessFactor":0.450053632},"emissiveFactor":[0.0,0.0,0.0],"alphaMode":"OPAQUE","name":"StandardMaterialBackfaceCullingOn"},{"pbrMetallicRoughness":{"baseColorFactor":[0.0,1.0,0.0,1.0],"metallicFactor":0.0,"roughnessFactor":0.0},"emissiveFactor":[0.0,0.0,0.0],"alphaMode":"OPAQUE","name":"PhysicalMaterialBackfaceCullingOn"},{"pbrMetallicRoughness":{"baseColorFactor":[0.0,0.0,0.8,1.0],"metallicFactor":0.0,"roughnessFactor":0.1},"emissiveFactor":[0.0,0.0,0.0],"alphaMode":"OPAQUE","name":"StandardSurfaceMaterialBackfaceCullingOn"},{"pbrMetallicRoughness":{"baseColorFactor":[0.0,1.0,0.0,1.0],"metallicFactor":0.0,"roughnessFactor":0.0},"emissiveFactor":[0.0,0.0,0.0],"alphaMode":"OPAQUE","doubleSided":true,"name":"PhysicalMaterialBackfaceCullingOff"},{"pbrMetallicRoughness":{"baseColorFactor":[0.0,0.0,0.8,1.0],"metallicFactor":0.0,"roughnessFactor":0.1},"emissiveFactor":[0.0,0.0,0.0],"alphaMode":"OPAQUE","doubleSided":true,"name":"StandardSurfaceMaterialBackfaceCullingOff"},{"pbrMetallicRoughness":{"baseColorFactor":[0.5,0.0,0.0,1.0],"metallicFactor":0.0,"roughnessFactor":0.450053632},"emissiveFactor":[0.0,0.0,0.0],"alphaMode":"OPAQUE","doubleSided":true,"name":"StandardMaterialBackfaceCullingOff"}]}