{
	"asset": {
		"version": "2.0",
		"generator": "babylon.js glTF exporter for maya 2018 v1.0.0",
		"copyright": "2017 (c) BabylonJS"
	},
	"scene": 0,
	"scenes": [
		{
			"nodes": [
				0,
				1,
				2,
				3,
				4,
				5
			]
		}
	],
	"nodes": [
		{
			"mesh": 0,
			"translation": [
				0,
				0,
				3
			],
			"rotation": [
				0,
				0,
				0,
				1
			],
			"scale": [
				1,
				1,
				1
			],
			"name": "SphereColor"
		},
		{
			"mesh": 1,
			"translation": [
				2.6,
				0,
				1.5
			],
			"rotation": [
				0,
				0,
				0,
				1
			],
			"scale": [
				1,
				1,
				1
			],
			"name": "SphereColorOpacity"
		},
		{
			"mesh": 2,
			"translation": [
				2.6,
				0,
				-1.5
			],
			"rotation": [
				0,
				0,
				0,
				1
			],
			"scale": [
				1,
				1,
				1
			],
			"name": "SphereMetallicRoughness"
		},
		{
			"mesh": 3,
			"translation": [
				0,
				0,
				-3
			],
			"rotation": [
				0,
				0,
				0,
				1
			],
			"scale": [
				1,
				1,
				1
			],
			"name": "SphereColorEmissive"
		},
		{
			"mesh": 4,
			"translation": [
				-2.6,
				0,
				-1.5
			],
			"rotation": [
				0,
				0,
				0,
				1
			],
			"scale": [
				1,
				1,
				1
			],
			"name": "SphereNormal"
		},
		{
			"mesh": 5,
			"translation": [
				-2.6,
				0,
				1.5
			],
			"rotation": [
				0,
				0,
				0,
				1
			],
			"scale": [
				1,
				1,
				1
			],
			"name": "SphereColorAO"
		}
	],
	"meshes": [
		{
			"primitives": [
				{
					"attributes": {
						"POSITION": 1,
						"NORMAL": 2,
						"TEXCOORD_0": 3
					},
					"indices": 0,
					"mode": 4,
					"material": 0
				}
			],
			"name": "SphereColor"
		},
		{
			"primitives": [
				{
					"attributes": {
						"POSITION": 5,
						"NORMAL": 6,
						"TEXCOORD_0": 7
					},
					"indices": 4,
					"mode": 4,
					"material": 1
				}
			],
			"name": "SphereColorOpacity"
		},
		{
			"primitives": [
				{
					"attributes": {
						"POSITION": 9,
						"NORMAL": 10,
						"TEXCOORD_0": 11
					},
					"indices": 8,
					"mode": 4,
					"material": 2
				}
			],
			"name": "SphereMetallicRoughness"
		},
		{
			"primitives": [
				{
					"attributes": {
						"POSITION": 13,
						"NORMAL": 14,
						"TEXCOORD_0": 15
					},
					"indices": 12,
					"mode": 4,
					"material": 3
				}
			],
			"name": "SphereColorEmissive"
		},
		{
			"primitives": [
				{
					"attributes": {
						"POSITION": 17,
						"NORMAL": 18,
						"TEXCOORD_0": 19
					},
					"indices": 16,
					"mode": 4,
					"material": 4
				}
			],
			"name": "SphereNormal"
		},
		{
			"primitives": [
				{
					"attributes": {
						"POSITION": 21,
						"NORMAL": 22,
						"TEXCOORD_0": 23
					},
					"indices": 20,
					"mode": 4,
					"material": 5
				}
			],
			"name": "SphereColorAO"
		}
	],
	"accessors": [
		{
			"bufferView": 0,
			"componentType": 5123,
			"count": 2280,
			"type": "SCALAR",
			"name": "accessorIndices"
		},
		{
			"bufferView": 1,
			"componentType": 5126,
			"count": 439,
			"max": [
				1,
				1,
				1.00000012
			],
			"min": [
				-1.00000024,
				-1,
				-1.00000048
			],
			"type": "VEC3",
			"name": "accessorPositions"
		},
		{
			"bufferView": 1,
			"byteOffset": 5268,
			"componentType": 5126,
			"count": 439,
			"type": "VEC3",
			"name": "accessorNormals"
		},
		{
			"bufferView": 2,
			"componentType": 5126,
			"count": 439,
			"type": "VEC2",
			"name": "accessorUVs"
		},
		{
			"bufferView": 0,
			"byteOffset": 4560,
			"componentType": 5123,
			"count": 2280,
			"type": "SCALAR",
			"name": "accessorIndices"
		},
		{
			"bufferView": 1,
			"byteOffset": 10536,
			"componentType": 5126,
			"count": 439,
			"max": [
				1,
				1,
				1.00000012
			],
			"min": [
				-1.00000024,
				-1,
				-1.00000048
			],
			"type": "VEC3",
			"name": "accessorPositions"
		},
		{
			"bufferView": 1,
			"byteOffset": 15804,
			"componentType": 5126,
			"count": 439,
			"type": "VEC3",
			"name": "accessorNormals"
		},
		{
			"bufferView": 2,
			"byteOffset": 3512,
			"componentType": 5126,
			"count": 439,
			"type": "VEC2",
			"name": "accessorUVs"
		},
		{
			"bufferView": 0,
			"byteOffset": 9120,
			"componentType": 5123,
			"count": 2280,
			"type": "SCALAR",
			"name": "accessorIndices"
		},
		{
			"bufferView": 1,
			"byteOffset": 21072,
			"componentType": 5126,
			"count": 439,
			"max": [
				1,
				1,
				1.00000012
			],
			"min": [
				-1.00000024,
				-1,
				-1.00000048
			],
			"type": "VEC3",
			"name": "accessorPositions"
		},
		{
			"bufferView": 1,
			"byteOffset": 26340,
			"componentType": 5126,
			"count": 439,
			"type": "VEC3",
			"name": "accessorNormals"
		},
		{
			"bufferView": 2,
			"byteOffset": 7024,
			"componentType": 5126,
			"count": 439,
			"type": "VEC2",
			"name": "accessorUVs"
		},
		{
			"bufferView": 0,
			"byteOffset": 13680,
			"componentType": 5123,
			"count": 2280,
			"type": "SCALAR",
			"name": "accessorIndices"
		},
		{
			"bufferView": 1,
			"byteOffset": 31608,
			"componentType": 5126,
			"count": 439,
			"max": [
				1,
				1,
				1.00000012
			],
			"min": [
				-1.00000024,
				-1,
				-1.00000048
			],
			"type": "VEC3",
			"name": "accessorPositions"
		},
		{
			"bufferView": 1,
			"byteOffset": 36876,
			"componentType": 5126,
			"count": 439,
			"type": "VEC3",
			"name": "accessorNormals"
		},
		{
			"bufferView": 2,
			"byteOffset": 10536,
			"componentType": 5126,
			"count": 439,
			"type": "VEC2",
			"name": "accessorUVs"
		},
		{
			"bufferView": 0,
			"byteOffset": 18240,
			"componentType": 5123,
			"count": 2280,
			"type": "SCALAR",
			"name": "accessorIndices"
		},
		{
			"bufferView": 1,
			"byteOffset": 42144,
			"componentType": 5126,
			"count": 439,
			"max": [
				1,
				1,
				1.00000012
			],
			"min": [
				-1.00000024,
				-1,
				-1.00000048
			],
			"type": "VEC3",
			"name": "accessorPositions"
		},
		{
			"bufferView": 1,
			"byteOffset": 47412,
			"componentType": 5126,
			"count": 439,
			"type": "VEC3",
			"name": "accessorNormals"
		},
		{
			"bufferView": 2,
			"byteOffset": 14048,
			"componentType": 5126,
			"count": 439,
			"type": "VEC2",
			"name": "accessorUVs"
		},
		{
			"bufferView": 0,
			"byteOffset": 22800,
			"componentType": 5123,
			"count": 2280,
			"type": "SCALAR",
			"name": "accessorIndices"
		},
		{
			"bufferView": 1,
			"byteOffset": 52680,
			"componentType": 5126,
			"count": 439,
			"max": [
				1,
				1,
				1.00000012
			],
			"min": [
				-1.00000024,
				-1,
				-1.00000048
			],
			"type": "VEC3",
			"name": "accessorPositions"
		},
		{
			"bufferView": 1,
			"byteOffset": 57948,
			"componentType": 5126,
			"count": 439,
			"type": "VEC3",
			"name": "accessorNormals"
		},
		{
			"bufferView": 2,
			"byteOffset": 17560,
			"componentType": 5126,
			"count": 439,
			"type": "VEC2",
			"name": "accessorUVs"
		}
	],
	"bufferViews": [
		{
			"buffer": 0,
			"byteLength": 27360,
			"name": "bufferViewScalar"
		},
		{
			"buffer": 0,
			"byteOffset": 27360,
			"byteLength": 63216,
			"byteStride": 12,
			"name": "bufferViewFloatVec3"
		},
		{
			"buffer": 0,
			"byteOffset": 90576,
			"byteLength": 21072,
			"byteStride": 8,
			"name": "bufferViewFloatVec2"
		}
	],
	"buffers": [
		{
			"uri": "PBR_Textures.bin",
			"byteLength": 111648
		}
	],
	"materials": [
		{
			"pbrMetallicRoughness": {
				"baseColorFactor": [
					1,
					1,
					1,
					1
				],
				"baseColorTexture": {
					"index": 0
				},
				"metallicFactor": 0,
				"roughnessFactor": 0.33
			},
			"emissiveFactor": [
				0,
				0,
				0
			],
			"alphaMode": "OPAQUE",
			"name": "ColorMat"
		},
		{
			"pbrMetallicRoughness": {
				"baseColorFactor": [
					1,
					1,
					1,
					1
				],
				"baseColorTexture": {
					"index": 1
				},
				"metallicFactor": 0,
				"roughnessFactor": 0.33
			},
			"emissiveFactor": [
				0,
				0,
				0
			],
			"alphaMode": "BLEND",
			"name": "ColorOpacityMat"
		},
		{
			"pbrMetallicRoughness": {
				"baseColorFactor": [
					1,
					0,
					0,
					1
				],
				"metallicFactor": 1,
				"roughnessFactor": 1,
				"metallicRoughnessTexture": {
					"index": 2
				}
			},
			"emissiveFactor": [
				0,
				0,
				0
			],
			"alphaMode": "OPAQUE",
			"name": "MetallicRoughnessMat"
		},
		{
			"pbrMetallicRoughness": {
				"baseColorFactor": [
					1,
					1,
					1,
					1
				],
				"baseColorTexture": {
					"index": 4
				},
				"metallicFactor": 0,
				"roughnessFactor": 0.33
			},
			"emissiveTexture": {
				"index": 3
			},
			"emissiveFactor": [
				1,
				1,
				1
			],
			"alphaMode": "OPAQUE",
			"name": "ColorEmissiveMat"
		},
		{
			"pbrMetallicRoughness": {
				"baseColorFactor": [
					0,
					0,
					1,
					1
				],
				"metallicFactor": 0,
				"roughnessFactor": 0.33
			},
			"normalTexture": {
				"index": 5
			},
			"emissiveFactor": [
				0,
				0,
				0
			],
			"alphaMode": "OPAQUE",
			"name": "NormalMat"
		},
		{
			"pbrMetallicRoughness": {
				"baseColorFactor": [
					1,
					1,
					1,
					1
				],
				"baseColorTexture": {
					"index": 7
				},
				"metallicFactor": 0,
				"roughnessFactor": 0.33
			},
			"occlusionTexture": {
				"index": 6
			},
			"emissiveFactor": [
				0,
				0,
				0
			],
			"alphaMode": "OPAQUE",
			"name": "ColorAOMat"
		}
	],
	"textures": [
		{
			"sampler": 0,
			"source": 0,
			"name": "wood.jpg"
		},
		{
			"sampler": 1,
			"source": 1,
			"name": "woodWithAlpha.png"
		},
		{
			"sampler": 2,
			"source": 2,
			"name": "MetallicRoughnessMat_metallicRoughness.jpg"
		},
		{
			"sampler": 3,
			"source": 3,
			"name": "sun.jpg"
		},
		{
			"sampler": 4,
			"source": 4,
			"name": "sun.jpg"
		},
		{
			"sampler": 5,
			"source": 5,
			"name": "bump.jpg"
		},
		{
			"sampler": 6,
			"source": 6,
			"name": "AmbientOcclusion.jpg"
		},
		{
			"sampler": 7,
			"source": 7,
			"name": "wood.jpg"
		}
	],
	"images": [
		{
			"uri": "wood.jpg"
		},
		{
			"uri": "woodWithAlpha.png"
		},
		{
			"uri": "MetallicRoughnessMat_metallicRoughness.jpg"
		},
		{
			"uri": "sun.jpg"
		},
		{
			"uri": "sun.jpg"
		},
		{
			"uri": "bump.jpg"
		},
		{
			"uri": "AmbientOcclusion.jpg"
		},
		{
			"uri": "wood.jpg"
		}
	],
	"samplers": [
		{
			"magFilter": 9729,
			"minFilter": 9987,
			"wrapS": 10497,
			"wrapT": 10497
		},
		{
			"magFilter": 9729,
			"minFilter": 9987,
			"wrapS": 10497,
			"wrapT": 10497
		},
		{
			"magFilter": 9729,
			"minFilter": 9987,
			"wrapS": 10497,
			"wrapT": 10497
		},
		{
			"magFilter": 9729,
			"minFilter": 9987,
			"wrapS": 10497,
			"wrapT": 10497
		},
		{
			"magFilter": 9729,
			"minFilter": 9987,
			"wrapS": 10497,
			"wrapT": 10497
		},
		{
			"magFilter": 9729,
			"minFilter": 9987,
			"wrapS": 10497,
			"wrapT": 10497
		},
		{
			"magFilter": 9729,
			"minFilter": 9987,
			"wrapS": 10497,
			"wrapT": 10497
		},
		{
			"magFilter": 9729,
			"minFilter": 9987,
			"wrapS": 10497,
			"wrapT": 10497
		}
	]
}