{"asset":{"version":"2.0","generator":"babylon.js glTF exporter for Maya 2018 vCustom.Build.Version"},"scene":0,"scenes":[{"nodes":[0,1,2,3],"extensions":{}}],"nodes":[{"skin":0,"mesh":0,"translation":[0.0,0.0,0.0],"rotation":[-0.7071067,0.0,0.0,0.7071068],"scale":[100.0,100.0,100.0],"name":"elf","extras":{"UDP3DSMAX":"MapChannel:1 = UVChannel_1&cr;&lf;babylonjs_noexport = False&cr;&lf;babylonjs_checkcollisions = False&cr;&lf;babylonjs_checkpickable = False&cr;&lf;babylonjs_optimizevertices = False&cr;&lf;babylonjs_showboundingbox = False&cr;&lf;babylonjs_showsubmeshesboundingbox = False&cr;&lf;babylonjs_autoanimate = True&cr;&lf;babylonjs_autoanimateloop = True&cr;&lf;babylonjs_autoanimate_from = 0,000000&cr;&lf;babylonjs_autoanimate_to = 140,000000&cr;&lf;babylonjs_alphaindex = 1000,000000&cr;&lf;babylonjs_mass = 0,000000&cr;&lf;babylonjs_friction = 0,200000&cr;&lf;babylonjs_restitution = 0,200000&cr;&lf;babylonjs_impostor = None&cr;&lf;babylonjs_sound_autoplay = True&cr;&lf;babylonjs_sound_loop = True&cr;&lf;babylonjs_sound_volume = 1,000000&cr;&lf;babylonjs_sound_playbackrate = 1,000000&cr;&lf;babylonjs_sound_distancemodel = linear&cr;&lf;babylonjs_sound_maxdistance = 100,000000&cr;&lf;babylonjs_sound_rolloff = 1,000000&cr;&lf;babylonjs_sound_refdistance = 1,000000&cr;&lf;babylonjs_sound_directional = False&cr;&lf;babylonjs_sound_coneinnerangle = 360,000000&cr;&lf;babylonjs_sound_coneouterangle = 360,000000&cr;&lf;babylonjs_sound_coneoutergain = 1,000000&cr;&lf;babylonjs_sound_filename = &cr;&lf;","MaxHandle":1}},{"mesh":1,"translation":[2.16999984,-0.199999988,0.0],"rotation":[0.0,0.0,0.0,1.0],"scale":[0.1,1.0,0.1],"name":"pCube1"},{"translation":[0.0,0.0,0.0],"rotation":[0.0,0.0,0.0,1.0],"scale":[1.0,1.0,1.0],"name":"Default light"},{"children":[4,17,21],"translation":[0.0,0.0,0.0],"rotation":[5.28672244E-05,-0.000109512388,0.003001453,0.99999547],"scale":[100.000015,100.0,100.000008],"name":"mixamorig:Hips"},{"children":[5],"translation":[5.820766E-13,0.0008851924,9.69869143E-05],"rotation":[0.185690448,0.09258603,-0.00342496065,0.9782306],"scale":[1.00000012,0.9999999,1.00000012],"name":"mixamorig:Spine"},{"children":[6],"translation":[-4.65661277E-12,0.00103890407,3.72529022E-11],"rotation":[0.009984253,0.0270467959,0.0036067795,0.9995778],"scale":[0.9999999,1.0,1.00000012],"name":"mixamorig:Spine1"},{"children":[7,9,13],"translation":[2.79396766E-11,0.0011873187,1.49011609E-10],"rotation":[0.0102881454,0.0266801771,0.00347159221,0.9995851],"scale":[2.99999976,2.99999976,2.99999976],"name":"mixamorig:Spine2"},{"children":[8],"translation":[-2.79396766E-11,0.00133573276,-8.56816729E-10],"rotation":[-0.118998326,-0.0134508992,0.0135794077,0.9927105],"scale":[1.0,1.0,1.0],"name":"mixamorig:Neck"},{"translation":[-1.86264511E-11,0.000177431109,-7.048018E-05],"rotation":[-0.212844148,0.0306223128,-0.04075867,0.9757553],"scale":[0.99999994,1.0,1.0],"name":"mixamorig:Head"},{"children":[10],"translation":[0.000503429153,0.001190785,2.20307338E-05],"rotation":[-0.5887417,-0.396413326,0.5849218,-0.3925636],"scale":[1.00000012,0.99999994,1.00000024],"name":"mixamorig:LeftShoulder"},{"children":[11],"translation":[0.0,0.00100196945,-1.49011609E-10],"rotation":[0.308696181,0.2402508,-0.2622847,0.8821525],"scale":[1.0,1.00000012,1.0],"name":"mixamorig:LeftArm"},{"children":[12],"translation":[0.0,0.00123613514,-1.19209287E-09],"rotation":[0.131884456,-0.4505429,0.501064539,0.727015734],"scale":[1.00000012,1.0,0.9999999],"name":"mixamorig:LeftForeArm"},{"translation":[-7.45058043E-11,0.0026929006,0.0],"rotation":[0.0,0.0,0.0,1.0],"scale":[0.9999997,1.0,0.99999994],"name":"mixamorig:LeftHand"},{"children":[14],"translation":[-0.00050342927,0.00118945376,9.875409E-06],"rotation":[-0.6664553,0.323910177,-0.533480763,-0.4078208],"scale":[1.0,0.9999999,1.0],"name":"mixamorig:RightShoulder"},{"children":[15],"translation":[1.862645E-10,0.00100197,1.19209287E-09],"rotation":[0.06849574,0.165744558,-0.2300469,0.956512153],"scale":[1.0,1.0,1.00000012],"name":"mixamorig:RightArm"},{"children":[16],"translation":[5.21540644E-10,0.00123349,1.19209287E-09],"rotation":[0.189166367,0.4400134,-0.7149878,0.50931],"scale":[1.00000024,1.0,1.0],"name":"mixamorig:RightForeArm"},{"translation":[-1.11758706E-10,0.0027304648,0.0],"rotation":[0.0,0.0,0.0,1.0],"scale":[1.0,1.00000012,1.0],"name":"mixamorig:RightHand"},{"children":[18],"translation":[0.00119407813,-0.0004893059,-0.000112980604],"rotation":[0.113386542,0.498319358,0.8512163,-0.119382225],"scale":[1.00000012,1.0,1.00000012],"name":"mixamorig:LeftUpLeg"},{"children":[19],"translation":[4.47034826E-10,0.003323332,-1.11758706E-10],"rotation":[-0.901211858,0.00371556752,-0.00148708571,0.433360338],"scale":[0.9999999,0.999999762,0.999999762],"name":"mixamorig:LeftLeg"},{"children":[20],"translation":[2.23517413E-10,0.002374303,-2.98023217E-10],"rotation":[0.6426319,-0.00115082762,0.11816328,0.757007539],"scale":[1.00000012,1.00000012,1.0],"name":"mixamorig:LeftFoot"},{"translation":[-3.72529E-10,0.00160369452,-1.11758706E-10],"rotation":[0.361697048,-0.247965485,0.06710727,0.8962059],"scale":[1.0,1.0,0.9999999],"name":"mixamorig:LeftToeBase"},{"children":[22],"translation":[-0.00119407789,-0.0004893066,-7.10654349E-05],"rotation":[0.0173175316,0.164133862,0.986245334,0.008961391],"scale":[1.00000012,0.9999999,0.99999994],"name":"mixamorig:RightUpLeg"},{"children":[23],"translation":[-1.49011609E-10,0.00332580227,-1.86264511E-11],"rotation":[-0.401449978,-0.0668495,0.02438606,0.913112462],"scale":[1.00000012,0.9999998,0.9999997],"name":"mixamorig:RightLeg"},{"children":[24],"translation":[-2.98023217E-10,0.002379325,4.47034826E-10],"rotation":[0.738860548,0.07751675,0.0190268848,0.66911453],"scale":[1.00000012,1.00000012,0.99999994],"name":"mixamorig:RightFoot"},{"translation":[0.0,0.00155034079,-1.19209287E-09],"rotation":[0.406660676,0.229122579,-0.04842944,0.883054137],"scale":[0.99999994,0.99999994,1.0],"name":"mixamorig:RightToeBase"}],"meshes":[{"primitives":[{"attributes":{"POSITION":1,"TANGENT":2,"NORMAL":3,"TEXCOORD_0":4,"JOINTS_0":5,"WEIGHTS_0":6},"indices":0,"mode":4,"material":0}],"name":"elf"},{"primitives":[{"attributes":{"POSITION":8,"TANGENT":9,"NORMAL":10,"TEXCOORD_0":11},"indices":7,"mode":4,"material":0}],"name":"pCube1"}],"accessors":[{"bufferView":0,"componentType":5123,"count":6936,"type":"SCALAR","name":"accessorIndices"},{"bufferView":1,"componentType":5126,"count":2182,"max":[0.0137514127,0.0215447154,0.03144987],"min":[-0.01738134,-0.0171097126,-0.00743102236],"type":"VEC3","name":"accessorPositions"},{"bufferView":2,"componentType":5126,"count":2182,"type":"VEC4","name":"accessorTangents"},{"bufferView":1,"byteOffset":26184,"componentType":5126,"count":2182,"type":"VEC3","name":"accessorNormals"},{"bufferView":3,"componentType":5126,"count":2182,"type":"VEC2","name":"accessorUVs"},{"bufferView":4,"componentType":5123,"count":2182,"type":"VEC4","name":"accessorJoints"},{"bufferView":2,"byteOffset":34912,"componentType":5126,"count":2182,"type":"VEC4","name":"accessorWeights"},{"bufferView":0,"byteOffset":13872,"componentType":5123,"count":36,"type":"SCALAR","name":"accessorIndices"},{"bufferView":1,"byteOffset":52368,"componentType":5126,"count":24,"max":[0.5,0.5,0.5],"min":[-0.5,-0.5,-0.5],"type":"VEC3","name":"accessorPositions"},{"bufferView":2,"byteOffset":69824,"componentType":5126,"count":24,"type":"VEC4","name":"accessorTangents"},{"bufferView":1,"byteOffset":52656,"componentType":5126,"count":24,"type":"VEC3","name":"accessorNormals"},{"bufferView":3,"byteOffset":17456,"componentType":5126,"count":24,"type":"VEC2","name":"accessorUVs"},{"bufferView":5,"componentType":5126,"count":22,"type":"MAT4","name":"accessorInverseBindMatrices"}],"bufferViews":[{"buffer":0,"byteLength":13944,"name":"bufferViewScalar"},{"buffer":0,"byteOffset":13944,"byteLength":52944,"byteStride":12,"name":"bufferViewFloatVec3"},{"buffer":0,"byteOffset":66888,"byteLength":70208,"byteStride":16,"name":"bufferViewFloatVec4"},{"buffer":0,"byteOffset":137096,"byteLength":17648,"byteStride":8,"name":"bufferViewFloatVec2"},{"buffer":0,"byteOffset":154744,"byteLength":17456,"byteStride":8,"name":"bufferViewUnsignedShortVec4"},{"buffer":0,"byteOffset":172200,"byteLength":1408,"name":"bufferViewFloatMat4"}],"buffers":[{"uri":"Elf_foot_nonAnimated.bin","byteLength":173608}],"materials":[{"pbrMetallicRoughness":{"baseColorFactor":[0.588,0.588,0.588,1.0],"metallicFactor":0.0,"roughnessFactor":0.450053632},"emissiveFactor":[0.588,0.588,0.588],"alphaMode":"OPAQUE","name":"FBXASC0481FBXASC032FBXASC045FBXASC032Default"}],"skins":[{"inverseBindMatrices":12,"skeleton":3,"joints":[3,4,5,6,7,8,9,10,11,12,13,14,15,16,17,18,19,20,21,22,23,24],"name":"skeleton #0"}]}