{
  "asset": {
    "version": "2.0",
    "generator": "babylon.js glTF exporter for 3dsmax 2019 vCustom.Build.Version"
  },
  "scene": 0,
  "scenes": [
    {
      "nodes": [
        0,
        1,
        2,
        3,
        4,
        5,
        6,
        7
      ],
      "extensions": {}
    }
  ],
  "nodes": [
    {
      "mesh": 0,
      "translation": [
        -360.0,
        0.0,
        0.0
      ],
      "rotation": [
        0.0,
        0.0,
        0.0,
        1.0
      ],
      "scale": [
        1.0,
        1.0,
        1.0
      ],
      "name": "B"
    },
    {
      "mesh": 1,
      "translation": [
        -240.0,
        0.0,
        0.0
      ],
      "rotation": [
        0.0,
        0.0,
        0.0,
        1.0
      ],
      "scale": [
        1.0,
        1.0,
        1.0
      ],
      "name": "A"
    },
    {
      "mesh": 2,
      "translation": [
        -120.0,
        0.0,
        0.0
      ],
      "rotation": [
        0.0,
        0.0,
        0.0,
        1.0
      ],
      "scale": [
        1.0,
        1.0,
        1.0
      ],
      "name": "B_2"
    },
    {
      "mesh": 3,
      "translation": [
        0.0,
        0.0,
        0.0
      ],
      "rotation": [
        0.0,
        0.0,
        0.0,
        1.0
      ],
      "scale": [
        1.0,
        1.0,
        1.0
      ],
      "name": "Y"
    },
    {
      "mesh": 4,
      "translation": [
        120.0,
        0.0,
        0.0
      ],
      "rotation": [
        0.0,
        0.0,
        0.0,
        1.0
      ],
      "scale": [
        1.0,
        1.0,
        1.0
      ],
      "name": "L"
    },
    {
      "mesh": 5,
      "translation": [
        240.0,
        0.0,
        0.0
      ],
      "rotation": [
        0.0,
        0.0,
        0.0,
        1.0
      ],
      "scale": [
        1.0,
        1.0,
        1.0
      ],
      "name": "O"
    },
    {
      "mesh": 6,
      "translation": [
        360.0,
        0.0,
        0.0
      ],
      "rotation": [
        0.0,
        0.0,
        0.0,
        1.0
      ],
      "scale": [
        1.0,
        1.0,
        1.0
      ],
      "name": "N"
    },
    {
      "translation": [
        0.0,
        0.0,
        0.0
      ],
      "rotation": [
        0.0,
        0.0,
        0.0,
        1.0
      ],
      "scale": [
        1.0,
        1.0,
        1.0
      ],
      "name": "Default light"
    }
  ],
  "meshes": [
    {
      "primitives": [
        {
          "attributes": {
            "POSITION": 1,
            "NORMAL": 2,
            "TEXCOORD_0": 3
          },
          "indices": 0,
          "mode": 4,
          "material": 0
        }
      ],
      "name": "B"
    },
    {
      "primitives": [
        {
          "attributes": {
            "POSITION": 5,
            "NORMAL": 6,
            "TEXCOORD_0": 7
          },
          "indices": 4,
          "mode": 4,
          "material": 1
        }
      ],
      "name": "A"
    },
    {
      "primitives": [
        {
          "attributes": {
            "POSITION": 9,
            "NORMAL": 10,
            "TEXCOORD_0": 11
          },
          "indices": 8,
          "mode": 4,
          "material": 2
        }
      ],
      "name": "B_2"
    },
    {
      "primitives": [
        {
          "attributes": {
            "POSITION": 13,
            "NORMAL": 14,
            "TEXCOORD_0": 15
          },
          "indices": 12,
          "mode": 4,
          "material": 3
        }
      ],
      "name": "Y"
    },
    {
      "primitives": [
        {
          "attributes": {
            "POSITION": 17,
            "NORMAL": 18,
            "TEXCOORD_0": 19
          },
          "indices": 16,
          "mode": 4,
          "material": 4
        }
      ],
      "name": "L"
    },
    {
      "primitives": [
        {
          "attributes": {
            "POSITION": 21,
            "NORMAL": 22,
            "TEXCOORD_0": 23
          },
          "indices": 20,
          "mode": 4,
          "material": 5
        }
      ],
      "name": "O"
    },
    {
      "primitives": [
        {
          "attributes": {
            "POSITION": 25,
            "NORMAL": 26,
            "TEXCOORD_0": 27
          },
          "indices": 24,
          "mode": 4,
          "material": 6
        }
      ],
      "name": "N"
    }
  ],
  "accessors": [
    {
      "bufferView": 0,
      "componentType": 5123,
      "count": 372,
      "type": "SCALAR",
      "name": "accessorIndices"
    },
    {
      "bufferView": 1,
      "componentType": 5126,
      "count": 372,
      "max": [
        50.0,
        100.0,
        50.0
      ],
      "min": [
        -50.0,
        0.0,
        -50.0
      ],
      "type": "VEC3",
      "name": "accessorPositions"
    },
    {
      "bufferView": 1,
      "byteOffset": 4464,
      "componentType": 5126,
      "count": 372,
      "type": "VEC3",
      "name": "accessorNormals"
    },
    {
      "bufferView": 2,
      "componentType": 5126,
      "count": 372,
      "type": "VEC2",
      "name": "accessorUVs"
    },
    {
      "bufferView": 0,
      "byteOffset": 744,
      "componentType": 5123,
      "count": 372,
      "type": "SCALAR",
      "name": "accessorIndices"
    },
    {
      "bufferView": 1,
      "byteOffset": 8928,
      "componentType": 5126,
      "count": 372,
      "max": [
        50.0,
        100.0,
        50.0
      ],
      "min": [
        -50.0,
        0.0,
        -50.0
      ],
      "type": "VEC3",
      "name": "accessorPositions"
    },
    {
      "bufferView": 1,
      "byteOffset": 13392,
      "componentType": 5126,
      "count": 372,
      "type": "VEC3",
      "name": "accessorNormals"
    },
    {
      "bufferView": 2,
      "byteOffset": 2976,
      "componentType": 5126,
      "count": 372,
      "type": "VEC2",
      "name": "accessorUVs"
    },
    {
      "bufferView": 0,
      "byteOffset": 1488,
      "componentType": 5123,
      "count": 372,
      "type": "SCALAR",
      "name": "accessorIndices"
    },
    {
      "bufferView": 1,
      "byteOffset": 17856,
      "componentType": 5126,
      "count": 372,
      "max": [
        50.0,
        100.0,
        50.0
      ],
      "min": [
        -50.0,
        0.0,
        -50.0
      ],
      "type": "VEC3",
      "name": "accessorPositions"
    },
    {
      "bufferView": 1,
      "byteOffset": 22320,
      "componentType": 5126,
      "count": 372,
      "type": "VEC3",
      "name": "accessorNormals"
    },
    {
      "bufferView": 2,
      "byteOffset": 5952,
      "componentType": 5126,
      "count": 372,
      "type": "VEC2",
      "name": "accessorUVs"
    },
    {
      "bufferView": 0,
      "byteOffset": 2232,
      "componentType": 5123,
      "count": 372,
      "type": "SCALAR",
      "name": "accessorIndices"
    },
    {
      "bufferView": 1,
      "byteOffset": 26784,
      "componentType": 5126,
      "count": 372,
      "max": [
        50.0,
        100.0,
        50.0
      ],
      "min": [
        -50.0,
        0.0,
        -50.0
      ],
      "type": "VEC3",
      "name": "accessorPositions"
    },
    {
      "bufferView": 1,
      "byteOffset": 31248,
      "componentType": 5126,
      "count": 372,
      "type": "VEC3",
      "name": "accessorNormals"
    },
    {
      "bufferView": 2,
      "byteOffset": 8928,
      "componentType": 5126,
      "count": 372,
      "type": "VEC2",
      "name": "accessorUVs"
    },
    {
      "bufferView": 0,
      "byteOffset": 2976,
      "componentType": 5123,
      "count": 372,
      "type": "SCALAR",
      "name": "accessorIndices"
    },
    {
      "bufferView": 1,
      "byteOffset": 35712,
      "componentType": 5126,
      "count": 372,
      "max": [
        50.0,
        100.0,
        50.0
      ],
      "min": [
        -50.0,
        0.0,
        -50.0
      ],
      "type": "VEC3",
      "name": "accessorPositions"
    },
    {
      "bufferView": 1,
      "byteOffset": 40176,
      "componentType": 5126,
      "count": 372,
      "type": "VEC3",
      "name": "accessorNormals"
    },
    {
      "bufferView": 2,
      "byteOffset": 11904,
      "componentType": 5126,
      "count": 372,
      "type": "VEC2",
      "name": "accessorUVs"
    },
    {
      "bufferView": 0,
      "byteOffset": 3720,
      "componentType": 5123,
      "count": 372,
      "type": "SCALAR",
      "name": "accessorIndices"
    },
    {
      "bufferView": 1,
      "byteOffset": 44640,
      "componentType": 5126,
      "count": 372,
      "max": [
        50.0,
        100.0,
        50.0
      ],
      "min": [
        -50.0,
        0.0,
        -50.0
      ],
      "type": "VEC3",
      "name": "accessorPositions"
    },
    {
      "bufferView": 1,
      "byteOffset": 49104,
      "componentType": 5126,
      "count": 372,
      "type": "VEC3",
      "name": "accessorNormals"
    },
    {
      "bufferView": 2,
      "byteOffset": 14880,
      "componentType": 5126,
      "count": 372,
      "type": "VEC2",
      "name": "accessorUVs"
    },
    {
      "bufferView": 0,
      "byteOffset": 4464,
      "componentType": 5123,
      "count": 372,
      "type": "SCALAR",
      "name": "accessorIndices"
    },
    {
      "bufferView": 1,
      "byteOffset": 53568,
      "componentType": 5126,
      "count": 372,
      "max": [
        50.0,
        100.0,
        50.0
      ],
      "min": [
        -50.0,
        0.0,
        -50.0
      ],
      "type": "VEC3",
      "name": "accessorPositions"
    },
    {
      "bufferView": 1,
      "byteOffset": 58032,
      "componentType": 5126,
      "count": 372,
      "type": "VEC3",
      "name": "accessorNormals"
    },
    {
      "bufferView": 2,
      "byteOffset": 17856,
      "componentType": 5126,
      "count": 372,
      "type": "VEC2",
      "name": "accessorUVs"
    }
  ],
  "bufferViews": [
    {
      "buffer": 0,
      "byteLength": 5208,
      "name": "bufferViewScalar"
    },
    {
      "buffer": 0,
      "byteOffset": 5208,
      "byteLength": 62496,
      "byteStride": 12,
      "name": "bufferViewFloatVec3"
    },
    {
      "buffer": 0,
      "byteOffset": 67704,
      "byteLength": 20832,
      "byteStride": 8,
      "name": "bufferViewFloatVec2"
    }
  ],
  "buffers": [
    {
      "uri": "CubesImageFormat.bin",
      "byteLength": 88536
    }
  ],
  "materials": [
    {
      "pbrMetallicRoughness": {
        "baseColorFactor": [
          1.0,
          1.0,
          1.0,
          1.0
        ],
        "baseColorTexture": {
          "index": 0,
          "texCoord": 0
        },
        "metallicFactor": 0.0,
        "roughnessFactor": 0.450053632
      },
      "emissiveFactor": [
        0.0,
        0.0,
        0.0
      ],
      "alphaMode": "OPAQUE",
      "name": "B"
    },
    {
      "pbrMetallicRoughness": {
        "baseColorFactor": [
          1.0,
          1.0,
          1.0,
          1.0
        ],
        "baseColorTexture": {
          "index": 1,
          "texCoord": 0
        },
        "metallicFactor": 0.0,
        "roughnessFactor": 0.450053632
      },
      "emissiveFactor": [
        0.0,
        0.0,
        0.0
      ],
      "alphaMode": "OPAQUE",
      "name": "A"
    },
    {
      "pbrMetallicRoughness": {
        "baseColorFactor": [
          1.0,
          1.0,
          1.0,
          1.0
        ],
        "baseColorTexture": {
          "index": 2,
          "texCoord": 0
        },
        "metallicFactor": 0.0,
        "roughnessFactor": 0.450053632
      },
      "emissiveFactor": [
        0.0,
        0.0,
        0.0
      ],
      "alphaMode": "OPAQUE",
      "name": "B_2"
    },
    {
      "pbrMetallicRoughness": {
        "baseColorFactor": [
          1.0,
          1.0,
          1.0,
          1.0
        ],
        "baseColorTexture": {
          "index": 3,
          "texCoord": 0
        },
        "metallicFactor": 0.0,
        "roughnessFactor": 0.450053632
      },
      "emissiveFactor": [
        0.0,
        0.0,
        0.0
      ],
      "alphaMode": "OPAQUE",
      "name": "Y"
    },
    {
      "pbrMetallicRoughness": {
        "baseColorFactor": [
          1.0,
          1.0,
          1.0,
          1.0
        ],
        "baseColorTexture": {
          "index": 4,
          "texCoord": 0
        },
        "metallicFactor": 0.0,
        "roughnessFactor": 0.450053632
      },
      "emissiveFactor": [
        0.0,
        0.0,
        0.0
      ],
      "alphaMode": "OPAQUE",
      "name": "L"
    },
    {
      "pbrMetallicRoughness": {
        "baseColorFactor": [
          1.0,
          1.0,
          1.0,
          1.0
        ],
        "baseColorTexture": {
          "index": 5,
          "texCoord": 0
        },
        "metallicFactor": 0.0,
        "roughnessFactor": 0.450053632
      },
      "emissiveFactor": [
        0.0,
        0.0,
        0.0
      ],
      "alphaMode": "OPAQUE",
      "name": "O"
    },
    {
      "pbrMetallicRoughness": {
        "baseColorFactor": [
          1.0,
          1.0,
          1.0,
          1.0
        ],
        "baseColorTexture": {
          "index": 6,
          "texCoord": 0
        },
        "metallicFactor": 0.0,
        "roughnessFactor": 0.450053632
      },
      "emissiveFactor": [
        0.0,
        0.0,
        0.0
      ],
      "alphaMode": "OPAQUE",
      "name": "N"
    }
  ],
  "textures": [
    {
      "sampler": 0,
      "source": 0,
      "name": "B_baseColor.jpg"
    },
    {
      "sampler": 0,
      "source": 1,
      "name": "A_baseColor.png"
    },
    {
      "sampler": 0,
      "source": 2,
      "name": "B_2_baseColor.jpg"
    },
    {
      "sampler": 0,
      "source": 3,
      "name": "Y_baseColor.png"
    },
    {
      "sampler": 0,
      "source": 4,
      "name": "L_baseColor.png"
    },
    {
      "sampler": 0,
      "source": 5,
      "name": "O_baseColor.png"
    },
    {
      "sampler": 0,
      "source": 6,
      "name": "N_baseColor.png"
    }
  ],
  "images": [
    {
      "uri": "./B_baseColor.jpg"
    },
    {
      "uri": "./A_baseColor.png"
    },
    {
      "uri": "./B_2_baseColor.jpg"
    },
    {
      "uri": "./Y_baseColor.png"
    },
    {
      "uri": "./L_baseColor.png"
    },
    {
      "uri": "./O_baseColor.png"
    },
    {
      "uri": "./N_baseColor.png"
    }
  ],
  "samplers": [
    {
      "magFilter": 9729,
      "minFilter": 9987,
      "wrapS": 10497,
      "wrapT": 10497
    }
  ]
}