{"asset":{"version":"2.0","generator":"babylon.js glTF exporter for 3dsmax 2019 v1.5.0"},"scene":0,"scenes":[{"nodes":[0],"extensions":{}}],"nodes":[{"name":"Box001"}],"accessors":[{"bufferView":0,"componentType":5126,"count":91,"max":[3.33333325],"min":[0.0],"type":"SCALAR","name":"accessorAnimationInput"},{"bufferView":1,"componentType":5126,"count":91,"type":"VEC3","name":"accessorAnimationPositions"}],"bufferViews":[{"buffer":0,"byteLength":364,"name":"bufferViewAnimationFloatScalar"},{"buffer":0,"byteOffset":364,"byteLength":1092,"name":"bufferViewAnimationFloatVec3"}],"buffers":[{"uri":"animation_position.bin","byteLength":1456}],"animations":[{"channels":[{"sampler":0,"target":{"node":0,"path":"translation"}}],"samplers":[{"input":0,"interpolation":"LINEAR","output":1}],"name":"All Animations"}]}