{"asset":{"version":"2.0","generator":"babylon.js glTF exporter for Maya 2018 vCustom.Build.Version"},"scene":0,"scenes":[{"nodes":[0,1],"extensions":{}}],"nodes":[{"name":"elf","extras":{"UDP3DSMAX":"MapChannel:1 = UVChannel_1&cr;&lf;babylonjs_noexport = False&cr;&lf;babylonjs_checkcollisions = False&cr;&lf;babylonjs_checkpickable = False&cr;&lf;babylonjs_optimizevertices = False&cr;&lf;babylonjs_showboundingbox = False&cr;&lf;babylonjs_showsubmeshesboundingbox = False&cr;&lf;babylonjs_autoanimate = True&cr;&lf;babylonjs_autoanimateloop = True&cr;&lf;babylonjs_autoanimate_from = 0,000000&cr;&lf;babylonjs_autoanimate_to = 140,000000&cr;&lf;babylonjs_alphaindex = 1000,000000&cr;&lf;babylonjs_mass = 0,000000&cr;&lf;babylonjs_friction = 0,200000&cr;&lf;babylonjs_restitution = 0,200000&cr;&lf;babylonjs_impostor = None&cr;&lf;babylonjs_sound_autoplay = True&cr;&lf;babylonjs_sound_loop = True&cr;&lf;babylonjs_sound_volume = 1,000000&cr;&lf;babylonjs_sound_playbackrate = 1,000000&cr;&lf;babylonjs_sound_distancemodel = linear&cr;&lf;babylonjs_sound_maxdistance = 100,000000&cr;&lf;babylonjs_sound_rolloff = 1,000000&cr;&lf;babylonjs_sound_refdistance = 1,000000&cr;&lf;babylonjs_sound_directional = False&cr;&lf;babylonjs_sound_coneinnerangle = 360,000000&cr;&lf;babylonjs_sound_coneouterangle = 360,000000&cr;&lf;babylonjs_sound_coneoutergain = 1,000000&cr;&lf;babylonjs_sound_filename = &cr;&lf;","MaxHandle":1}},{"children":[2,15,19],"name":"mixamorig:Hips"},{"children":[3],"name":"mixamorig:Spine"},{"children":[4],"name":"mixamorig:Spine1"},{"children":[5,7,11],"name":"mixamorig:Spine2"},{"children":[6],"name":"mixamorig:Neck"},{"name":"mixamorig:Head"},{"children":[8],"name":"mixamorig:LeftShoulder"},{"children":[9],"name":"mixamorig:LeftArm"},{"children":[10],"name":"mixamorig:LeftForeArm"},{"name":"mixamorig:LeftHand"},{"children":[12],"name":"mixamorig:RightShoulder"},{"children":[13],"name":"mixamorig:RightArm"},{"children":[14],"name":"mixamorig:RightForeArm"},{"name":"mixamorig:RightHand"},{"children":[16],"name":"mixamorig:LeftUpLeg"},{"children":[17],"name":"mixamorig:LeftLeg"},{"children":[18],"name":"mixamorig:LeftFoot"},{"name":"mixamorig:LeftToeBase"},{"children":[20],"name":"mixamorig:RightUpLeg"},{"children":[21],"name":"mixamorig:RightLeg"},{"children":[22],"name":"mixamorig:RightFoot"},{"name":"mixamorig:RightToeBase"}],"accessors":[{"bufferView":0,"componentType":5126,"count":22,"max":[0.7],"min":[0.0],"type":"SCALAR","name":"accessorAnimationInput"},{"bufferView":1,"componentType":5126,"count":22,"type":"VEC3","name":"accessorAnimationPositions"},{"bufferView":2,"componentType":5126,"count":22,"type":"VEC4","name":"accessorAnimationRotations"},{"bufferView":1,"byteOffset":264,"componentType":5126,"count":22,"type":"VEC3","name":"accessorAnimationScales"},{"bufferView":0,"byteOffset":88,"componentType":5126,"count":22,"max":[0.7],"min":[0.0],"type":"SCALAR","name":"accessorAnimationInput"},{"bufferView":1,"byteOffset":528,"componentType":5126,"count":22,"type":"VEC3","name":"accessorAnimationPositions"},{"bufferView":2,"byteOffset":352,"componentType":5126,"count":22,"type":"VEC4","name":"accessorAnimationRotations"},{"bufferView":1,"byteOffset":792,"componentType":5126,"count":22,"type":"VEC3","name":"accessorAnimationScales"},{"bufferView":0,"byteOffset":176,"componentType":5126,"count":22,"max":[0.7],"min":[0.0],"type":"SCALAR","name":"accessorAnimationInput"},{"bufferView":1,"byteOffset":1056,"componentType":5126,"count":22,"type":"VEC3","name":"accessorAnimationPositions"},{"bufferView":2,"byteOffset":704,"componentType":5126,"count":22,"type":"VEC4","name":"accessorAnimationRotations"},{"bufferView":1,"byteOffset":1320,"componentType":5126,"count":22,"type":"VEC3","name":"accessorAnimationScales"},{"bufferView":0,"byteOffset":264,"componentType":5126,"count":22,"max":[0.7],"min":[0.0],"type":"SCALAR","name":"accessorAnimationInput"},{"bufferView":1,"byteOffset":1584,"componentType":5126,"count":22,"type":"VEC3","name":"accessorAnimationPositions"},{"bufferView":2,"byteOffset":1056,"componentType":5126,"count":22,"type":"VEC4","name":"accessorAnimationRotations"},{"bufferView":1,"byteOffset":1848,"componentType":5126,"count":22,"type":"VEC3","name":"accessorAnimationScales"},{"bufferView":0,"byteOffset":352,"componentType":5126,"count":22,"max":[0.7],"min":[0.0],"type":"SCALAR","name":"accessorAnimationInput"},{"bufferView":1,"byteOffset":2112,"componentType":5126,"count":22,"type":"VEC3","name":"accessorAnimationPositions"},{"bufferView":2,"byteOffset":1408,"componentType":5126,"count":22,"type":"VEC4","name":"accessorAnimationRotations"},{"bufferView":1,"byteOffset":2376,"componentType":5126,"count":22,"type":"VEC3","name":"accessorAnimationScales"},{"bufferView":0,"byteOffset":440,"componentType":5126,"count":22,"max":[0.7],"min":[0.0],"type":"SCALAR","name":"accessorAnimationInput"},{"bufferView":1,"byteOffset":2640,"componentType":5126,"count":22,"type":"VEC3","name":"accessorAnimationPositions"},{"bufferView":2,"byteOffset":1760,"componentType":5126,"count":22,"type":"VEC4","name":"accessorAnimationRotations"},{"bufferView":1,"byteOffset":2904,"componentType":5126,"count":22,"type":"VEC3","name":"accessorAnimationScales"},{"bufferView":0,"byteOffset":528,"componentType":5126,"count":22,"max":[0.7],"min":[0.0],"type":"SCALAR","name":"accessorAnimationInput"},{"bufferView":1,"byteOffset":3168,"componentType":5126,"count":22,"type":"VEC3","name":"accessorAnimationPositions"},{"bufferView":2,"byteOffset":2112,"componentType":5126,"count":22,"type":"VEC4","name":"accessorAnimationRotations"},{"bufferView":1,"byteOffset":3432,"componentType":5126,"count":22,"type":"VEC3","name":"accessorAnimationScales"},{"bufferView":0,"byteOffset":616,"componentType":5126,"count":22,"max":[0.7],"min":[0.0],"type":"SCALAR","name":"accessorAnimationInput"},{"bufferView":1,"byteOffset":3696,"componentType":5126,"count":22,"type":"VEC3","name":"accessorAnimationPositions"},{"bufferView":2,"byteOffset":2464,"componentType":5126,"count":22,"type":"VEC4","name":"accessorAnimationRotations"},{"bufferView":1,"byteOffset":3960,"componentType":5126,"count":22,"type":"VEC3","name":"accessorAnimationScales"},{"bufferView":0,"byteOffset":704,"componentType":5126,"count":22,"max":[0.7],"min":[0.0],"type":"SCALAR","name":"accessorAnimationInput"},{"bufferView":1,"byteOffset":4224,"componentType":5126,"count":22,"type":"VEC3","name":"accessorAnimationPositions"},{"bufferView":2,"byteOffset":2816,"componentType":5126,"count":22,"type":"VEC4","name":"accessorAnimationRotations"},{"bufferView":1,"byteOffset":4488,"componentType":5126,"count":22,"type":"VEC3","name":"accessorAnimationScales"},{"bufferView":0,"byteOffset":792,"componentType":5126,"count":1,"max":[0.0],"min":[0.0],"type":"SCALAR","name":"accessorAnimationInput"},{"bufferView":1,"byteOffset":4752,"componentType":5126,"count":1,"type":"VEC3","name":"accessorAnimationPositions"},{"bufferView":2,"byteOffset":3168,"componentType":5126,"count":1,"type":"VEC4","name":"accessorAnimationRotations"},{"bufferView":1,"byteOffset":4764,"componentType":5126,"count":1,"type":"VEC3","name":"accessorAnimationScales"},{"bufferView":0,"byteOffset":796,"componentType":5126,"count":22,"max":[0.7],"min":[0.0],"type":"SCALAR","name":"accessorAnimationInput"},{"bufferView":1,"byteOffset":4776,"componentType":5126,"count":22,"type":"VEC3","name":"accessorAnimationPositions"},{"bufferView":2,"byteOffset":3184,"componentType":5126,"count":22,"type":"VEC4","name":"accessorAnimationRotations"},{"bufferView":1,"byteOffset":5040,"componentType":5126,"count":22,"type":"VEC3","name":"accessorAnimationScales"},{"bufferView":0,"byteOffset":884,"componentType":5126,"count":22,"max":[0.7],"min":[0.0],"type":"SCALAR","name":"accessorAnimationInput"},{"bufferView":1,"byteOffset":5304,"componentType":5126,"count":22,"type":"VEC3","name":"accessorAnimationPositions"},{"bufferView":2,"byteOffset":3536,"componentType":5126,"count":22,"type":"VEC4","name":"accessorAnimationRotations"},{"bufferView":1,"byteOffset":5568,"componentType":5126,"count":22,"type":"VEC3","name":"accessorAnimationScales"},{"bufferView":0,"byteOffset":972,"componentType":5126,"count":22,"max":[0.7],"min":[0.0],"type":"SCALAR","name":"accessorAnimationInput"},{"bufferView":1,"byteOffset":5832,"componentType":5126,"count":22,"type":"VEC3","name":"accessorAnimationPositions"},{"bufferView":2,"byteOffset":3888,"componentType":5126,"count":22,"type":"VEC4","name":"accessorAnimationRotations"},{"bufferView":1,"byteOffset":6096,"componentType":5126,"count":22,"type":"VEC3","name":"accessorAnimationScales"},{"bufferView":0,"byteOffset":1060,"componentType":5126,"count":1,"max":[0.0],"min":[0.0],"type":"SCALAR","name":"accessorAnimationInput"},{"bufferView":1,"byteOffset":6360,"componentType":5126,"count":1,"type":"VEC3","name":"accessorAnimationPositions"},{"bufferView":2,"byteOffset":4240,"componentType":5126,"count":1,"type":"VEC4","name":"accessorAnimationRotations"},{"bufferView":1,"byteOffset":6372,"componentType":5126,"count":1,"type":"VEC3","name":"accessorAnimationScales"},{"bufferView":0,"byteOffset":1064,"componentType":5126,"count":22,"max":[0.7],"min":[0.0],"type":"SCALAR","name":"accessorAnimationInput"},{"bufferView":1,"byteOffset":6384,"componentType":5126,"count":22,"type":"VEC3","name":"accessorAnimationPositions"},{"bufferView":2,"byteOffset":4256,"componentType":5126,"count":22,"type":"VEC4","name":"accessorAnimationRotations"},{"bufferView":1,"byteOffset":6648,"componentType":5126,"count":22,"type":"VEC3","name":"accessorAnimationScales"},{"bufferView":0,"byteOffset":1152,"componentType":5126,"count":22,"max":[0.7],"min":[0.0],"type":"SCALAR","name":"accessorAnimationInput"},{"bufferView":1,"byteOffset":6912,"componentType":5126,"count":22,"type":"VEC3","name":"accessorAnimationPositions"},{"bufferView":2,"byteOffset":4608,"componentType":5126,"count":22,"type":"VEC4","name":"accessorAnimationRotations"},{"bufferView":1,"byteOffset":7176,"componentType":5126,"count":22,"type":"VEC3","name":"accessorAnimationScales"},{"bufferView":0,"byteOffset":1240,"componentType":5126,"count":22,"max":[0.7],"min":[0.0],"type":"SCALAR","name":"accessorAnimationInput"},{"bufferView":1,"byteOffset":7440,"componentType":5126,"count":22,"type":"VEC3","name":"accessorAnimationPositions"},{"bufferView":2,"byteOffset":4960,"componentType":5126,"count":22,"type":"VEC4","name":"accessorAnimationRotations"},{"bufferView":1,"byteOffset":7704,"componentType":5126,"count":22,"type":"VEC3","name":"accessorAnimationScales"},{"bufferView":0,"byteOffset":1328,"componentType":5126,"count":22,"max":[0.7],"min":[0.0],"type":"SCALAR","name":"accessorAnimationInput"},{"bufferView":1,"byteOffset":7968,"componentType":5126,"count":22,"type":"VEC3","name":"accessorAnimationPositions"},{"bufferView":2,"byteOffset":5312,"componentType":5126,"count":22,"type":"VEC4","name":"accessorAnimationRotations"},{"bufferView":1,"byteOffset":8232,"componentType":5126,"count":22,"type":"VEC3","name":"accessorAnimationScales"},{"bufferView":0,"byteOffset":1416,"componentType":5126,"count":22,"max":[0.7],"min":[0.0],"type":"SCALAR","name":"accessorAnimationInput"},{"bufferView":1,"byteOffset":8496,"componentType":5126,"count":22,"type":"VEC3","name":"accessorAnimationPositions"},{"bufferView":2,"byteOffset":5664,"componentType":5126,"count":22,"type":"VEC4","name":"accessorAnimationRotations"},{"bufferView":1,"byteOffset":8760,"componentType":5126,"count":22,"type":"VEC3","name":"accessorAnimationScales"},{"bufferView":0,"byteOffset":1504,"componentType":5126,"count":22,"max":[0.7],"min":[0.0],"type":"SCALAR","name":"accessorAnimationInput"},{"bufferView":1,"byteOffset":9024,"componentType":5126,"count":22,"type":"VEC3","name":"accessorAnimationPositions"},{"bufferView":2,"byteOffset":6016,"componentType":5126,"count":22,"type":"VEC4","name":"accessorAnimationRotations"},{"bufferView":1,"byteOffset":9288,"componentType":5126,"count":22,"type":"VEC3","name":"accessorAnimationScales"},{"bufferView":0,"byteOffset":1592,"componentType":5126,"count":22,"max":[0.7],"min":[0.0],"type":"SCALAR","name":"accessorAnimationInput"},{"bufferView":1,"byteOffset":9552,"componentType":5126,"count":22,"type":"VEC3","name":"accessorAnimationPositions"},{"bufferView":2,"byteOffset":6368,"componentType":5126,"count":22,"type":"VEC4","name":"accessorAnimationRotations"},{"bufferView":1,"byteOffset":9816,"componentType":5126,"count":22,"type":"VEC3","name":"accessorAnimationScales"},{"bufferView":0,"byteOffset":1680,"componentType":5126,"count":22,"max":[0.7],"min":[0.0],"type":"SCALAR","name":"accessorAnimationInput"},{"bufferView":1,"byteOffset":10080,"componentType":5126,"count":22,"type":"VEC3","name":"accessorAnimationPositions"},{"bufferView":2,"byteOffset":6720,"componentType":5126,"count":22,"type":"VEC4","name":"accessorAnimationRotations"},{"bufferView":1,"byteOffset":10344,"componentType":5126,"count":22,"type":"VEC3","name":"accessorAnimationScales"}],"bufferViews":[{"buffer":0,"byteLength":1768,"name":"bufferViewAnimationFloatScalar"},{"buffer":0,"byteOffset":1768,"byteLength":10608,"name":"bufferViewAnimationFloatVec3"},{"buffer":0,"byteOffset":12376,"byteLength":7072,"name":"bufferViewAnimationFloatVec4"}],"buffers":[{"uri":"animation_run.bin","byteLength":19448}],"animations":[{"channels":[{"sampler":0,"target":{"node":1,"path":"translation"}},{"sampler":1,"target":{"node":1,"path":"rotation"}},{"sampler":2,"target":{"node":1,"path":"scale"}},{"sampler":3,"target":{"node":2,"path":"translation"}},{"sampler":4,"target":{"node":2,"path":"rotation"}},{"sampler":5,"target":{"node":2,"path":"scale"}},{"sampler":6,"target":{"node":3,"path":"translation"}},{"sampler":7,"target":{"node":3,"path":"rotation"}},{"sampler":8,"target":{"node":3,"path":"scale"}},{"sampler":9,"target":{"node":4,"path":"translation"}},{"sampler":10,"target":{"node":4,"path":"rotation"}},{"sampler":11,"target":{"node":4,"path":"scale"}},{"sampler":12,"target":{"node":5,"path":"translation"}},{"sampler":13,"target":{"node":5,"path":"rotation"}},{"sampler":14,"target":{"node":5,"path":"scale"}},{"sampler":15,"target":{"node":6,"path":"translation"}},{"sampler":16,"target":{"node":6,"path":"rotation"}},{"sampler":17,"target":{"node":6,"path":"scale"}},{"sampler":18,"target":{"node":7,"path":"translation"}},{"sampler":19,"target":{"node":7,"path":"rotation"}},{"sampler":20,"target":{"node":7,"path":"scale"}},{"sampler":21,"target":{"node":8,"path":"translation"}},{"sampler":22,"target":{"node":8,"path":"rotation"}},{"sampler":23,"target":{"node":8,"path":"scale"}},{"sampler":24,"target":{"node":9,"path":"translation"}},{"sampler":25,"target":{"node":9,"path":"rotation"}},{"sampler":26,"target":{"node":9,"path":"scale"}},{"sampler":27,"target":{"node":10,"path":"translation"}},{"sampler":28,"target":{"node":10,"path":"rotation"}},{"sampler":29,"target":{"node":10,"path":"scale"}},{"sampler":30,"target":{"node":11,"path":"translation"}},{"sampler":31,"target":{"node":11,"path":"rotation"}},{"sampler":32,"target":{"node":11,"path":"scale"}},{"sampler":33,"target":{"node":12,"path":"translation"}},{"sampler":34,"target":{"node":12,"path":"rotation"}},{"sampler":35,"target":{"node":12,"path":"scale"}},{"sampler":36,"target":{"node":13,"path":"translation"}},{"sampler":37,"target":{"node":13,"path":"rotation"}},{"sampler":38,"target":{"node":13,"path":"scale"}},{"sampler":39,"target":{"node":14,"path":"translation"}},{"sampler":40,"target":{"node":14,"path":"rotation"}},{"sampler":41,"target":{"node":14,"path":"scale"}},{"sampler":42,"target":{"node":15,"path":"translation"}},{"sampler":43,"target":{"node":15,"path":"rotation"}},{"sampler":44,"target":{"node":15,"path":"scale"}},{"sampler":45,"target":{"node":16,"path":"translation"}},{"sampler":46,"target":{"node":16,"path":"rotation"}},{"sampler":47,"target":{"node":16,"path":"scale"}},{"sampler":48,"target":{"node":17,"path":"translation"}},{"sampler":49,"target":{"node":17,"path":"rotation"}},{"sampler":50,"target":{"node":17,"path":"scale"}},{"sampler":51,"target":{"node":18,"path":"translation"}},{"sampler":52,"target":{"node":18,"path":"rotation"}},{"sampler":53,"target":{"node":18,"path":"scale"}},{"sampler":54,"target":{"node":19,"path":"translation"}},{"sampler":55,"target":{"node":19,"path":"rotation"}},{"sampler":56,"target":{"node":19,"path":"scale"}},{"sampler":57,"target":{"node":20,"path":"translation"}},{"sampler":58,"target":{"node":20,"path":"rotation"}},{"sampler":59,"target":{"node":20,"path":"scale"}},{"sampler":60,"target":{"node":21,"path":"translation"}},{"sampler":61,"target":{"node":21,"path":"rotation"}},{"sampler":62,"target":{"node":21,"path":"scale"}},{"sampler":63,"target":{"node":22,"path":"translation"}},{"sampler":64,"target":{"node":22,"path":"rotation"}},{"sampler":65,"target":{"node":22,"path":"scale"}}],"samplers":[{"input":0,"interpolation":"LINEAR","output":1},{"input":0,"interpolation":"LINEAR","output":2},{"input":0,"interpolation":"LINEAR","output":3},{"input":4,"interpolation":"LINEAR","output":5},{"input":4,"interpolation":"LINEAR","output":6},{"input":4,"interpolation":"LINEAR","output":7},{"input":8,"interpolation":"LINEAR","output":9},{"input":8,"interpolation":"LINEAR","output":10},{"input":8,"interpolation":"LINEAR","output":11},{"input":12,"interpolation":"LINEAR","output":13},{"input":12,"interpolation":"LINEAR","output":14},{"input":12,"interpolation":"LINEAR","output":15},{"input":16,"interpolation":"LINEAR","output":17},{"input":16,"interpolation":"LINEAR","output":18},{"input":16,"interpolation":"LINEAR","output":19},{"input":20,"interpolation":"LINEAR","output":21},{"input":20,"interpolation":"LINEAR","output":22},{"input":20,"interpolation":"LINEAR","output":23},{"input":24,"interpolation":"LINEAR","output":25},{"input":24,"interpolation":"LINEAR","output":26},{"input":24,"interpolation":"LINEAR","output":27},{"input":28,"interpolation":"LINEAR","output":29},{"input":28,"interpolation":"LINEAR","output":30},{"input":28,"interpolation":"LINEAR","output":31},{"input":32,"interpolation":"LINEAR","output":33},{"input":32,"interpolation":"LINEAR","output":34},{"input":32,"interpolation":"LINEAR","output":35},{"input":36,"interpolation":"LINEAR","output":37},{"input":36,"interpolation":"LINEAR","output":38},{"input":36,"interpolation":"LINEAR","output":39},{"input":40,"interpolation":"LINEAR","output":41},{"input":40,"interpolation":"LINEAR","output":42},{"input":40,"interpolation":"LINEAR","output":43},{"input":44,"interpolation":"LINEAR","output":45},{"input":44,"interpolation":"LINEAR","output":46},{"input":44,"interpolation":"LINEAR","output":47},{"input":48,"interpolation":"LINEAR","output":49},{"input":48,"interpolation":"LINEAR","output":50},{"input":48,"interpolation":"LINEAR","output":51},{"input":52,"interpolation":"LINEAR","output":53},{"input":52,"interpolation":"LINEAR","output":54},{"input":52,"interpolation":"LINEAR","output":55},{"input":56,"interpolation":"LINEAR","output":57},{"input":56,"interpolation":"LINEAR","output":58},{"input":56,"interpolation":"LINEAR","output":59},{"input":60,"interpolation":"LINEAR","output":61},{"input":60,"interpolation":"LINEAR","output":62},{"input":60,"interpolation":"LINEAR","output":63},{"input":64,"interpolation":"LINEAR","output":65},{"input":64,"interpolation":"LINEAR","output":66},{"input":64,"interpolation":"LINEAR","output":67},{"input":68,"interpolation":"LINEAR","output":69},{"input":68,"interpolation":"LINEAR","output":70},{"input":68,"interpolation":"LINEAR","output":71},{"input":72,"interpolation":"LINEAR","output":73},{"input":72,"interpolation":"LINEAR","output":74},{"input":72,"interpolation":"LINEAR","output":75},{"input":76,"interpolation":"LINEAR","output":77},{"input":76,"interpolation":"LINEAR","output":78},{"input":76,"interpolation":"LINEAR","output":79},{"input":80,"interpolation":"LINEAR","output":81},{"input":80,"interpolation":"LINEAR","output":82},{"input":80,"interpolation":"LINEAR","output":83},{"input":84,"interpolation":"LINEAR","output":85},{"input":84,"interpolation":"LINEAR","output":86},{"input":84,"interpolation":"LINEAR","output":87}],"name":"Run"}]}