{"asset":{"version":"2.0","generator":"babylon.js glTF exporter for Maya 2018 vCustom.Build.Version"},"scene":0,"scenes":[{"nodes":[0,1,2],"extensions":{}}],"nodes":[{"skin":0,"mesh":0,"translation":[0.0,0.0,0.0],"rotation":[-0.7071067,0.0,0.0,0.7071068],"scale":[100.0,100.0,100.0],"name":"elf","extras":{"UDP3DSMAX":"MapChannel:1 = UVChannel_1&cr;&lf;babylonjs_noexport = False&cr;&lf;babylonjs_checkcollisions = False&cr;&lf;babylonjs_checkpickable = False&cr;&lf;babylonjs_optimizevertices = False&cr;&lf;babylonjs_showboundingbox = False&cr;&lf;babylonjs_showsubmeshesboundingbox = False&cr;&lf;babylonjs_autoanimate = True&cr;&lf;babylonjs_autoanimateloop = True&cr;&lf;babylonjs_autoanimate_from = 0,000000&cr;&lf;babylonjs_autoanimate_to = 140,000000&cr;&lf;babylonjs_alphaindex = 1000,000000&cr;&lf;babylonjs_mass = 0,000000&cr;&lf;babylonjs_friction = 0,200000&cr;&lf;babylonjs_restitution = 0,200000&cr;&lf;babylonjs_impostor = None&cr;&lf;babylonjs_sound_autoplay = True&cr;&lf;babylonjs_sound_loop = True&cr;&lf;babylonjs_sound_volume = 1,000000&cr;&lf;babylonjs_sound_playbackrate = 1,000000&cr;&lf;babylonjs_sound_distancemodel = linear&cr;&lf;babylonjs_sound_maxdistance = 100,000000&cr;&lf;babylonjs_sound_rolloff = 1,000000&cr;&lf;babylonjs_sound_refdistance = 1,000000&cr;&lf;babylonjs_sound_directional = False&cr;&lf;babylonjs_sound_coneinnerangle = 360,000000&cr;&lf;babylonjs_sound_coneouterangle = 360,000000&cr;&lf;babylonjs_sound_coneoutergain = 1,000000&cr;&lf;babylonjs_sound_filename = &cr;&lf;","MaxHandle":1}},{"translation":[0.0,0.0,0.0],"rotation":[0.0,0.0,0.0,1.0],"scale":[1.0,1.0,1.0],"name":"Default light"},{"children":[3,16,20],"translation":[0.0,0.0,0.0],"rotation":[5.28672244E-05,-0.000109512388,0.003001453,0.99999547],"scale":[100.000015,100.0,100.000008],"name":"mixamorig:Hips"},{"children":[4],"translation":[5.820766E-11,0.0885192454,0.009698692],"rotation":[0.185690448,0.09258603,-0.00342496065,0.9782306],"scale":[1.00000012,0.9999999,1.00000012],"name":"mixamorig:Spine"},{"children":[5],"translation":[-4.656613E-10,0.103890412,3.7252903E-09],"rotation":[0.009984253,0.0270467959,0.0036067795,0.9995778],"scale":[0.9999999,1.0,1.00000012],"name":"mixamorig:Spine1"},{"children":[6,8,12],"translation":[2.79396772E-09,0.118731871,1.49011612E-08],"rotation":[0.0102881454,0.0266801771,0.00347159221,0.9995851],"scale":[1.99999988,2.0,2.0],"name":"mixamorig:Spine2"},{"children":[7],"translation":[-2.79396772E-09,0.133573279,-8.568168E-08],"rotation":[-0.118998326,-0.0134508992,0.0135794068,0.9927105],"scale":[0.99999994,1.00000012,1.00000024],"name":"mixamorig:Neck"},{"translation":[-1.86264515E-09,0.01774311,-0.00704801828],"rotation":[-0.212844148,0.0306223128,-0.04075867,0.9757553],"scale":[0.99999994,1.0,1.0],"name":"mixamorig:Head"},{"children":[9],"translation":[0.0503429174,0.1190785,0.00220307335],"rotation":[-0.5887417,-0.396413326,0.5849218,-0.3925636],"scale":[1.00000012,0.99999994,1.00000024],"name":"mixamorig:LeftShoulder"},{"children":[10],"translation":[0.0,0.10019695,-1.49011612E-08],"rotation":[0.308696181,0.2402508,-0.2622847,0.8821525],"scale":[1.0,1.00000012,1.0],"name":"mixamorig:LeftArm"},{"children":[11],"translation":[0.0,0.123613521,-1.1920929E-07],"rotation":[0.131884456,-0.4505429,0.501064539,0.727015734],"scale":[1.00000012,1.0,0.9999999],"name":"mixamorig:LeftForeArm"},{"translation":[-7.450581E-09,0.26929006,0.0],"rotation":[0.0,0.0,0.0,1.0],"scale":[0.9999997,1.0,0.99999994],"name":"mixamorig:LeftHand"},{"children":[13],"translation":[-0.05034293,0.118945375,0.0009875409],"rotation":[-0.6664553,0.323910177,-0.533480763,-0.4078208],"scale":[1.0,0.9999999,1.0],"name":"mixamorig:RightShoulder"},{"children":[14],"translation":[1.86264515E-08,0.10019701,1.1920929E-07],"rotation":[0.06849574,0.165744558,-0.2300469,0.956512153],"scale":[1.0,1.0,1.00000012],"name":"mixamorig:RightArm"},{"children":[15],"translation":[5.21540642E-08,0.123348996,1.1920929E-07],"rotation":[0.189166367,0.4400134,-0.7149878,0.50931],"scale":[1.00000024,1.0,1.0],"name":"mixamorig:RightForeArm"},{"translation":[-1.11758709E-08,0.2730465,0.0],"rotation":[0.0,0.0,0.0,1.0],"scale":[1.0,1.00000012,1.0],"name":"mixamorig:RightHand"},{"children":[17],"translation":[0.11940781,-0.04893059,-0.01129806],"rotation":[0.113386542,0.498319358,0.8512163,-0.119382225],"scale":[1.00000012,1.0,1.00000012],"name":"mixamorig:LeftUpLeg"},{"children":[18],"translation":[4.47034836E-08,0.3323332,-1.11758709E-08],"rotation":[-0.901211858,0.00371556752,-0.00148708571,0.433360338],"scale":[0.9999999,0.999999762,0.999999762],"name":"mixamorig:LeftLeg"},{"children":[19],"translation":[2.23517418E-08,0.237430319,-2.98023224E-08],"rotation":[0.6426319,-0.00115082762,0.11816328,0.757007539],"scale":[1.00000012,1.00000012,1.0],"name":"mixamorig:LeftFoot"},{"translation":[-3.7252903E-08,0.160369456,-1.11758709E-08],"rotation":[0.361697048,-0.247965485,0.06710727,0.8962059],"scale":[1.0,1.0,0.9999999],"name":"mixamorig:LeftToeBase"},{"children":[21],"translation":[-0.119407788,-0.04893066,-0.007106544],"rotation":[0.0173175316,0.164133862,0.986245334,0.008961391],"scale":[1.00000012,0.9999999,0.99999994],"name":"mixamorig:RightUpLeg"},{"children":[22],"translation":[-1.49011612E-08,0.332580239,-1.86264515E-09],"rotation":[-0.401449978,-0.0668495,0.02438606,0.913112462],"scale":[1.00000012,0.9999998,0.9999997],"name":"mixamorig:RightLeg"},{"children":[23],"translation":[-2.98023224E-08,0.2379325,4.47034836E-08],"rotation":[0.738860548,0.07751675,0.0190268848,0.66911453],"scale":[1.00000012,1.00000012,0.99999994],"name":"mixamorig:RightFoot"},{"translation":[0.0,0.15503408,-1.1920929E-07],"rotation":[0.406660676,0.229122579,-0.04842944,0.883054137],"scale":[0.99999994,0.99999994,1.0],"name":"mixamorig:RightToeBase"}],"meshes":[{"primitives":[{"attributes":{"POSITION":1,"TANGENT":2,"NORMAL":3,"TEXCOORD_0":4,"JOINTS_0":5,"WEIGHTS_0":6},"indices":0,"mode":4,"material":0}],"name":"elf"}],"accessors":[{"bufferView":0,"componentType":5123,"count":6936,"type":"SCALAR","name":"accessorIndices"},{"bufferView":1,"componentType":5126,"count":2187,"max":[0.91909647,1.4053849,2.1949594],"min":[-1.15642047,-1.17157745,-0.6928541],"type":"VEC3","name":"accessorPositions"},{"bufferView":2,"componentType":5126,"count":2187,"type":"VEC4","name":"accessorTangents"},{"bufferView":1,"byteOffset":26244,"componentType":5126,"count":2187,"type":"VEC3","name":"accessorNormals"},{"bufferView":3,"componentType":5126,"count":2187,"type":"VEC2","name":"accessorUVs"},{"bufferView":4,"componentType":5123,"count":2187,"type":"VEC4","name":"accessorJoints"},{"bufferView":2,"byteOffset":34992,"componentType":5126,"count":2187,"type":"VEC4","name":"accessorWeights"},{"bufferView":5,"componentType":5126,"count":22,"type":"MAT4","name":"accessorInverseBindMatrices"}],"bufferViews":[{"buffer":0,"byteLength":13872,"name":"bufferViewScalar"},{"buffer":0,"byteOffset":13872,"byteLength":52488,"byteStride":12,"name":"bufferViewFloatVec3"},{"buffer":0,"byteOffset":66360,"byteLength":69984,"byteStride":16,"name":"bufferViewFloatVec4"},{"buffer":0,"byteOffset":136344,"byteLength":17496,"byteStride":8,"name":"bufferViewFloatVec2"},{"buffer":0,"byteOffset":153840,"byteLength":17496,"byteStride":8,"name":"bufferViewUnsignedShortVec4"},{"buffer":0,"byteOffset":171336,"byteLength":1408,"name":"bufferViewFloatMat4"}],"buffers":[{"uri":"geometry.bin","byteLength":172744}],"materials":[{"pbrMetallicRoughness":{"baseColorFactor":[0.294,0.294,0.294,1.0],"metallicFactor":0.0,"roughnessFactor":0.450053632},"emissiveFactor":[0.0,0.0,0.0],"alphaMode":"OPAQUE","name":"FBXASC0481FBXASC032FBXASC045FBXASC032Default"}],"skins":[{"inverseBindMatrices":7,"skeleton":2,"joints":[2,3,4,5,6,7,8,9,10,11,12,13,14,15,16,17,18,19,20,21,22,23],"name":"skeleton #0"}]}