{"asset":{"version":"2.0","generator":"Babylon2Gltf2017","copyright":"2017 (c) BabylonJS"},"scene":0,"scenes":[{"nodes":[1]}],"nodes":[{"mesh":0,"translation":[0.0,0.0,0.0],"rotation":[0.707106769,0.0,0.0,0.707106769],"scale":[100.0,100.0,100.0],"name":"Mesh"},{"children":[0],"translation":[0.0,0.0,0.0],"rotation":[0.0,1.0,0.0,-4.371139E-08],"scale":[1.0,1.0,-1.0],"name":"root"}],"meshes":[{"primitives":[{"attributes":{"POSITION":1,"NORMAL":2},"indices":0}],"name":"Mesh"}],"accessors":[{"bufferView":0,"componentType":5123,"count":3,"type":"SCALAR","name":"accessorIndices"},{"bufferView":1,"componentType":5126,"count":3,"max":[0.6666666,8.940697E-08,0.3333333],"min":[-0.3333333,-5.96046448E-08,-0.6666667],"type":"VEC3","name":"accessorPositions"},{"bufferView":1,"byteOffset":36,"componentType":5126,"count":3,"type":"VEC3","name":"accessorNormals"}],"bufferViews":[{"buffer":0,"byteLength":8,"name":"bufferViewScalar"},{"buffer":0,"byteOffset":8,"byteLength":72,"byteStride":12,"name":"bufferViewFloatVec3"}],"buffers":[{"uri":"SimpleTriangle.bin","byteLength":80}]}