{
	"asset": {
		"version": "2.0",
		"generator": "Babylon2Gltf2017",
		"copyright": "2017 (c) BabylonJS"
	},
	"scene": 0,
	"scenes": [
		{
			"nodes": [
				0
			]
		}
	],
	"nodes": [
		{
			"mesh": 0,
			"translation": [
				0,
				0,
				0
			],
			"rotation": [
				-0.707106769,
				0,
				0,
				0.707106769
			],
			"scale": [
				100,
				100,
				100
			],
			"name": "Mesh"
		}
	],
	"meshes": [
		{
			"primitives": [
				{
					"attributes": {
						"POSITION": 1,
						"NORMAL": 2,
						"TEXCOORD_0": 3
					},
					"indices": 0,
					"mode": 4,
					"material": 0
				}
			],
			"name": "Mesh"
		}
	],
	"accessors": [
		{
			"bufferView": 0,
			"componentType": 5123,
			"count": 3,
			"type": "SCALAR",
			"name": "accessorIndices"
		},
		{
			"bufferView": 1,
			"componentType": 5126,
			"count": 3,
			"max": [
				0.6666666,
				8.940697e-8,
				0.6666667
			],
			"min": [
				-0.3333333,
				-5.96046448e-8,
				-0.3333333
			],
			"type": "VEC3",
			"name": "accessorPositions"
		},
		{
			"bufferView": 1,
			"byteOffset": 36,
			"componentType": 5126,
			"count": 3,
			"type": "VEC3",
			"name": "accessorNormals"
		},
		{
			"bufferView": 2,
			"componentType": 5126,
			"count": 3,
			"type": "VEC2",
			"name": "accessorUVs"
		}
	],
	"bufferViews": [
		{
			"buffer": 0,
			"byteLength": 8,
			"name": "bufferViewScalar"
		},
		{
			"buffer": 0,
			"byteOffset": 8,
			"byteLength": 72,
			"byteStride": 12,
			"name": "bufferViewFloatVec3"
		},
		{
			"buffer": 0,
			"byteOffset": 80,
			"byteLength": 24,
			"byteStride": 8,
			"name": "bufferViewFloatVec2"
		}
	],
	"buffers": [
		{
			"uri": "SimpleTriangle.bin",
			"byteLength": 104
		}
	],
	"materials": [
		{
			"pbrMetallicRoughness": {
				"baseColorFactor": [
					0.612745166,
					0.612745166,
					0.612745166,
					1
				],
				"metallicFactor": 0,
				"roughnessFactor": 0.9
			},
			"emissiveFactor": [
				0,
				0,
				0
			],
			"alphaMode": "OPAQUE",
			"name": "FBXASC0482FBXASC032FBXASC045FBXASC032Default"
		}
	]
}