{
	"asset": {
		"version": "2.0",
		"generator": "babylon.js glTF exporter for maya 2018 v1.0.0",
		"copyright": "2017 (c) BabylonJS"
	},
	"scene": 0,
	"scenes": [
		{
			"nodes": [
				0,
				1,
				2,
				3,
				4,
				5
			]
		}
	],
	"nodes": [
		{
			"mesh": 0,
			"translation": [
				0,
				7.199454,
				-4.04259729
			],
			"rotation": [
				0,
				0,
				0,
				1
			],
			"scale": [
				10,
				10,
				10
			],
			"name": "YetiBody_low"
		},
		{
			"mesh": 1,
			"translation": [
				0,
				7.199454,
				-4.04259729
			],
			"rotation": [
				0,
				0,
				0,
				1
			],
			"scale": [
				10,
				10,
				10
			],
			"name": "YetiEyes_low"
		},
		{
			"mesh": 2,
			"translation": [
				0,
				7.199454,
				-4.04259729
			],
			"rotation": [
				0,
				0,
				0,
				1
			],
			"scale": [
				10,
				10,
				10
			],
			"name": "YetiTeeth_low"
		},
		{
			"mesh": 3,
			"translation": [
				0,
				7.199454,
				-4.04259729
			],
			"rotation": [
				0,
				0,
				0,
				1
			],
			"scale": [
				10,
				10,
				10
			],
			"name": "YetiAntlers_low"
		},
		{
			"mesh": 4,
			"translation": [
				0,
				7.199454,
				-4.04259729
			],
			"rotation": [
				0,
				0,
				0,
				1
			],
			"scale": [
				10,
				10,
				10
			],
			"name": "YetiBeard_low"
		},
		{
			"mesh": 5,
			"translation": [
				0,
				7.199454,
				-4.04259729
			],
			"rotation": [
				0,
				0,
				0,
				1
			],
			"scale": [
				10,
				10,
				10
			],
			"name": "YetiFur_low"
		}
	],
	"meshes": [
		{
			"primitives": [
				{
					"attributes": {
						"POSITION": 1,
						"NORMAL": 2,
						"COLOR_0": 3,
						"TEXCOORD_0": 4
					},
					"indices": 0,
					"mode": 4,
					"material": 0
				}
			],
			"name": "YetiBody_low"
		},
		{
			"primitives": [
				{
					"attributes": {
						"POSITION": 6,
						"NORMAL": 7,
						"COLOR_0": 8,
						"TEXCOORD_0": 9
					},
					"indices": 5,
					"mode": 4,
					"material": 0
				}
			],
			"name": "YetiEyes_low"
		},
		{
			"primitives": [
				{
					"attributes": {
						"POSITION": 11,
						"NORMAL": 12,
						"COLOR_0": 13,
						"TEXCOORD_0": 14
					},
					"indices": 10,
					"mode": 4,
					"material": 0
				}
			],
			"name": "YetiTeeth_low"
		},
		{
			"primitives": [
				{
					"attributes": {
						"POSITION": 16,
						"NORMAL": 17,
						"COLOR_0": 18,
						"TEXCOORD_0": 19
					},
					"indices": 15,
					"mode": 4,
					"material": 0
				}
			],
			"name": "YetiAntlers_low"
		},
		{
			"primitives": [
				{
					"attributes": {
						"POSITION": 21,
						"NORMAL": 22,
						"TEXCOORD_0": 23
					},
					"indices": 20,
					"mode": 4,
					"material": 0
				}
			],
			"name": "YetiBeard_low"
		},
		{
			"primitives": [
				{
					"attributes": {
						"POSITION": 25,
						"NORMAL": 26,
						"TEXCOORD_0": 27
					},
					"indices": 24,
					"mode": 4,
					"material": 0
				}
			],
			"name": "YetiFur_low"
		}
	],
	"accessors": [
		{
			"bufferView": 0,
			"componentType": 5123,
			"count": 70428,
			"type": "SCALAR",
			"name": "accessorIndices"
		},
		{
			"bufferView": 1,
			"componentType": 5126,
			"count": 12776,
			"max": [
				1.31679749,
				1.13115168,
				0.8399024
			],
			"min": [
				-1.31683755,
				-0.7193841,
				-0.105989538
			],
			"type": "VEC3",
			"name": "accessorPositions"
		},
		{
			"bufferView": 1,
			"byteOffset": 153312,
			"componentType": 5126,
			"count": 12776,
			"type": "VEC3",
			"name": "accessorNormals"
		},
		{
			"bufferView": 2,
			"componentType": 5126,
			"count": 12776,
			"type": "VEC4",
			"name": "accessorColors"
		},
		{
			"bufferView": 3,
			"componentType": 5126,
			"count": 12776,
			"type": "VEC2",
			"name": "accessorUVs"
		},
		{
			"bufferView": 0,
			"byteOffset": 140856,
			"componentType": 5123,
			"count": 4608,
			"type": "SCALAR",
			"name": "accessorIndices"
		},
		{
			"bufferView": 1,
			"byteOffset": 306624,
			"componentType": 5126,
			"count": 836,
			"max": [
				0.157992825,
				1.02391982,
				0.621659458
			],
			"min": [
				-0.157992825,
				0.8771977,
				0.47493732
			],
			"type": "VEC3",
			"name": "accessorPositions"
		},
		{
			"bufferView": 1,
			"byteOffset": 316656,
			"componentType": 5126,
			"count": 836,
			"type": "VEC3",
			"name": "accessorNormals"
		},
		{
			"bufferView": 2,
			"byteOffset": 204416,
			"componentType": 5126,
			"count": 836,
			"type": "VEC4",
			"name": "accessorColors"
		},
		{
			"bufferView": 3,
			"byteOffset": 102208,
			"componentType": 5126,
			"count": 836,
			"type": "VEC2",
			"name": "accessorUVs"
		},
		{
			"bufferView": 0,
			"byteOffset": 150072,
			"componentType": 5123,
			"count": 4608,
			"type": "SCALAR",
			"name": "accessorIndices"
		},
		{
			"bufferView": 1,
			"byteOffset": 326688,
			"componentType": 5126,
			"count": 912,
			"max": [
				0.301773071,
				0.8932129,
				0.6957844
			],
			"min": [
				-0.3017731,
				0.7544793,
				0.4961177
			],
			"type": "VEC3",
			"name": "accessorPositions"
		},
		{
			"bufferView": 1,
			"byteOffset": 337632,
			"componentType": 5126,
			"count": 912,
			"type": "VEC3",
			"name": "accessorNormals"
		},
		{
			"bufferView": 2,
			"byteOffset": 217792,
			"componentType": 5126,
			"count": 912,
			"type": "VEC4",
			"name": "accessorColors"
		},
		{
			"bufferView": 3,
			"byteOffset": 108896,
			"componentType": 5126,
			"count": 912,
			"type": "VEC2",
			"name": "accessorUVs"
		},
		{
			"bufferView": 0,
			"byteOffset": 159288,
			"componentType": 5123,
			"count": 11844,
			"type": "SCALAR",
			"name": "accessorIndices"
		},
		{
			"bufferView": 1,
			"byteOffset": 348576,
			"componentType": 5126,
			"count": 2365,
			"max": [
				0.458143055,
				1.69222546,
				0.540379167
			],
			"min": [
				-0.458340675,
				0.9556979,
				-0.0402793065
			],
			"type": "VEC3",
			"name": "accessorPositions"
		},
		{
			"bufferView": 1,
			"byteOffset": 376956,
			"componentType": 5126,
			"count": 2365,
			"type": "VEC3",
			"name": "accessorNormals"
		},
		{
			"bufferView": 2,
			"byteOffset": 232384,
			"componentType": 5126,
			"count": 2365,
			"type": "VEC4",
			"name": "accessorColors"
		},
		{
			"bufferView": 3,
			"byteOffset": 116192,
			"componentType": 5126,
			"count": 2365,
			"type": "VEC2",
			"name": "accessorUVs"
		},
		{
			"bufferView": 0,
			"byteOffset": 182976,
			"componentType": 5123,
			"count": 3210,
			"type": "SCALAR",
			"name": "accessorIndices"
		},
		{
			"bufferView": 1,
			"byteOffset": 405336,
			"componentType": 5126,
			"count": 613,
			"max": [
				0.4258556,
				0.7958578,
				0.929508746
			],
			"min": [
				-0.4258639,
				0.181128934,
				0.496569
			],
			"type": "VEC3",
			"name": "accessorPositions"
		},
		{
			"bufferView": 1,
			"byteOffset": 412692,
			"componentType": 5126,
			"count": 613,
			"type": "VEC3",
			"name": "accessorNormals"
		},
		{
			"bufferView": 3,
			"byteOffset": 135112,
			"componentType": 5126,
			"count": 613,
			"type": "VEC2",
			"name": "accessorUVs"
		},
		{
			"bufferView": 0,
			"byteOffset": 189396,
			"componentType": 5123,
			"count": 10740,
			"type": "SCALAR",
			"name": "accessorIndices"
		},
		{
			"bufferView": 1,
			"byteOffset": 420048,
			"componentType": 5126,
			"count": 1974,
			"max": [
				1.16361845,
				0.411927879,
				0.4018303
			],
			"min": [
				-1.16361761,
				-0.105792642,
				-0.006086731
			],
			"type": "VEC3",
			"name": "accessorPositions"
		},
		{
			"bufferView": 1,
			"byteOffset": 443736,
			"componentType": 5126,
			"count": 1974,
			"type": "VEC3",
			"name": "accessorNormals"
		},
		{
			"bufferView": 3,
			"byteOffset": 140016,
			"componentType": 5126,
			"count": 1974,
			"type": "VEC2",
			"name": "accessorUVs"
		}
	],
	"bufferViews": [
		{
			"buffer": 0,
			"byteLength": 210876,
			"name": "bufferViewScalar"
		},
		{
			"buffer": 0,
			"byteOffset": 210876,
			"byteLength": 467424,
			"byteStride": 12,
			"name": "bufferViewFloatVec3"
		},
		{
			"buffer": 0,
			"byteOffset": 678300,
			"byteLength": 270224,
			"byteStride": 16,
			"name": "bufferViewFloatVec4"
		},
		{
			"buffer": 0,
			"byteOffset": 948524,
			"byteLength": 155808,
			"byteStride": 8,
			"name": "bufferViewFloatVec2"
		}
	],
	"buffers": [
		{
			"uri": "Yeti.bin",
			"byteLength": 1104332
		}
	],
	"materials": [
		{
			"pbrMetallicRoughness": {
				"baseColorFactor": [
					1,
					1,
					1,
					1
				],
				"baseColorTexture": {
					"index": 3
				},
				"metallicFactor": 1,
				"roughnessFactor": 1,
				"metallicRoughnessTexture": {
					"index": 4
				}
			},
			"normalTexture": {
				"index": 0
			},
			"occlusionTexture": {
				"index": 1
			},
			"emissiveTexture": {
				"index": 2
			},
			"emissiveFactor": [
				1,
				1,
				1
			],
			"alphaMode": "OPAQUE",
			"name": "Yeti_PBR"
		}
	],
	"textures": [
		{
			"sampler": 0,
			"source": 0,
			"name": "Yeti_NewUVs_YetiMat_Normal.png"
		},
		{
			"sampler": 1,
			"source": 1,
			"name": "Yeti_NewUVs_YetiMat_ORM.png"
		},
		{
			"sampler": 2,
			"source": 2,
			"name": "Yeti_NewUVs_YetiMat_Emission.png"
		},
		{
			"sampler": 3,
			"source": 3,
			"name": "Yeti_NewUVs_YetiMat_BaseColor.png"
		},
		{
			"sampler": 4,
			"source": 4,
			"name": "Yeti_NewUVs_YetiMat_ORM.png"
		}
	],
	"images": [
		{
			"uri": "Yeti_NewUVs_YetiMat_Normal.png"
		},
		{
			"uri": "Yeti_NewUVs_YetiMat_ORM.png"
		},
		{
			"uri": "Yeti_NewUVs_YetiMat_Emission.png"
		},
		{
			"uri": "Yeti_NewUVs_YetiMat_BaseColor.png"
		},
		{
			"uri": "Yeti_NewUVs_YetiMat_ORM.png"
		}
	],
	"samplers": [
		{
			"magFilter": 9729,
			"minFilter": 9987,
			"wrapS": 10497,
			"wrapT": 10497
		},
		{
			"magFilter": 9729,
			"minFilter": 9987,
			"wrapS": 10497,
			"wrapT": 10497
		},
		{
			"magFilter": 9729,
			"minFilter": 9987,
			"wrapS": 10497,
			"wrapT": 10497
		},
		{
			"magFilter": 9729,
			"minFilter": 9987,
			"wrapS": 10497,
			"wrapT": 10497
		},
		{
			"magFilter": 9729,
			"minFilter": 9987,
			"wrapS": 10497,
			"wrapT": 10497
		}
	]
}