{"asset":{"version":"2.0","generator":"babylon.js glTF exporter for 3dsmax 2019 v1.5.0"},"scene":0,"scenes":[{"nodes":[0,2,19],"extensions":{}}],"nodes":[{"children":[1],"name":"WorldOrigin"},{"name":"UserCamera.Target"},{"children":[3,5,6,8,10,11,13,15,17],"name":"Cameras"},{"children":[4],"name":"AnimatedCameraTarget.Target"},{"name":"Box006"},{"name":"AnimatedFreeCamera.FakeTarget"},{"children":[7],"name":"CameraAnimatedTarget.Target"},{"name":"Box001"},{"children":[9],"name":"AnimatedMesh"},{"name":"CameraTargetAnimatedMesh.Target"},{"name":"UserCamera"},{"children":[12],"name":"CameraTargetAnimatedMesh"},{"name":"Pyramid003"},{"children":[14],"name":"CameraAnimatedTarget"},{"name":"Pyramid005"},{"children":[16],"name":"AnimatedFreeCamera"},{"name":"Pyramid001"},{"children":[18],"name":"AnimatedCameraTarget"},{"name":"Pyramid002"},{"children":[20,22,24,26,27,29,30,31,32,34,36,38,40,42,44,46],"name":"Lights"},{"children":[21],"name":"AnimatedSpotLightTarget.Target"},{"name":"Box004"},{"children":[23],"name":"DirectionalLightAnimatedTarget.Target"},{"name":"Box002"},{"children":[25],"name":"SpotLightAnimatedTarget.Target"},{"name":"Box003"},{"name":"AnimatedFreeSpotLight.FakeTarget"},{"children":[28],"name":"AnimatedDirectionalLightTarget.Target"},{"name":"Box005"},{"name":"AnimatedDirectionalLight.FakeTarget"},{"name":"AnimatedSkyLight.FakeTarget"},{"name":"AnimatedOmniLight.FakeTarget"},{"children":[33],"name":"AnimatedSpotLightTarget"},{"name":"Cone001"},{"children":[35],"name":"DirectionalLightAnimatedTarget"},{"name":"Cone002"},{"children":[37],"name":"SpotLightAnimatedTarget"},{"name":"Cone003"},{"children":[39],"name":"AnimatedFreeSpotLight"},{"name":"Cone004"},{"children":[41],"name":"AnimatedDirectionalLightTarget"},{"name":"Cone005"},{"children":[43],"name":"AnimatedDirectionalLight"},{"name":"Cone006"},{"children":[45],"name":"AnimatedSkyLight"},{"name":"Cone007"},{"children":[47],"name":"AnimatedOmniLight"},{"name":"Cone008"}],"accessors":[{"bufferView":0,"componentType":5126,"count":56,"max":[3.33333325],"min":[0.0],"type":"SCALAR","name":"accessorAnimationInput"},{"bufferView":1,"componentType":5126,"count":56,"type":"VEC3","name":"accessorAnimationPositions"},{"bufferView":0,"byteOffset":224,"componentType":5126,"count":56,"max":[3.33333325],"min":[0.0],"type":"SCALAR","name":"accessorAnimationInput"},{"bufferView":1,"byteOffset":672,"componentType":5126,"count":56,"type":"VEC3","name":"accessorAnimationPositions"},{"bufferView":0,"byteOffset":448,"componentType":5126,"count":19,"max":[3.33333325],"min":[0.0],"type":"SCALAR","name":"accessorAnimationInput"},{"bufferView":2,"componentType":5126,"count":19,"type":"VEC4","name":"accessorAnimationRotations"},{"bufferView":0,"byteOffset":524,"componentType":5126,"count":19,"max":[3.33333325],"min":[0.0],"type":"SCALAR","name":"accessorAnimationInput"},{"bufferView":2,"byteOffset":304,"componentType":5126,"count":19,"type":"VEC4","name":"accessorAnimationRotations"},{"bufferView":0,"byteOffset":600,"componentType":5126,"count":60,"max":[3.33333325],"min":[0.0],"type":"SCALAR","name":"accessorAnimationInput"},{"bufferView":1,"byteOffset":1344,"componentType":5126,"count":60,"type":"VEC3","name":"accessorAnimationPositions"},{"bufferView":0,"byteOffset":840,"componentType":5126,"count":25,"max":[3.33333325],"min":[0.0],"type":"SCALAR","name":"accessorAnimationInput"},{"bufferView":2,"byteOffset":608,"componentType":5126,"count":25,"type":"VEC4","name":"accessorAnimationRotations"},{"bufferView":0,"byteOffset":940,"componentType":5126,"count":60,"max":[3.33333325],"min":[0.0],"type":"SCALAR","name":"accessorAnimationInput"},{"bufferView":1,"byteOffset":2064,"componentType":5126,"count":60,"type":"VEC3","name":"accessorAnimationPositions"},{"bufferView":0,"byteOffset":1180,"componentType":5126,"count":28,"max":[3.33333325],"min":[0.0],"type":"SCALAR","name":"accessorAnimationInput"},{"bufferView":2,"byteOffset":1008,"componentType":5126,"count":28,"type":"VEC4","name":"accessorAnimationRotations"},{"bufferView":0,"byteOffset":1292,"componentType":5126,"count":56,"max":[3.33333325],"min":[0.0],"type":"SCALAR","name":"accessorAnimationInput"},{"bufferView":1,"byteOffset":2784,"componentType":5126,"count":56,"type":"VEC3","name":"accessorAnimationPositions"},{"bufferView":0,"byteOffset":1516,"componentType":5126,"count":56,"max":[3.33333325],"min":[0.0],"type":"SCALAR","name":"accessorAnimationInput"},{"bufferView":1,"byteOffset":3456,"componentType":5126,"count":56,"type":"VEC3","name":"accessorAnimationPositions"},{"bufferView":0,"byteOffset":1740,"componentType":5126,"count":60,"max":[3.33333325],"min":[0.0],"type":"SCALAR","name":"accessorAnimationInput"},{"bufferView":1,"byteOffset":4128,"componentType":5126,"count":60,"type":"VEC3","name":"accessorAnimationPositions"},{"bufferView":0,"byteOffset":1980,"componentType":5126,"count":28,"max":[3.33333325],"min":[0.0],"type":"SCALAR","name":"accessorAnimationInput"},{"bufferView":2,"byteOffset":1456,"componentType":5126,"count":28,"type":"VEC4","name":"accessorAnimationRotations"},{"bufferView":0,"byteOffset":2092,"componentType":5126,"count":19,"max":[3.33333325],"min":[0.0],"type":"SCALAR","name":"accessorAnimationInput"},{"bufferView":2,"byteOffset":1904,"componentType":5126,"count":19,"type":"VEC4","name":"accessorAnimationRotations"},{"bufferView":0,"byteOffset":2168,"componentType":5126,"count":19,"max":[3.33333325],"min":[0.0],"type":"SCALAR","name":"accessorAnimationInput"},{"bufferView":2,"byteOffset":2208,"componentType":5126,"count":19,"type":"VEC4","name":"accessorAnimationRotations"},{"bufferView":0,"byteOffset":2244,"componentType":5126,"count":60,"max":[3.33333325],"min":[0.0],"type":"SCALAR","name":"accessorAnimationInput"},{"bufferView":1,"byteOffset":4848,"componentType":5126,"count":60,"type":"VEC3","name":"accessorAnimationPositions"},{"bufferView":0,"byteOffset":2484,"componentType":5126,"count":25,"max":[3.33333325],"min":[0.0],"type":"SCALAR","name":"accessorAnimationInput"},{"bufferView":2,"byteOffset":2512,"componentType":5126,"count":25,"type":"VEC4","name":"accessorAnimationRotations"},{"bufferView":0,"byteOffset":2584,"componentType":5126,"count":60,"max":[3.33333325],"min":[0.0],"type":"SCALAR","name":"accessorAnimationInput"},{"bufferView":1,"byteOffset":5568,"componentType":5126,"count":60,"type":"VEC3","name":"accessorAnimationPositions"},{"bufferView":0,"byteOffset":2824,"componentType":5126,"count":28,"max":[3.33333325],"min":[0.0],"type":"SCALAR","name":"accessorAnimationInput"},{"bufferView":2,"byteOffset":2912,"componentType":5126,"count":28,"type":"VEC4","name":"accessorAnimationRotations"},{"bufferView":0,"byteOffset":2936,"componentType":5126,"count":60,"max":[3.33333325],"min":[0.0],"type":"SCALAR","name":"accessorAnimationInput"},{"bufferView":1,"byteOffset":6288,"componentType":5126,"count":60,"type":"VEC3","name":"accessorAnimationPositions"},{"bufferView":0,"byteOffset":3176,"componentType":5126,"count":25,"max":[3.33333325],"min":[0.0],"type":"SCALAR","name":"accessorAnimationInput"},{"bufferView":2,"byteOffset":3360,"componentType":5126,"count":25,"type":"VEC4","name":"accessorAnimationRotations"},{"bufferView":0,"byteOffset":3276,"componentType":5126,"count":60,"max":[3.33333325],"min":[0.0],"type":"SCALAR","name":"accessorAnimationInput"},{"bufferView":1,"byteOffset":7008,"componentType":5126,"count":60,"type":"VEC3","name":"accessorAnimationPositions"},{"bufferView":0,"byteOffset":3516,"componentType":5126,"count":25,"max":[3.33333325],"min":[0.0],"type":"SCALAR","name":"accessorAnimationInput"},{"bufferView":2,"byteOffset":3760,"componentType":5126,"count":25,"type":"VEC4","name":"accessorAnimationRotations"},{"bufferView":0,"byteOffset":3616,"componentType":5126,"count":60,"max":[3.33333325],"min":[0.0],"type":"SCALAR","name":"accessorAnimationInput"},{"bufferView":1,"byteOffset":7728,"componentType":5126,"count":60,"type":"VEC3","name":"accessorAnimationPositions"},{"bufferView":0,"byteOffset":3856,"componentType":5126,"count":25,"max":[3.33333325],"min":[0.0],"type":"SCALAR","name":"accessorAnimationInput"},{"bufferView":2,"byteOffset":4160,"componentType":5126,"count":25,"type":"VEC4","name":"accessorAnimationRotations"}],"bufferViews":[{"buffer":0,"byteLength":3956,"name":"bufferViewAnimationFloatScalar"},{"buffer":0,"byteOffset":3956,"byteLength":8448,"name":"bufferViewAnimationFloatVec3"},{"buffer":0,"byteOffset":12404,"byteLength":4560,"name":"bufferViewAnimationFloatVec4"}],"buffers":[{"uri":"animation.bin","byteLength":16964}],"animations":[{"channels":[{"sampler":0,"target":{"node":6,"path":"translation"}},{"sampler":1,"target":{"node":8,"path":"translation"}},{"sampler":2,"target":{"node":11,"path":"rotation"}},{"sampler":3,"target":{"node":13,"path":"rotation"}},{"sampler":4,"target":{"node":15,"path":"translation"}},{"sampler":5,"target":{"node":15,"path":"rotation"}},{"sampler":6,"target":{"node":17,"path":"translation"}},{"sampler":7,"target":{"node":17,"path":"rotation"}},{"sampler":8,"target":{"node":22,"path":"translation"}},{"sampler":9,"target":{"node":24,"path":"translation"}},{"sampler":10,"target":{"node":32,"path":"translation"}},{"sampler":11,"target":{"node":32,"path":"rotation"}},{"sampler":12,"target":{"node":34,"path":"rotation"}},{"sampler":13,"target":{"node":36,"path":"rotation"}},{"sampler":14,"target":{"node":38,"path":"translation"}},{"sampler":15,"target":{"node":38,"path":"rotation"}},{"sampler":16,"target":{"node":40,"path":"translation"}},{"sampler":17,"target":{"node":40,"path":"rotation"}},{"sampler":18,"target":{"node":42,"path":"translation"}},{"sampler":19,"target":{"node":42,"path":"rotation"}},{"sampler":20,"target":{"node":44,"path":"translation"}},{"sampler":21,"target":{"node":44,"path":"rotation"}},{"sampler":22,"target":{"node":46,"path":"translation"}},{"sampler":23,"target":{"node":46,"path":"rotation"}}],"samplers":[{"input":0,"interpolation":"LINEAR","output":1},{"input":2,"interpolation":"LINEAR","output":3},{"input":4,"interpolation":"LINEAR","output":5},{"input":6,"interpolation":"LINEAR","output":7},{"input":8,"interpolation":"LINEAR","output":9},{"input":10,"interpolation":"LINEAR","output":11},{"input":12,"interpolation":"LINEAR","output":13},{"input":14,"interpolation":"LINEAR","output":15},{"input":16,"interpolation":"LINEAR","output":17},{"input":18,"interpolation":"LINEAR","output":19},{"input":20,"interpolation":"LINEAR","output":21},{"input":22,"interpolation":"LINEAR","output":23},{"input":24,"interpolation":"LINEAR","output":25},{"input":26,"interpolation":"LINEAR","output":27},{"input":28,"interpolation":"LINEAR","output":29},{"input":30,"interpolation":"LINEAR","output":31},{"input":32,"interpolation":"LINEAR","output":33},{"input":34,"interpolation":"LINEAR","output":35},{"input":36,"interpolation":"LINEAR","output":37},{"input":38,"interpolation":"LINEAR","output":39},{"input":40,"interpolation":"LINEAR","output":41},{"input":42,"interpolation":"LINEAR","output":43},{"input":44,"interpolation":"LINEAR","output":45},{"input":46,"interpolation":"LINEAR","output":47}],"name":"All Animations"}]}