{"asset":{"version":"2.0","generator":"babylon.js glTF exporter for 3ds max 2017 v1.2.14","copyright":"2017 (c) BabylonJS"},"extensionsUsed":["KHR_lights"],"scene":0,"scenes":[{"nodes":[0,1,2,3],"extensions":{"KHR_lights":{"light":0}}}],"nodes":[{"mesh":0,"translation":[30.0,0.0,-30.0],"rotation":[0.0,-1.0,0.0,7.54979E-08],"scale":[1.0,1.0,1.0],"name":"EarthGlobalRed"},{"mesh":1,"translation":[-30.0,0.0,-30.0],"rotation":[0.0,-1.0,0.0,7.54979E-08],"scale":[1.0,1.0,1.0],"name":"EarthGlobalAlmostWhite"},{"mesh":2,"translation":[-30.0,0.0,30.0],"rotation":[0.0,-1.0,0.0,7.54979E-08],"scale":[1.0,1.0,1.0],"name":"EarthTexture"},{"mesh":3,"translation":[30.0,0.0,30.0],"rotation":[0.0,-1.0,0.0,7.54979E-08],"scale":[1.0,1.0,1.0],"name":"EarthNoSpecLevel"}],"meshes":[{"primitives":[{"attributes":{"POSITION":1,"NORMAL":2,"TEXCOORD_0":3},"indices":0,"mode":4,"material":0}],"name":"EarthGlobalRed"},{"primitives":[{"attributes":{"POSITION":5,"NORMAL":6,"TEXCOORD_0":7},"indices":4,"mode":4,"material":1}],"name":"EarthGlobalAlmostWhite"},{"primitives":[{"attributes":{"POSITION":9,"NORMAL":10,"TEXCOORD_0":11},"indices":8,"mode":4,"material":2}],"name":"EarthTexture"},{"primitives":[{"attributes":{"POSITION":13,"NORMAL":14,"TEXCOORD_0":15},"indices":12,"mode":4,"material":3}],"name":"EarthNoSpecLevel"}],"accessors":[{"bufferView":0,"componentType":5123,"count":2880,"type":"SCALAR","name":"accessorIndices"},{"bufferView":1,"componentType":5126,"count":2880,"max":[20.0,20.0,20.0],"min":[-20.0,-20.0,-20.0],"type":"VEC3","name":"accessorPositions"},{"bufferView":1,"byteOffset":34560,"componentType":5126,"count":2880,"type":"VEC3","name":"accessorNormals"},{"bufferView":2,"componentType":5126,"count":2880,"type":"VEC2","name":"accessorUVs"},{"bufferView":0,"byteOffset":5760,"componentType":5123,"count":2880,"type":"SCALAR","name":"accessorIndices"},{"bufferView":1,"byteOffset":69120,"componentType":5126,"count":2880,"max":[20.0,20.0,20.0],"min":[-20.0,-20.0,-20.0],"type":"VEC3","name":"accessorPositions"},{"bufferView":1,"byteOffset":103680,"componentType":5126,"count":2880,"type":"VEC3","name":"accessorNormals"},{"bufferView":2,"byteOffset":23040,"componentType":5126,"count":2880,"type":"VEC2","name":"accessorUVs"},{"bufferView":0,"byteOffset":11520,"componentType":5123,"count":2880,"type":"SCALAR","name":"accessorIndices"},{"bufferView":1,"byteOffset":138240,"componentType":5126,"count":2880,"max":[20.0,20.0,20.0],"min":[-20.0,-20.0,-20.0],"type":"VEC3","name":"accessorPositions"},{"bufferView":1,"byteOffset":172800,"componentType":5126,"count":2880,"type":"VEC3","name":"accessorNormals"},{"bufferView":2,"byteOffset":46080,"componentType":5126,"count":2880,"type":"VEC2","name":"accessorUVs"},{"bufferView":0,"byteOffset":17280,"componentType":5123,"count":2880,"type":"SCALAR","name":"accessorIndices"},{"bufferView":1,"byteOffset":207360,"componentType":5126,"count":2880,"max":[20.0,20.0,20.0],"min":[-20.0,-20.0,-20.0],"type":"VEC3","name":"accessorPositions"},{"bufferView":1,"byteOffset":241920,"componentType":5126,"count":2880,"type":"VEC3","name":"accessorNormals"},{"bufferView":2,"byteOffset":69120,"componentType":5126,"count":2880,"type":"VEC2","name":"accessorUVs"}],"bufferViews":[{"buffer":0,"byteLength":23040,"name":"bufferViewScalar"},{"buffer":0,"byteOffset":23040,"byteLength":276480,"byteStride":12,"name":"bufferViewFloatVec3"},{"buffer":0,"byteOffset":299520,"byteLength":92160,"byteStride":8,"name":"bufferViewFloatVec2"}],"buffers":[{"uri":"SpecularLevel.bin","byteLength":391680}],"materials":[{"pbrMetallicRoughness":{"baseColorFactor":[1.0,1.0,1.0,1.0],"baseColorTexture":{"index":0,"texCoord":0},"metallicFactor":1.0,"roughnessFactor":1.0,"metallicRoughnessTexture":{"index":1,"texCoord":0}},"emissiveFactor":[0.0,0.0,0.0],"alphaMode":"OPAQUE","name":"MatGlobalRed"},{"pbrMetallicRoughness":{"baseColorFactor":[1.0,1.0,1.0,1.0],"baseColorTexture":{"index":2,"texCoord":0},"metallicFactor":1.0,"roughnessFactor":1.0,"metallicRoughnessTexture":{"index":3,"texCoord":0}},"emissiveFactor":[0.0,0.0,0.0],"alphaMode":"OPAQUE","name":"MatTexture"},{"pbrMetallicRoughness":{"baseColorFactor":[1.0,1.0,1.0,1.0],"baseColorTexture":{"index":4,"texCoord":0},"metallicFactor":1.0,"roughnessFactor":1.0,"metallicRoughnessTexture":{"index":5,"texCoord":0}},"emissiveFactor":[0.0,0.0,0.0],"alphaMode":"OPAQUE","name":"MatGlobalAlmostWhite"},{"pbrMetallicRoughness":{"baseColorFactor":[1.0,1.0,1.0,1.0],"baseColorTexture":{"index":6,"texCoord":0},"metallicFactor":1.0,"roughnessFactor":1.0,"metallicRoughnessTexture":{"index":7,"texCoord":0}},"emissiveFactor":[0.0,0.0,0.0],"alphaMode":"OPAQUE","name":"MatNoSpecLevel"}],"textures":[{"sampler":0,"source":0,"name":"MatGlobalRed_baseColor.jpg"},{"sampler":1,"source":1,"name":"MatGlobalRed_metallicRoughness.jpg"},{"sampler":2,"source":2,"name":"MatTexture_baseColor.jpg"},{"sampler":3,"source":3,"name":"MatTexture_metallicRoughness.jpg"},{"sampler":4,"source":4,"name":"MatGlobalAlmostWhite_baseColor.jpg"},{"sampler":5,"source":5,"name":"MatGlobalAlmostWhite_metallicRoughness.jpg"},{"sampler":6,"source":6,"name":"MatNoSpecLevel_baseColor.jpg"},{"sampler":7,"source":7,"name":"MatNoSpecLevel_metallicRoughness.jpg"}],"images":[{"uri":"MatGlobalRed_baseColor.jpg"},{"uri":"MatGlobalRed_metallicRoughness.jpg"},{"uri":"MatTexture_baseColor.jpg"},{"uri":"MatTexture_metallicRoughness.jpg"},{"uri":"MatGlobalAlmostWhite_baseColor.jpg"},{"uri":"MatGlobalAlmostWhite_metallicRoughness.jpg"},{"uri":"MatNoSpecLevel_baseColor.jpg"},{"uri":"MatNoSpecLevel_metallicRoughness.jpg"}],"samplers":[{"magFilter":9729,"minFilter":9987,"wrapS":10497,"wrapT":10497},{"magFilter":9729,"minFilter":9987,"wrapS":10497,"wrapT":10497},{"magFilter":9729,"minFilter":9987,"wrapS":10497,"wrapT":10497},{"magFilter":9729,"minFilter":9987,"wrapS":10497,"wrapT":10497},{"magFilter":9729,"minFilter":9987,"wrapS":10497,"wrapT":10497},{"magFilter":9729,"minFilter":9987,"wrapS":10497,"wrapT":10497},{"magFilter":9729,"minFilter":9987,"wrapS":10497,"wrapT":10497},{"magFilter":9729,"minFilter":9987,"wrapS":10497,"wrapT":10497}],"extensions":{"KHR_lights":{"lights":[{"color":[1.0,1.0,1.0],"intensity":1.0,"type":"ambient"}]}}}