{"asset":{"version":"2.0","generator":"babylon.js glTF exporter for Maya 2018 vCustom.Build.Version"},"scene":0,"scenes":[{"nodes":[0,1],"extensions":{}}],"nodes":[{"mesh":0,"translation":[0.0,0.0,0.0],"rotation":[0.0,0.0,0.0,1.0],"scale":[1.0,1.0,1.0],"name":"pCube1"},{"translation":[0.0,0.0,0.0],"rotation":[0.0,0.0,0.0,1.0],"scale":[1.0,1.0,1.0],"name":"Default light"}],"meshes":[{"primitives":[{"attributes":{"POSITION":1,"TANGENT":2,"NORMAL":3,"TEXCOORD_0":4},"indices":0,"mode":4,"material":0}],"name":"pCube1"}],"accessors":[{"bufferView":0,"componentType":5123,"count":36,"type":"SCALAR","name":"accessorIndices"},{"bufferView":1,"componentType":5126,"count":24,"max":[0.5,0.5,0.5],"min":[-0.5,-0.5,-0.5],"type":"VEC3","name":"accessorPositions"},{"bufferView":2,"componentType":5126,"count":24,"type":"VEC4","name":"accessorTangents"},{"bufferView":1,"byteOffset":288,"componentType":5126,"count":24,"type":"VEC3","name":"accessorNormals"},{"bufferView":3,"componentType":5126,"count":24,"type":"VEC2","name":"accessorUVs"},{"bufferView":4,"componentType":5126,"count":3,"max":[4.95833349],"min":[0.0],"type":"SCALAR","name":"accessorAnimationInput"},{"bufferView":5,"componentType":5126,"count":3,"type":"VEC4","name":"accessorAnimationRotations"}],"bufferViews":[{"buffer":0,"byteLength":72,"name":"bufferViewScalar"},{"buffer":0,"byteOffset":72,"byteLength":576,"byteStride":12,"name":"bufferViewFloatVec3"},{"buffer":0,"byteOffset":648,"byteLength":384,"byteStride":16,"name":"bufferViewFloatVec4"},{"buffer":0,"byteOffset":1032,"byteLength":192,"byteStride":8,"name":"bufferViewFloatVec2"},{"buffer":0,"byteOffset":1224,"byteLength":12,"name":"bufferViewAnimationFloatScalar"},{"buffer":0,"byteOffset":1236,"byteLength":48,"name":"bufferViewAnimationFloatVec4"}],"buffers":[{"uri":"all_rotation.bin","byteLength":1284}],"materials":[{"pbrMetallicRoughness":{"baseColorFactor":[0.5,0.0,0.0,1.0],"metallicFactor":0.0,"roughnessFactor":0.2581639},"emissiveFactor":[0.0,0.0,0.0],"alphaMode":"OPAQUE","name":"Red"}],"animations":[{"channels":[{"sampler":0,"target":{"node":0,"path":"rotation"}}],"samplers":[{"input":5,"interpolation":"LINEAR","output":6}],"name":"All Animations"}]}