{"asset":{"version":"2.0","generator":"babylon.js glTF exporter for Maya 2018 vCustom.Build.Version"},"scene":0,"scenes":[{"nodes":[0],"extensions":{}}],"nodes":[{"name":"pCube1"}],"accessors":[{"bufferView":0,"componentType":5126,"count":3,"max":[4.95833349],"min":[0.0],"type":"SCALAR","name":"accessorAnimationInput"},{"bufferView":1,"componentType":5126,"count":3,"type":"VEC4","name":"accessorAnimationRotations"}],"bufferViews":[{"buffer":0,"byteLength":12,"name":"bufferViewAnimationFloatScalar"},{"buffer":0,"byteOffset":12,"byteLength":48,"name":"bufferViewAnimationFloatVec4"}],"buffers":[{"uri":"animation_rotation.bin","byteLength":60}],"animations":[{"channels":[{"sampler":0,"target":{"node":0,"path":"rotation"}}],"samplers":[{"input":0,"interpolation":"LINEAR","output":1}],"name":"All Animations"}]}