{"asset":{"version":"2.0","generator":"babylon.js glTF exporter for maya 2018 v1.1.0","copyright":"2017 (c) BabylonJS"},"scene":0,"scenes":[{"nodes":[0,1]}],"nodes":[{"skin":0,"mesh":0,"translation":[0.0,0.0,0.0],"rotation":[-0.7071067,0.0,0.0,0.7071068],"scale":[100.0,100.0,100.0],"name":"elf"},{"children":[2,15,19],"translation":[0.0,0.0,0.0],"rotation":[5.28672244E-05,-0.000109512388,0.003001453,0.99999547],"scale":[100.000008,100.0,100.000015],"name":"mixamorig:Hips"},{"children":[3],"translation":[5.820766E-11,0.0885192454,0.009698692],"rotation":[0.185690433,0.09258603,-0.00342496065,0.9782306],"scale":[1.00000012,0.9999999,1.00000012],"name":"mixamorig:Spine"},{"children":[4],"translation":[-4.656613E-10,0.103890412,3.7252903E-09],"rotation":[0.009984253,0.0270467922,0.0036067795,0.9995778],"scale":[0.9999998,1.0,1.00000012],"name":"mixamorig:Spine1"},{"children":[5,7,11],"translation":[2.79396772E-09,0.118731871,1.49011612E-08],"rotation":[0.0102881454,0.0266801771,0.00347159267,0.9995851],"scale":[0.9999999,1.0,1.0],"name":"mixamorig:Spine2"},{"children":[6],"translation":[-2.79396772E-09,0.133573279,-8.568168E-08],"rotation":[-0.118998334,-0.0134508992,0.0135794068,0.9927105],"scale":[0.99999994,1.00000012,1.00000024],"name":"mixamorig:Neck"},{"translation":[-1.86264515E-09,0.01774311,-0.00704801828],"rotation":[-0.212844148,0.0306223128,-0.04075867,0.9757553],"scale":[0.99999994,1.0,1.0],"name":"mixamorig:Head"},{"children":[8],"translation":[0.0503429174,0.1190785,0.00220307335],"rotation":[0.5887417,0.396413326,-0.5849218,0.3925636],"scale":[1.00000012,0.9999999,1.00000024],"name":"mixamorig:LeftShoulder"},{"children":[9],"translation":[0.0,0.10019695,-1.49011612E-08],"rotation":[0.308696151,0.240250811,-0.2622847,0.8821525],"scale":[1.0,1.0,1.0],"name":"mixamorig:LeftArm"},{"children":[10],"translation":[0.0,0.123613521,-1.1920929E-07],"rotation":[0.131884456,-0.4505429,0.501064539,0.727015734],"scale":[1.00000012,1.0,0.9999999],"name":"mixamorig:LeftForeArm"},{"translation":[-7.450581E-09,0.26929006,0.0],"rotation":[0.0,0.0,0.0,1.0],"scale":[0.9999997,1.0,0.99999994],"name":"mixamorig:LeftHand"},{"children":[12],"translation":[-0.05034293,0.118945375,0.0009875409],"rotation":[0.6664553,-0.323910177,0.533480763,0.4078208],"scale":[1.0,0.9999999,1.0],"name":"mixamorig:RightShoulder"},{"children":[13],"translation":[1.86264515E-08,0.10019701,1.1920929E-07],"rotation":[0.0684957355,0.165744558,-0.230046913,0.956512153],"scale":[1.0,0.99999994,1.00000012],"name":"mixamorig:RightArm"},{"children":[14],"translation":[5.21540642E-08,0.123348996,1.1920929E-07],"rotation":[0.189166367,0.4400134,-0.714987755,0.509310067],"scale":[1.00000012,0.99999994,0.99999994],"name":"mixamorig:RightForeArm"},{"translation":[-1.11758709E-08,0.2730465,0.0],"rotation":[0.0,0.0,0.0,1.0],"scale":[1.0,1.00000012,1.0],"name":"mixamorig:RightHand"},{"children":[16],"translation":[0.11940781,-0.04893059,-0.01129806],"rotation":[0.113386542,0.498319358,0.8512163,-0.119382225],"scale":[1.00000012,1.0,1.00000012],"name":"mixamorig:LeftUpLeg"},{"children":[17],"translation":[4.47034836E-08,0.3323332,-1.11758709E-08],"rotation":[0.901211858,-0.00371556752,0.00148708536,-0.433360338],"scale":[0.9999999,0.9999997,0.9999998],"name":"mixamorig:LeftLeg"},{"children":[18],"translation":[2.23517418E-08,0.237430319,-2.98023224E-08],"rotation":[0.642631948,-0.00115083263,0.118163288,0.7570075],"scale":[1.00000012,1.00000012,1.0],"name":"mixamorig:LeftFoot"},{"translation":[-3.7252903E-08,0.160369456,-1.11758709E-08],"rotation":[0.361697048,-0.247965485,0.06710727,0.8962059],"scale":[1.0,1.0,0.9999999],"name":"mixamorig:LeftToeBase"},{"children":[20],"translation":[-0.119407788,-0.04893066,-0.007106544],"rotation":[0.0173175316,0.164133877,0.986245334,0.008961391],"scale":[1.00000012,0.999999762,0.9999999],"name":"mixamorig:RightUpLeg"},{"children":[21],"translation":[-1.49011612E-08,0.332580239,-1.86264515E-09],"rotation":[-0.401449978,-0.06684949,0.02438606,0.913112462],"scale":[1.00000012,0.999999762,0.999999642],"name":"mixamorig:RightLeg"},{"children":[22],"translation":[-2.98023224E-08,0.2379325,4.47034836E-08],"rotation":[0.7388606,0.0775167644,0.0190268885,0.6691145],"scale":[1.00000012,1.00000012,0.9999999],"name":"mixamorig:RightFoot"},{"translation":[0.0,0.15503408,-1.1920929E-07],"rotation":[0.406660676,0.229122579,-0.0484294444,0.883054137],"scale":[0.9999999,0.99999994,1.0],"name":"mixamorig:RightToeBase"}],"meshes":[{"primitives":[{"attributes":{"POSITION":1,"NORMAL":2,"TEXCOORD_0":3,"JOINTS_0":4,"WEIGHTS_0":5},"indices":0,"mode":4,"material":0}],"name":"elf"}],"accessors":[{"bufferView":0,"componentType":5123,"count":6936,"type":"SCALAR","name":"accessorIndices"},{"bufferView":1,"componentType":5126,"count":2178,"max":[0.463051736,0.656297445,1.24493158],"min":[-0.574706733,-0.632183731,-0.6928541],"type":"VEC3","name":"accessorPositions"},{"bufferView":1,"byteOffset":26136,"componentType":5126,"count":2178,"type":"VEC3","name":"accessorNormals"},{"bufferView":2,"componentType":5126,"count":2178,"type":"VEC2","name":"accessorUVs"},{"bufferView":3,"componentType":5123,"count":2178,"type":"VEC4","name":"accessorJoints"},{"bufferView":4,"componentType":5126,"count":2178,"type":"VEC4","name":"accessorWeights"},{"bufferView":5,"componentType":5126,"count":22,"type":"MAT4","name":"accessorInverseBindMatrices"},{"bufferView":6,"componentType":5126,"count":101,"max":[3.33333325],"min":[0.0],"type":"SCALAR","name":"accessorAnimationInput"},{"bufferView":7,"componentType":5126,"count":101,"type":"VEC3","name":"accessorAnimationPositions"},{"bufferView":8,"componentType":5126,"count":101,"type":"VEC4","name":"accessorAnimationRotations"},{"bufferView":7,"byteOffset":1212,"componentType":5126,"count":101,"type":"VEC3","name":"accessorAnimationScales"},{"bufferView":6,"byteOffset":404,"componentType":5126,"count":101,"max":[3.33333325],"min":[0.0],"type":"SCALAR","name":"accessorAnimationInput"},{"bufferView":7,"byteOffset":2424,"componentType":5126,"count":101,"type":"VEC3","name":"accessorAnimationPositions"},{"bufferView":8,"byteOffset":1616,"componentType":5126,"count":101,"type":"VEC4","name":"accessorAnimationRotations"},{"bufferView":7,"byteOffset":3636,"componentType":5126,"count":101,"type":"VEC3","name":"accessorAnimationScales"},{"bufferView":6,"byteOffset":808,"componentType":5126,"count":101,"max":[3.33333325],"min":[0.0],"type":"SCALAR","name":"accessorAnimationInput"},{"bufferView":7,"byteOffset":4848,"componentType":5126,"count":101,"type":"VEC3","name":"accessorAnimationPositions"},{"bufferView":8,"byteOffset":3232,"componentType":5126,"count":101,"type":"VEC4","name":"accessorAnimationRotations"},{"bufferView":7,"byteOffset":6060,"componentType":5126,"count":101,"type":"VEC3","name":"accessorAnimationScales"},{"bufferView":6,"byteOffset":1212,"componentType":5126,"count":101,"max":[3.33333325],"min":[0.0],"type":"SCALAR","name":"accessorAnimationInput"},{"bufferView":7,"byteOffset":7272,"componentType":5126,"count":101,"type":"VEC3","name":"accessorAnimationPositions"},{"bufferView":8,"byteOffset":4848,"componentType":5126,"count":101,"type":"VEC4","name":"accessorAnimationRotations"},{"bufferView":7,"byteOffset":8484,"componentType":5126,"count":101,"type":"VEC3","name":"accessorAnimationScales"},{"bufferView":6,"byteOffset":1616,"componentType":5126,"count":101,"max":[3.33333325],"min":[0.0],"type":"SCALAR","name":"accessorAnimationInput"},{"bufferView":7,"byteOffset":9696,"componentType":5126,"count":101,"type":"VEC3","name":"accessorAnimationPositions"},{"bufferView":8,"byteOffset":6464,"componentType":5126,"count":101,"type":"VEC4","name":"accessorAnimationRotations"},{"bufferView":7,"byteOffset":10908,"componentType":5126,"count":101,"type":"VEC3","name":"accessorAnimationScales"},{"bufferView":6,"byteOffset":2020,"componentType":5126,"count":101,"max":[3.33333325],"min":[0.0],"type":"SCALAR","name":"accessorAnimationInput"},{"bufferView":7,"byteOffset":12120,"componentType":5126,"count":101,"type":"VEC3","name":"accessorAnimationPositions"},{"bufferView":8,"byteOffset":8080,"componentType":5126,"count":101,"type":"VEC4","name":"accessorAnimationRotations"},{"bufferView":7,"byteOffset":13332,"componentType":5126,"count":101,"type":"VEC3","name":"accessorAnimationScales"},{"bufferView":6,"byteOffset":2424,"componentType":5126,"count":101,"max":[3.33333325],"min":[0.0],"type":"SCALAR","name":"accessorAnimationInput"},{"bufferView":7,"byteOffset":14544,"componentType":5126,"count":101,"type":"VEC3","name":"accessorAnimationPositions"},{"bufferView":8,"byteOffset":9696,"componentType":5126,"count":101,"type":"VEC4","name":"accessorAnimationRotations"},{"bufferView":7,"byteOffset":15756,"componentType":5126,"count":101,"type":"VEC3","name":"accessorAnimationScales"},{"bufferView":6,"byteOffset":2828,"componentType":5126,"count":101,"max":[3.33333325],"min":[0.0],"type":"SCALAR","name":"accessorAnimationInput"},{"bufferView":7,"byteOffset":16968,"componentType":5126,"count":101,"type":"VEC3","name":"accessorAnimationPositions"},{"bufferView":8,"byteOffset":11312,"componentType":5126,"count":101,"type":"VEC4","name":"accessorAnimationRotations"},{"bufferView":7,"byteOffset":18180,"componentType":5126,"count":101,"type":"VEC3","name":"accessorAnimationScales"},{"bufferView":6,"byteOffset":3232,"componentType":5126,"count":101,"max":[3.33333325],"min":[0.0],"type":"SCALAR","name":"accessorAnimationInput"},{"bufferView":7,"byteOffset":19392,"componentType":5126,"count":101,"type":"VEC3","name":"accessorAnimationPositions"},{"bufferView":8,"byteOffset":12928,"componentType":5126,"count":101,"type":"VEC4","name":"accessorAnimationRotations"},{"bufferView":7,"byteOffset":20604,"componentType":5126,"count":101,"type":"VEC3","name":"accessorAnimationScales"},{"bufferView":6,"byteOffset":3636,"componentType":5126,"count":101,"max":[3.33333325],"min":[0.0],"type":"SCALAR","name":"accessorAnimationInput"},{"bufferView":7,"byteOffset":21816,"componentType":5126,"count":101,"type":"VEC3","name":"accessorAnimationPositions"},{"bufferView":8,"byteOffset":14544,"componentType":5126,"count":101,"type":"VEC4","name":"accessorAnimationRotations"},{"bufferView":7,"byteOffset":23028,"componentType":5126,"count":101,"type":"VEC3","name":"accessorAnimationScales"},{"bufferView":6,"byteOffset":4040,"componentType":5126,"count":101,"max":[3.33333325],"min":[0.0],"type":"SCALAR","name":"accessorAnimationInput"},{"bufferView":7,"byteOffset":24240,"componentType":5126,"count":101,"type":"VEC3","name":"accessorAnimationPositions"},{"bufferView":8,"byteOffset":16160,"componentType":5126,"count":101,"type":"VEC4","name":"accessorAnimationRotations"},{"bufferView":7,"byteOffset":25452,"componentType":5126,"count":101,"type":"VEC3","name":"accessorAnimationScales"},{"bufferView":6,"byteOffset":4444,"componentType":5126,"count":101,"max":[3.33333325],"min":[0.0],"type":"SCALAR","name":"accessorAnimationInput"},{"bufferView":7,"byteOffset":26664,"componentType":5126,"count":101,"type":"VEC3","name":"accessorAnimationPositions"},{"bufferView":8,"byteOffset":17776,"componentType":5126,"count":101,"type":"VEC4","name":"accessorAnimationRotations"},{"bufferView":7,"byteOffset":27876,"componentType":5126,"count":101,"type":"VEC3","name":"accessorAnimationScales"},{"bufferView":6,"byteOffset":4848,"componentType":5126,"count":101,"max":[3.33333325],"min":[0.0],"type":"SCALAR","name":"accessorAnimationInput"},{"bufferView":7,"byteOffset":29088,"componentType":5126,"count":101,"type":"VEC3","name":"accessorAnimationPositions"},{"bufferView":8,"byteOffset":19392,"componentType":5126,"count":101,"type":"VEC4","name":"accessorAnimationRotations"},{"bufferView":7,"byteOffset":30300,"componentType":5126,"count":101,"type":"VEC3","name":"accessorAnimationScales"},{"bufferView":6,"byteOffset":5252,"componentType":5126,"count":101,"max":[3.33333325],"min":[0.0],"type":"SCALAR","name":"accessorAnimationInput"},{"bufferView":7,"byteOffset":31512,"componentType":5126,"count":101,"type":"VEC3","name":"accessorAnimationPositions"},{"bufferView":8,"byteOffset":21008,"componentType":5126,"count":101,"type":"VEC4","name":"accessorAnimationRotations"},{"bufferView":7,"byteOffset":32724,"componentType":5126,"count":101,"type":"VEC3","name":"accessorAnimationScales"},{"bufferView":6,"byteOffset":5656,"componentType":5126,"count":101,"max":[3.33333325],"min":[0.0],"type":"SCALAR","name":"accessorAnimationInput"},{"bufferView":7,"byteOffset":33936,"componentType":5126,"count":101,"type":"VEC3","name":"accessorAnimationPositions"},{"bufferView":8,"byteOffset":22624,"componentType":5126,"count":101,"type":"VEC4","name":"accessorAnimationRotations"},{"bufferView":7,"byteOffset":35148,"componentType":5126,"count":101,"type":"VEC3","name":"accessorAnimationScales"},{"bufferView":6,"byteOffset":6060,"componentType":5126,"count":77,"max":[3.33333325],"min":[0.0],"type":"SCALAR","name":"accessorAnimationInput"},{"bufferView":7,"byteOffset":36360,"componentType":5126,"count":77,"type":"VEC3","name":"accessorAnimationPositions"},{"bufferView":8,"byteOffset":24240,"componentType":5126,"count":77,"type":"VEC4","name":"accessorAnimationRotations"},{"bufferView":7,"byteOffset":37284,"componentType":5126,"count":77,"type":"VEC3","name":"accessorAnimationScales"},{"bufferView":6,"byteOffset":6368,"componentType":5126,"count":101,"max":[3.33333325],"min":[0.0],"type":"SCALAR","name":"accessorAnimationInput"},{"bufferView":7,"byteOffset":38208,"componentType":5126,"count":101,"type":"VEC3","name":"accessorAnimationPositions"},{"bufferView":8,"byteOffset":25472,"componentType":5126,"count":101,"type":"VEC4","name":"accessorAnimationRotations"},{"bufferView":7,"byteOffset":39420,"componentType":5126,"count":101,"type":"VEC3","name":"accessorAnimationScales"},{"bufferView":6,"byteOffset":6772,"componentType":5126,"count":101,"max":[3.33333325],"min":[0.0],"type":"SCALAR","name":"accessorAnimationInput"},{"bufferView":7,"byteOffset":40632,"componentType":5126,"count":101,"type":"VEC3","name":"accessorAnimationPositions"},{"bufferView":8,"byteOffset":27088,"componentType":5126,"count":101,"type":"VEC4","name":"accessorAnimationRotations"},{"bufferView":7,"byteOffset":41844,"componentType":5126,"count":101,"type":"VEC3","name":"accessorAnimationScales"},{"bufferView":6,"byteOffset":7176,"componentType":5126,"count":101,"max":[3.33333325],"min":[0.0],"type":"SCALAR","name":"accessorAnimationInput"},{"bufferView":7,"byteOffset":43056,"componentType":5126,"count":101,"type":"VEC3","name":"accessorAnimationPositions"},{"bufferView":8,"byteOffset":28704,"componentType":5126,"count":101,"type":"VEC4","name":"accessorAnimationRotations"},{"bufferView":7,"byteOffset":44268,"componentType":5126,"count":101,"type":"VEC3","name":"accessorAnimationScales"},{"bufferView":6,"byteOffset":7580,"componentType":5126,"count":92,"max":[3.33333325],"min":[0.0],"type":"SCALAR","name":"accessorAnimationInput"},{"bufferView":7,"byteOffset":45480,"componentType":5126,"count":92,"type":"VEC3","name":"accessorAnimationPositions"},{"bufferView":8,"byteOffset":30320,"componentType":5126,"count":92,"type":"VEC4","name":"accessorAnimationRotations"},{"bufferView":7,"byteOffset":46584,"componentType":5126,"count":92,"type":"VEC3","name":"accessorAnimationScales"}],"bufferViews":[{"buffer":0,"byteLength":13872,"name":"bufferViewScalar"},{"buffer":0,"byteOffset":13872,"byteLength":52272,"byteStride":12,"name":"bufferViewFloatVec3"},{"buffer":0,"byteOffset":66144,"byteLength":17424,"byteStride":8,"name":"bufferViewFloatVec2"},{"buffer":0,"byteOffset":83568,"byteLength":17424,"byteStride":8,"name":"bufferViewUnsignedShortVec4"},{"buffer":0,"byteOffset":100992,"byteLength":34848,"byteStride":16,"name":"bufferViewFloatVec4"},{"buffer":0,"byteOffset":135840,"byteLength":1408,"name":"bufferViewFloatMat4"},{"buffer":0,"byteOffset":137248,"byteLength":7948,"name":"bufferViewAnimationFloatScalar"},{"buffer":0,"byteOffset":145196,"byteLength":47688,"name":"bufferViewAnimationFloatVec3"},{"buffer":0,"byteOffset":192884,"byteLength":31792,"name":"bufferViewAnimationFloatVec4"}],"buffers":[{"uri":"elf.bin","byteLength":224676}],"materials":[{"pbrMetallicRoughness":{"baseColorFactor":[0.6125001,0.6125001,0.6125001,1.0],"metallicFactor":0.0,"roughnessFactor":0.9},"emissiveFactor":[0.345744,0.345744,0.345744],"alphaMode":"OPAQUE","name":"FBXASC0481FBXASC032FBXASC045FBXASC032Default"}],"animations":[{"channels":[{"sampler":0,"target":{"node":1,"path":"translation"}},{"sampler":1,"target":{"node":1,"path":"rotation"}},{"sampler":2,"target":{"node":1,"path":"scale"}},{"sampler":3,"target":{"node":2,"path":"translation"}},{"sampler":4,"target":{"node":2,"path":"rotation"}},{"sampler":5,"target":{"node":2,"path":"scale"}},{"sampler":6,"target":{"node":3,"path":"translation"}},{"sampler":7,"target":{"node":3,"path":"rotation"}},{"sampler":8,"target":{"node":3,"path":"scale"}},{"sampler":9,"target":{"node":4,"path":"translation"}},{"sampler":10,"target":{"node":4,"path":"rotation"}},{"sampler":11,"target":{"node":4,"path":"scale"}},{"sampler":12,"target":{"node":5,"path":"translation"}},{"sampler":13,"target":{"node":5,"path":"rotation"}},{"sampler":14,"target":{"node":5,"path":"scale"}},{"sampler":15,"target":{"node":6,"path":"translation"}},{"sampler":16,"target":{"node":6,"path":"rotation"}},{"sampler":17,"target":{"node":6,"path":"scale"}},{"sampler":18,"target":{"node":7,"path":"translation"}},{"sampler":19,"target":{"node":7,"path":"rotation"}},{"sampler":20,"target":{"node":7,"path":"scale"}},{"sampler":21,"target":{"node":8,"path":"translation"}},{"sampler":22,"target":{"node":8,"path":"rotation"}},{"sampler":23,"target":{"node":8,"path":"scale"}},{"sampler":24,"target":{"node":9,"path":"translation"}},{"sampler":25,"target":{"node":9,"path":"rotation"}},{"sampler":26,"target":{"node":9,"path":"scale"}},{"sampler":27,"target":{"node":11,"path":"translation"}},{"sampler":28,"target":{"node":11,"path":"rotation"}},{"sampler":29,"target":{"node":11,"path":"scale"}},{"sampler":30,"target":{"node":12,"path":"translation"}},{"sampler":31,"target":{"node":12,"path":"rotation"}},{"sampler":32,"target":{"node":12,"path":"scale"}},{"sampler":33,"target":{"node":13,"path":"translation"}},{"sampler":34,"target":{"node":13,"path":"rotation"}},{"sampler":35,"target":{"node":13,"path":"scale"}},{"sampler":36,"target":{"node":15,"path":"translation"}},{"sampler":37,"target":{"node":15,"path":"rotation"}},{"sampler":38,"target":{"node":15,"path":"scale"}},{"sampler":39,"target":{"node":16,"path":"translation"}},{"sampler":40,"target":{"node":16,"path":"rotation"}},{"sampler":41,"target":{"node":16,"path":"scale"}},{"sampler":42,"target":{"node":17,"path":"translation"}},{"sampler":43,"target":{"node":17,"path":"rotation"}},{"sampler":44,"target":{"node":17,"path":"scale"}},{"sampler":45,"target":{"node":18,"path":"translation"}},{"sampler":46,"target":{"node":18,"path":"rotation"}},{"sampler":47,"target":{"node":18,"path":"scale"}},{"sampler":48,"target":{"node":19,"path":"translation"}},{"sampler":49,"target":{"node":19,"path":"rotation"}},{"sampler":50,"target":{"node":19,"path":"scale"}},{"sampler":51,"target":{"node":20,"path":"translation"}},{"sampler":52,"target":{"node":20,"path":"rotation"}},{"sampler":53,"target":{"node":20,"path":"scale"}},{"sampler":54,"target":{"node":21,"path":"translation"}},{"sampler":55,"target":{"node":21,"path":"rotation"}},{"sampler":56,"target":{"node":21,"path":"scale"}},{"sampler":57,"target":{"node":22,"path":"translation"}},{"sampler":58,"target":{"node":22,"path":"rotation"}},{"sampler":59,"target":{"node":22,"path":"scale"}}],"samplers":[{"input":7,"interpolation":"LINEAR","output":8},{"input":7,"interpolation":"LINEAR","output":9},{"input":7,"interpolation":"LINEAR","output":10},{"input":11,"interpolation":"LINEAR","output":12},{"input":11,"interpolation":"LINEAR","output":13},{"input":11,"interpolation":"LINEAR","output":14},{"input":15,"interpolation":"LINEAR","output":16},{"input":15,"interpolation":"LINEAR","output":17},{"input":15,"interpolation":"LINEAR","output":18},{"input":19,"interpolation":"LINEAR","output":20},{"input":19,"interpolation":"LINEAR","output":21},{"input":19,"interpolation":"LINEAR","output":22},{"input":23,"interpolation":"LINEAR","output":24},{"input":23,"interpolation":"LINEAR","output":25},{"input":23,"interpolation":"LINEAR","output":26},{"input":27,"interpolation":"LINEAR","output":28},{"input":27,"interpolation":"LINEAR","output":29},{"input":27,"interpolation":"LINEAR","output":30},{"input":31,"interpolation":"LINEAR","output":32},{"input":31,"interpolation":"LINEAR","output":33},{"input":31,"interpolation":"LINEAR","output":34},{"input":35,"interpolation":"LINEAR","output":36},{"input":35,"interpolation":"LINEAR","output":37},{"input":35,"interpolation":"LINEAR","output":38},{"input":39,"interpolation":"LINEAR","output":40},{"input":39,"interpolation":"LINEAR","output":41},{"input":39,"interpolation":"LINEAR","output":42},{"input":43,"interpolation":"LINEAR","output":44},{"input":43,"interpolation":"LINEAR","output":45},{"input":43,"interpolation":"LINEAR","output":46},{"input":47,"interpolation":"LINEAR","output":48},{"input":47,"interpolation":"LINEAR","output":49},{"input":47,"interpolation":"LINEAR","output":50},{"input":51,"interpolation":"LINEAR","output":52},{"input":51,"interpolation":"LINEAR","output":53},{"input":51,"interpolation":"LINEAR","output":54},{"input":55,"interpolation":"LINEAR","output":56},{"input":55,"interpolation":"LINEAR","output":57},{"input":55,"interpolation":"LINEAR","output":58},{"input":59,"interpolation":"LINEAR","output":60},{"input":59,"interpolation":"LINEAR","output":61},{"input":59,"interpolation":"LINEAR","output":62},{"input":63,"interpolation":"LINEAR","output":64},{"input":63,"interpolation":"LINEAR","output":65},{"input":63,"interpolation":"LINEAR","output":66},{"input":67,"interpolation":"LINEAR","output":68},{"input":67,"interpolation":"LINEAR","output":69},{"input":67,"interpolation":"LINEAR","output":70},{"input":71,"interpolation":"LINEAR","output":72},{"input":71,"interpolation":"LINEAR","output":73},{"input":71,"interpolation":"LINEAR","output":74},{"input":75,"interpolation":"LINEAR","output":76},{"input":75,"interpolation":"LINEAR","output":77},{"input":75,"interpolation":"LINEAR","output":78},{"input":79,"interpolation":"LINEAR","output":80},{"input":79,"interpolation":"LINEAR","output":81},{"input":79,"interpolation":"LINEAR","output":82},{"input":83,"interpolation":"LINEAR","output":84},{"input":83,"interpolation":"LINEAR","output":85},{"input":83,"interpolation":"LINEAR","output":86}]}],"skins":[{"inverseBindMatrices":6,"skeleton":1,"joints":[1,2,3,4,5,6,7,8,9,10,11,12,13,14,15,16,17,18,19,20,21,22],"name":"skeleton #0"}]}