{"asset":{"version":"2.0","generator":"babylon.js glTF exporter for 3dsmax 2019 v1.5.0"},"scene":0,"scenes":[{"nodes":[0,1,2,3],"extensions":{}}],"nodes":[{"mesh":0,"translation":[0.0,0.0,0.0],"rotation":[0.0,-0.7071068,0.0,0.7071067],"scale":[1.0,1.0,1.0],"name":"StandardMesh"},{"mesh":1,"translation":[3.0,0.0,0.0],"rotation":[0.0,-0.7071068,0.0,0.7071067],"scale":[1.0,1.0,1.0],"name":"PhysicalMesh"},{"mesh":2,"translation":[6.0,0.0,0.0],"rotation":[0.0,-0.7071068,0.0,0.7071067],"scale":[1.0,1.0,1.0],"name":"StandardSurfaceMesh"},{"translation":[0.0,0.0,0.0],"rotation":[0.0,0.0,0.0,1.0],"scale":[1.0,1.0,1.0],"name":"Default light"}],"meshes":[{"primitives":[{"attributes":{"POSITION":1,"NORMAL":2,"TEXCOORD_0":3},"indices":0,"mode":4,"material":0}],"name":"StandardMesh"},{"primitives":[{"attributes":{"POSITION":5,"NORMAL":6,"TEXCOORD_0":7},"indices":4,"mode":4,"material":1}],"name":"PhysicalMesh"},{"primitives":[{"attributes":{"POSITION":9,"NORMAL":10,"TEXCOORD_0":11},"indices":8,"mode":4,"material":2}],"name":"StandardSurfaceMesh"}],"accessors":[{"bufferView":0,"componentType":5123,"count":2880,"type":"SCALAR","name":"accessorIndices"},{"bufferView":1,"componentType":5126,"count":2880,"max":[1.0,1.0,1.0],"min":[-1.0,-1.0,-1.0],"type":"VEC3","name":"accessorPositions"},{"bufferView":1,"byteOffset":34560,"componentType":5126,"count":2880,"type":"VEC3","name":"accessorNormals"},{"bufferView":2,"componentType":5126,"count":2880,"type":"VEC2","name":"accessorUVs"},{"bufferView":0,"byteOffset":5760,"componentType":5123,"count":2880,"type":"SCALAR","name":"accessorIndices"},{"bufferView":1,"byteOffset":69120,"componentType":5126,"count":2880,"max":[1.0,1.0,1.0],"min":[-1.0,-1.0,-1.0],"type":"VEC3","name":"accessorPositions"},{"bufferView":1,"byteOffset":103680,"componentType":5126,"count":2880,"type":"VEC3","name":"accessorNormals"},{"bufferView":2,"byteOffset":23040,"componentType":5126,"count":2880,"type":"VEC2","name":"accessorUVs"},{"bufferView":0,"byteOffset":11520,"componentType":5123,"count":2880,"type":"SCALAR","name":"accessorIndices"},{"bufferView":1,"byteOffset":138240,"componentType":5126,"count":2880,"max":[1.0,1.0,1.0],"min":[-1.0,-1.0,-1.0],"type":"VEC3","name":"accessorPositions"},{"bufferView":1,"byteOffset":172800,"componentType":5126,"count":2880,"type":"VEC3","name":"accessorNormals"},{"bufferView":2,"byteOffset":46080,"componentType":5126,"count":2880,"type":"VEC2","name":"accessorUVs"}],"bufferViews":[{"buffer":0,"byteLength":17280,"name":"bufferViewScalar"},{"buffer":0,"byteOffset":17280,"byteLength":207360,"byteStride":12,"name":"bufferViewFloatVec3"},{"buffer":0,"byteOffset":224640,"byteLength":69120,"byteStride":8,"name":"bufferViewFloatVec2"}],"buffers":[{"uri":"Mask.bin","byteLength":293760}],"materials":[{"pbrMetallicRoughness":{"baseColorFactor":[1.0,1.0,1.0,1.0],"baseColorTexture":{"index":0,"texCoord":0},"metallicFactor":0.0,"roughnessFactor":0.450053632},"emissiveFactor":[0.0,0.0,0.0],"alphaMode":"MASK","name":"StandardMaterialMask"},{"pbrMetallicRoughness":{"baseColorFactor":[0.0,1.0,0.0,1.0],"baseColorTexture":{"index":1,"texCoord":0},"metallicFactor":0.0,"roughnessFactor":0.0},"emissiveFactor":[0.0,0.0,0.0],"alphaMode":"MASK","name":"PhysicalMaterialMask"},{"pbrMetallicRoughness":{"baseColorFactor":[1.0,1.0,1.0,1.0],"baseColorTexture":{"index":2,"texCoord":0},"metallicFactor":0.0,"roughnessFactor":0.1},"emissiveFactor":[0.0,0.0,0.0],"alphaMode":"MASK","name":"StandardSurfaceMaterialMask"}],"textures":[{"sampler":0,"source":0,"name":"StandardMaterialMask_baseColor.png"},{"sampler":0,"source":1,"name":"02550.png"},{"sampler":0,"source":2,"name":"00204.png"}],"images":[{"uri":"StandardMaterialMask_baseColor.png"},{"uri":"02550.png"},{"uri":"00204.png"}],"samplers":[{"magFilter":9729,"minFilter":9987,"wrapS":10497,"wrapT":10497}]}