{
	"asset": {
		"version": "2.0",
		"generator": "Babylon2Gltf2017",
		"copyright": "2017 (c) BabylonJS"
	},
	"scene": 0,
	"scenes": [
		{
			"nodes": [
				1
			]
		}
	],
	"nodes": [
		{
			"mesh": 0,
			"translation": [
				0,
				0,
				0
			],
			"rotation": [
				0,
				0,
				0,
				1
			],
			"scale": [
				1,
				1,
				1
			],
			"name": "pCube1"
		},
		{
			"children": [
				0
			],
			"translation": [
				0,
				0,
				0
			],
			"rotation": [
				0,
				1,
				0,
				-4.371139e-8
			],
			"scale": [
				1,
				1,
				-1
			],
			"name": "root"
		}
	],
	"meshes": [
		{
			"primitives": [
				{
					"attributes": {
						"POSITION": 1,
						"NORMAL": 2
					},
					"indices": 0
				}
			],
			"name": "pCube1"
		}
	],
	"accessors": [
		{
			"bufferView": 0,
			"componentType": 5123,
			"count": 36,
			"type": "SCALAR",
			"name": "accessorIndices"
		},
		{
			"bufferView": 1,
			"componentType": 5126,
			"count": 36,
			"max": [
				0.5,
				0.5,
				0.5
			],
			"min": [
				-0.5,
				-0.5,
				-0.5
			],
			"type": "VEC3",
			"name": "accessorPositions"
		},
		{
			"bufferView": 1,
			"byteOffset": 432,
			"componentType": 5126,
			"count": 36,
			"type": "VEC3",
			"name": "accessorNormals"
		}
	],
	"bufferViews": [
		{
			"buffer": 0,
			"byteLength": 72,
			"name": "bufferViewScalar"
		},
		{
			"buffer": 0,
			"byteOffset": 72,
			"byteLength": 864,
			"byteStride": 12,
			"name": "bufferViewFloatVec3"
		}
	],
	"buffers": [
		{
			"uri": "Lights.bin",
			"byteLength": 936
		}
	]
}