{"asset":{"version":"2.0","generator":"Babylon2Gltf2017","copyright":"2017 (c) BabylonJS"},"scene":0,"scenes":[{"nodes":[0,1,2,3]}],"nodes":[{"mesh":0,"translation":[0.0,0.0,0.0],"rotation":[0.0,0.0,0.0,1.0],"scale":[1.0,1.0,1.0],"name":"pSphere1"},{"mesh":1,"translation":[3.0,0.0,0.0],"rotation":[0.0,0.0,0.0,1.0],"scale":[1.0,1.0,1.0],"name":"pSphere2"},{"mesh":2,"translation":[6.0,0.0,0.0],"rotation":[0.0,0.0,0.0,1.0],"scale":[1.0,1.0,1.0],"name":"pSphere3"},{"mesh":3,"translation":[9.0,0.0,0.0],"rotation":[0.0,0.0,0.0,1.0],"scale":[1.0,1.0,1.0],"name":"pSphere4"}],"meshes":[{"primitives":[{"attributes":{"POSITION":1,"NORMAL":2,"TEXCOORD_0":3},"indices":0,"mode":4,"material":0}],"name":"pSphere1"},{"primitives":[{"attributes":{"POSITION":5,"NORMAL":6,"TEXCOORD_0":7},"indices":4,"mode":4,"material":1}],"name":"pSphere2"},{"primitives":[{"attributes":{"POSITION":9,"NORMAL":10,"TEXCOORD_0":11},"indices":8,"mode":4,"material":2}],"name":"pSphere3"},{"primitives":[{"attributes":{"POSITION":13,"NORMAL":14,"TEXCOORD_0":15},"indices":12,"mode":4,"material":3}],"name":"pSphere4"}],"accessors":[{"bufferView":0,"componentType":5123,"count":2280,"type":"SCALAR","name":"accessorIndices"},{"bufferView":1,"componentType":5126,"count":2280,"max":[1.0,1.0,1.00000012],"min":[-1.00000024,-1.0,-1.00000048],"type":"VEC3","name":"accessorPositions"},{"bufferView":1,"byteOffset":27360,"componentType":5126,"count":2280,"type":"VEC3","name":"accessorNormals"},{"bufferView":2,"componentType":5126,"count":2280,"type":"VEC2","name":"accessorUVs"},{"bufferView":0,"byteOffset":4560,"componentType":5123,"count":2280,"type":"SCALAR","name":"accessorIndices"},{"bufferView":1,"byteOffset":54720,"componentType":5126,"count":2280,"max":[1.0,1.0,1.00000012],"min":[-1.00000024,-1.0,-1.00000048],"type":"VEC3","name":"accessorPositions"},{"bufferView":1,"byteOffset":82080,"componentType":5126,"count":2280,"type":"VEC3","name":"accessorNormals"},{"bufferView":2,"byteOffset":18240,"componentType":5126,"count":2280,"type":"VEC2","name":"accessorUVs"},{"bufferView":0,"byteOffset":9120,"componentType":5123,"count":2280,"type":"SCALAR","name":"accessorIndices"},{"bufferView":1,"byteOffset":109440,"componentType":5126,"count":2280,"max":[1.0,1.0,1.00000012],"min":[-1.00000024,-1.0,-1.00000048],"type":"VEC3","name":"accessorPositions"},{"bufferView":1,"byteOffset":136800,"componentType":5126,"count":2280,"type":"VEC3","name":"accessorNormals"},{"bufferView":2,"byteOffset":36480,"componentType":5126,"count":2280,"type":"VEC2","name":"accessorUVs"},{"bufferView":0,"byteOffset":13680,"componentType":5123,"count":2280,"type":"SCALAR","name":"accessorIndices"},{"bufferView":1,"byteOffset":164160,"componentType":5126,"count":2280,"max":[1.0,1.0,1.00000012],"min":[-1.00000024,-1.0,-1.00000048],"type":"VEC3","name":"accessorPositions"},{"bufferView":1,"byteOffset":191520,"componentType":5126,"count":2280,"type":"VEC3","name":"accessorNormals"},{"bufferView":2,"byteOffset":54720,"componentType":5126,"count":2280,"type":"VEC2","name":"accessorUVs"}],"bufferViews":[{"buffer":0,"byteLength":18240,"name":"bufferViewScalar"},{"buffer":0,"byteOffset":18240,"byteLength":218880,"byteStride":12,"name":"bufferViewFloatVec3"},{"buffer":0,"byteOffset":237120,"byteLength":72960,"byteStride":8,"name":"bufferViewFloatVec2"}],"buffers":[{"uri":"Emissive.bin","byteLength":310080}],"materials":[{"pbrMetallicRoughness":{"baseColorFactor":[1.0,0.305745065,0.305745065,1.0],"metallicFactor":0.630135357,"roughnessFactor":0.5678072},"emissiveFactor":[0.4965035,0.0,0.0],"alphaMode":"OPAQUE","name":"ColorValue_AmbientValue"},{"pbrMetallicRoughness":{"baseColorFactor":[1.0,1.0,1.0,1.0],"baseColorTexture":{"index":1},"metallicFactor":0.4791667,"roughnessFactor":0.5678072},"emissiveTexture":{"index":0},"emissiveFactor":[1.0,1.0,1.0],"alphaMode":"OPAQUE","name":"ColorTexture_AmbientValue"},{"pbrMetallicRoughness":{"baseColorFactor":[1.0,0.305745065,0.305745065,1.0],"metallicFactor":0.630135357,"roughnessFactor":0.5678072},"emissiveTexture":{"index":2},"emissiveFactor":[1.0,1.0,1.0],"alphaMode":"OPAQUE","name":"ColorValue_AmbientTexture"},{"pbrMetallicRoughness":{"baseColorFactor":[1.0,1.0,1.0,1.0],"baseColorTexture":{"index":4},"metallicFactor":0.4791667,"roughnessFactor":0.5678072},"emissiveTexture":{"index":3},"emissiveFactor":[1.0,1.0,1.0],"alphaMode":"OPAQUE","name":"ColorTexture_AmbientTexture"}],"textures":[{"sampler":0,"source":0,"name":"ColorTexture_AmbientValue_emissive.jpg"},{"sampler":1,"source":1,"name":"ColorTexture_AmbientValue_baseColor.jpg"},{"sampler":2,"source":2,"name":"ColorValue_AmbientTexture_emissive.jpg"},{"sampler":3,"source":3,"name":"ColorTexture_AmbientTexture_emissive.jpg"},{"sampler":4,"source":4,"name":"ColorTexture_AmbientTexture_baseColor.jpg"}],"images":[{"uri":"ColorTexture_AmbientValue_emissive.jpg"},{"uri":"ColorTexture_AmbientValue_baseColor.jpg"},{"uri":"ColorValue_AmbientTexture_emissive.jpg"},{"uri":"ColorTexture_AmbientTexture_emissive.jpg"},{"uri":"ColorTexture_AmbientTexture_baseColor.jpg"}],"samplers":[{"magFilter":9729,"minFilter":9987,"wrapS":10497,"wrapT":10497},{"magFilter":9729,"minFilter":9987,"wrapS":10497,"wrapT":10497},{"magFilter":9729,"minFilter":9987,"wrapS":10497,"wrapT":10497},{"magFilter":9729,"minFilter":9987,"wrapS":10497,"wrapT":10497},{"magFilter":9729,"minFilter":9987,"wrapS":10497,"wrapT":10497}]}